<svg width="436" height="436" viewBox="0 0 436 436" fill="none"
    xmlns="http://www.w3.org/2000/svg">
    <path d="M136.663 211.99C124.515 217.732 114.141 234.121 125.774 272.252C144.64 315.322 178.277 319.328 192.737 315.947M136.663 211.99C139.32 210.734 142.062 209.987 144.678 209.633C160.3 208.714 194.537 216.564 206.509 255.317C220.082 299.25 201.586 312.409 192.737 315.947M136.663 211.99V211.99C124.346 217.681 112.795 226.353 110.207 239.673C107.801 252.061 108.472 268.761 117.898 287.612C128.161 308.139 143.792 317.976 157.03 322.13C169.027 325.894 181.548 321.681 192.737 315.947V315.947" stroke="white" stroke-width="3"/>
    <path d="M358.891 121.592L372.451 157.752M358.891 121.592L322.279 128.824M358.891 121.592L376.971 102.156M372.451 157.752L335.387 162.724L322.279 128.824M372.451 157.752L389.627 137.412L376.971 102.156M322.279 128.824L339.455 109.388L376.971 102.156" stroke="white" stroke-width="3"/>
    <path d="M251.77 218.772L203.406 389.175M251.77 218.772L100.351 142.384M251.77 218.772L369.29 202.048M203.406 389.175L52.8906 305.104M203.406 389.175L323.186 368.383M52.8906 305.104L100.351 142.384M52.8906 305.104L170.862 289.284M100.351 142.384L216.966 127.016M369.29 202.048L216.966 127.016M369.29 202.048L323.186 368.383M216.966 127.016L170.862 289.284M323.186 368.383L170.862 289.284" stroke="white" stroke-width="3"/>
    <path d="M285.22 100.349L298.78 108.033V129.896M285.22 100.349V121.593M285.22 100.349L238.664 159.56V179.448M298.78 129.896L285.22 121.593M298.78 129.896L250.416 187.584L238.664 179.448M285.22 121.593L238.664 179.448" stroke="white" stroke-width="3"/>
    <path d="M292.866 235.618C301.653 244.648 305.843 269.286 284.558 291.242C260.549 316.007 237.309 308.755 233.026 302.895M292.866 235.618C288.772 231.95 268.3 217.162 241.483 248.168C220.03 272.974 226.906 294.988 233.026 302.895M292.866 235.618C299.101 238.624 310.802 248.683 307.723 264.876C304.643 281.068 298.492 290.663 295.802 293.436C290.379 300.266 275.588 312.193 262.646 314.546C243.523 318.023 234.787 307.731 233.026 302.895" stroke="white" stroke-width="3"/>
    <path d="M247.171 100.94L228.819 92.3147M247.171 100.94L214.138 31.7546L196.337 22.7622M247.171 100.94L235.609 109.565L217.258 100.94M228.819 92.3147L196.337 22.7622M228.819 92.3147L217.258 100.94M196.337 22.7622L184.775 30.47L217.258 100.94" stroke="white" stroke-width="3"/>
    <path d="M241.848 126.45L221.294 122.229M241.848 126.45L233.406 138.011L212.118 133.239M241.848 126.45L192.849 69.9264L173.029 64.7881M221.294 122.229L173.029 64.7881M221.294 122.229L212.118 133.239M173.029 64.7881L163.486 74.1472L212.118 133.239" stroke="white" stroke-width="3"/>
    <ellipse cx="209.178" cy="389.813" rx="113.105" ry="9.22151" stroke="white" stroke-width="3"/>
    <circle cx="105.995" cy="291.961" r="66.2875" stroke="white" stroke-width="3"/>
    <circle cx="274.354" cy="31.5987" r="7.34626" stroke="white" stroke-width="3"/>
    <circle cx="142.329" cy="119.669" r="3.81299" stroke="white" stroke-width="3"/>
    <circle cx="258.381" cy="107.306" r="3.81299" stroke="white" stroke-width="3"/>
    <circle cx="294.965" cy="85.9087" r="3.81299" stroke="white" stroke-width="3"/>
    <circle cx="347.94" cy="192.353" r="58.1218" stroke="white" stroke-width="3"/>
    <path d="M192.711 155.474L174.281 87.3087L170.999 83.5215L160.9 87.3087L180.845 161.786M192.711 155.474L180.845 161.786M192.711 155.474L206.568 168.38M180.845 161.786L195.432 176.299L206.568 168.38M206.568 168.38L192.711 109.658" stroke="white" stroke-width="3"/>
</svg>
