<svg width="436" height="436" viewBox="0 0 436 436" fill="none"
    xmlns="http://www.w3.org/2000/svg">
    <path d="M88.5113 314.926C88.3596 305.582 88.2078 296.158 88.056 286.738C87.9738 286.703 87.8884 286.668 87.8062 286.633C87.5343 287.117 87.215 287.581 87 288.087C86.0735 290.274 84.6159 292.101 83.0128 293.781C80.8786 296.018 78.2099 297.38 75.1745 297.922C71.4404 298.587 67.7062 299.319 63.9436 299.758C60.8038 300.124 57.7937 299.459 55.0587 297.683C50.8882 294.971 48.1342 291.108 45.9462 286.738C43.5716 281.996 42.2152 276.939 41.5164 271.716C40.8303 266.598 40.8714 261.468 41.7409 256.35C42.2057 253.62 43.0025 250.997 43.8815 248.387C44.0933 247.754 44.1566 247.047 44.1629 246.373C44.1913 243.776 44.0174 241.169 44.1977 238.588C44.5012 234.234 45.415 229.998 47.1414 225.96C48.403 223.006 50.1072 220.361 52.4154 217.946C52.4154 216.95 52.3774 215.89 52.4217 214.833C52.6652 208.878 53.8983 203.147 56.7313 197.883C58.9952 193.675 62.1192 190.311 66.8809 188.866C67.311 185.069 67.9022 181.358 69.1575 177.794C70.7669 173.224 73.0877 169.096 76.9231 166.037C78.3965 164.863 80.0502 163.88 82.1243 163.504C82.1781 162.995 82.273 162.489 82.2856 161.98C82.4121 156.843 83.4365 151.862 85.1787 147.063C87.0853 141.821 89.8646 137.072 94.2185 133.482C95.9512 132.053 97.9147 130.924 100.138 130.246C102.898 129.406 105.633 129.561 108.412 129.873C108.981 129.937 109.56 129.95 110.151 129.985C111.903 127.795 113.519 125.561 115.362 123.537C117.812 120.844 120.37 118.238 123.011 115.733C125.812 113.076 128.914 110.781 132.174 108.706C138.456 104.712 145.169 101.844 152.47 100.278C157.772 99.1389 163.1 98.8684 168.466 99.1453C170.606 99.2567 172.722 99.8295 174.849 100.18C182.384 101.424 189.23 104.422 195.759 108.311C202.627 112.404 208.583 117.608 213.956 123.473C217.269 127.092 220.393 130.914 223.017 135.102C223.378 135.678 223.789 136.223 224.232 136.859C228.544 135.65 232.737 136.866 237.11 137.184C237.48 136.894 237.954 136.566 238.381 136.184C241.382 133.498 244.581 131.07 248.006 128.976C250.475 127.467 253.055 126.118 255.667 124.867C259.433 123.059 263.401 121.742 267.473 120.882C270.759 120.192 274.123 119.784 277.471 119.501C280.934 119.212 284.415 119.25 287.883 119.689C295.001 120.59 301.808 122.576 308.243 125.739C311.025 127.108 313.684 128.759 316.309 130.427C320.153 132.868 323.628 135.809 326.898 138.972C329.019 141.028 331.071 143.186 332.94 145.475C339.175 153.1 344.127 161.499 347.82 170.671C350.767 177.985 352.733 185.553 354.185 193.28C354.302 193.904 354.34 194.544 354.425 195.174C354.507 195.785 354.599 196.393 354.668 196.855C355.323 194.124 355.971 191.288 356.689 188.472C357.128 186.743 357.735 186.409 359.579 186.67C360.189 187.097 360.243 187.72 360.101 188.373C359.332 191.941 360.015 195.445 360.505 198.961C361.593 206.765 363.968 214.257 365.937 221.848C365.972 221.988 366.08 222.109 366.31 222.519C366.443 219.967 366.57 217.707 366.674 215.447C366.974 209.092 367.11 202.72 367.613 196.38C367.936 192.323 368.818 188.312 369.412 184.274C369.868 181.167 370.56 178.112 371.727 175.206C372.593 173.052 373.687 170.986 374.753 168.918C375.278 167.896 375.48 167.871 376.612 167.998C377.162 168.466 377.026 169.054 376.833 169.605C376.536 170.455 376.226 171.305 375.843 172.116C374.142 175.716 373.39 179.557 373.01 183.478C372.641 187.278 372.296 191.084 372.119 194.897C371.995 197.485 372.147 200.091 372.226 202.685C372.489 211.59 372.773 220.498 373.055 229.403C373.071 229.906 373.14 230.409 373.437 230.931C373.567 230.562 373.712 230.199 373.823 229.823C375.979 222.615 378.047 215.381 380.311 208.207C381.968 202.952 383.872 197.771 386.559 192.94C387.536 191.186 388.703 189.541 389.787 187.848C389.873 187.714 389.968 187.587 390.075 187.469C390.707 186.775 391.602 186.619 392.361 187.062C393.054 187.466 393.265 188.191 392.753 189.14C391.539 191.393 390.537 193.729 390.024 196.237C389.376 199.404 388.716 202.577 388.308 205.779C387.767 210.037 387.419 214.321 387.065 218.598C386.452 225.998 385.927 233.404 385.301 240.8C384.915 245.383 383.568 249.74 381.99 254.027C381.661 254.921 381.295 255.8 380.874 256.872C381.364 257.006 381.785 257.159 382.221 257.238C384.453 257.649 386.625 258.212 388.715 259.167C394.536 261.821 398.087 271.248 391.16 277.028C390.679 277.429 390.221 277.862 389.689 278.336C392.902 280.681 394.549 283.835 394.714 287.702C394.884 291.677 392.674 294.472 389.674 296.992C392.835 299.328 394.274 302.533 394.473 306.292C394.682 310.203 392.503 312.978 389.772 315.556C390.025 315.824 390.249 316.085 390.499 316.317C393.433 319.048 394.53 322.529 394.138 326.399C393.787 329.853 391.846 332.51 389.054 334.483C386.736 336.126 384.096 337.036 381.348 337.65C377.475 338.519 373.545 338.92 369.589 339.034C361.821 339.26 354.099 338.818 346.485 337.144C342.606 336.291 338.786 335.209 335.555 332.762C330.331 328.806 328.918 323.57 331.327 317.899C331.827 316.721 332.823 315.747 333.629 314.713C333.914 314.347 334.315 314.073 334.606 313.812C333.329 312.11 332.099 310.471 330.695 308.596C303.057 304.863 275.154 301.095 247.089 297.304V345.966C246.387 346.832 245.669 346.864 244.831 346.692C233.009 344.292 221.18 341.902 209.355 339.525C188.057 335.244 166.755 330.976 145.46 326.692C127.301 323.039 109.149 319.369 90.9934 315.703C90.1871 315.54 89.286 315.668 88.5208 314.907L88.5113 314.926ZM285.97 143.266L286.04 143.329L285.942 143.275L285.913 143.208L285.967 143.266H285.97ZM271.748 151.56C271.669 151.426 271.59 151.296 271.508 151.162C271.4 150.926 271.337 150.649 271.176 150.465C268.748 147.693 265.867 145.665 262.171 144.994C259.79 144.561 257.479 144.806 254.829 145.71C255.737 145.911 256.277 146.07 256.831 146.143C257.874 146.28 258.921 146.404 259.97 146.471C263.135 146.674 266.06 147.594 268.694 149.392C269.601 150.01 270.49 150.656 271.388 151.286C271.517 151.366 271.65 151.445 271.78 151.525C271.897 151.623 272.014 151.725 272.131 151.824L272.147 151.91L272.09 151.868C271.976 151.767 271.862 151.662 271.748 151.56ZM242.362 263.565C243.064 263.428 243.766 263.292 244.499 263.148V261.35C243.642 262.27 243.019 262.935 242.397 263.603C242.283 263.629 242.169 263.651 242.273 263.629C242.188 263.693 242.273 263.629 242.362 263.562V263.565ZM342.875 171.336L342.846 171.206L342.913 171.295C344.585 172.982 346.255 174.672 348.114 176.546C347.595 175.261 347.153 174.169 346.738 173.147C345.821 172.597 345.031 172.075 344.196 171.648C343.804 171.448 343.317 171.435 342.875 171.336ZM342.897 211.055C343.191 211.001 343.513 211.008 343.773 210.883C347.178 209.206 349.796 206.644 351.788 203.443C352.389 202.478 353.04 201.32 353.034 200.254C353.021 197.924 352.604 195.597 352.354 193.271C351.937 194.207 351.87 195.152 351.671 196.068C350.482 201.546 348.063 206.326 343.757 210.018C343.422 210.304 343.191 210.718 342.913 211.071C342.767 211.097 342.622 211.122 342.476 211.148C342.508 211.211 342.543 211.275 342.574 211.335C342.682 211.243 342.792 211.148 342.9 211.055H342.897ZM299.541 168.803C299.522 168.657 299.506 168.507 299.522 168.647C299.456 168.51 299.516 168.638 299.579 168.765C299.873 169.589 299.8 170.394 299.601 171.244C299.117 173.306 298.501 175.311 297.565 177.215C297.356 177.635 297.211 178.087 297.031 178.532C297.404 179.633 297.764 180.706 298.159 181.877C298.438 181.661 298.643 181.565 298.747 181.403C299.636 180.038 300.502 178.656 301.388 177.291C301.606 176.957 301.878 176.658 302.128 176.346C302.156 176.486 302.184 176.623 302.153 176.47C302.245 176.581 302.165 176.483 302.083 176.384C302.188 175.923 302.241 175.445 302.403 175.006C304.312 169.812 304.717 164.554 303.421 159.125C302.311 154.484 300.104 150.567 296.449 147.546C295.064 146.401 293.518 145.408 291.646 145.115C292.228 145.825 292.892 146.42 293.508 147.059C294.09 147.664 294.653 148.294 295.168 148.959C297.653 152.155 299.098 155.828 299.829 159.777C300.341 162.543 300.449 165.35 300.069 168.154C300.038 168.389 299.718 168.587 299.535 168.803H299.541ZM139.585 294.121C139.62 294.144 139.655 294.163 139.689 294.185C139.642 294.179 139.595 294.169 139.547 294.163C139.376 293.79 139.237 293.396 139.025 293.049C136.977 289.685 135.396 286.098 134.409 282.295C133.249 277.82 132.746 273.259 132.983 268.603C133.236 263.613 134.33 258.871 136.474 254.367C136.629 254.043 136.812 253.648 136.755 253.324C136.49 251.793 136.148 250.278 135.762 248.419C134.956 249.476 134.327 250.192 133.821 250.981C131.348 254.845 130.001 259.138 129.524 263.654C128.61 272.26 130.055 280.459 134.422 287.992C135.769 290.312 137.324 292.54 139.588 294.118L139.585 294.121ZM209.187 284.535L209.149 284.57C208.751 284.02 208.384 283.444 207.948 282.925C205.279 279.755 203.528 276.076 202.393 272.142C200.546 265.758 200.385 259.281 202.279 252.868C202.886 250.809 203.793 248.795 204.865 246.933C205.959 245.03 207.417 243.34 208.884 241.328C208.855 240.545 208.912 239.454 208.565 238.324C204.796 239.158 202.102 241.37 199.958 244.269C197.454 247.655 196.1 251.567 195.588 255.72C194.652 263.333 196.104 270.484 200.198 277.002C201.7 279.392 203.638 281.436 205.969 283.024C206.936 283.683 208.109 284.036 209.191 284.526L209.187 284.535ZM388.447 193.58C388.156 194.009 387.821 194.413 387.587 194.875C385.418 199.133 383.679 203.586 382.259 208.137C379.385 217.347 376.688 226.612 373.956 235.864C373.63 236.968 373.456 238.139 373.371 239.288C373.137 242.414 372.814 245.513 372.135 248.582C371.815 250.02 371.724 251.516 371.575 252.989C371.354 255.201 371.177 257.416 370.981 259.612C370.69 259.759 370.506 259.848 370.326 259.94C370.158 260.026 369.991 260.115 369.826 260.204C369.845 260.306 369.861 260.408 369.88 260.507C372.274 260.402 374.67 260.3 377.013 260.198C377.254 259.775 377.428 259.514 377.564 259.234C381.288 251.573 383.46 243.524 383.745 234.966C383.856 231.688 384.197 228.413 384.463 225.142C384.833 220.6 385.288 216.068 385.598 211.523C385.93 206.651 386.78 201.867 387.745 197.096C387.985 195.916 388.187 194.729 388.409 193.545C388.497 193.456 388.586 193.363 388.469 193.481C388.504 193.306 388.475 193.443 388.45 193.583L388.447 193.58ZM269.525 146.181C269.525 146.181 269.551 146.156 269.563 146.143C270.031 146.643 270.474 147.164 270.967 147.636C274.158 150.678 276.102 154.424 277.206 158.663C277.683 160.5 278.23 162.314 278.755 164.182C286.764 164.787 291.994 169.405 295.908 176.101C296.117 175.747 296.269 175.541 296.37 175.315C297.416 172.975 297.954 170.503 298.267 167.969C298.33 167.47 298.51 166.986 298.637 166.496C298.681 166.553 298.725 166.61 298.725 166.61C298.722 166.61 298.659 166.572 298.596 166.537C298.529 165.697 298.415 164.857 298.406 164.016C298.378 161.61 297.954 159.265 297.233 156.986C296.164 153.616 294.593 150.493 291.921 148.116C290.321 146.693 288.519 145.5 287.412 144.66C284.086 143.82 281.506 143.224 278.771 143.762C276.086 144.294 273.785 145.56 271.546 146.763C270.872 146.569 270.199 146.375 269.522 146.181H269.525ZM370.462 190.76C370.351 190.986 370.171 191.205 370.143 191.444C369.823 194.232 369.485 197.017 369.235 199.814C369.077 201.609 369.033 203.414 368.982 205.215C368.729 214.114 367.863 222.987 368.04 231.905C368.075 233.674 367.695 235.45 367.528 237.226C367.461 237.92 367.458 238.62 367.427 239.314C366.88 237.923 367.082 236.484 366.974 235.075C366.88 233.865 366.892 232.621 366.592 231.462C365.213 226.128 363.79 220.807 362.298 215.508C360.255 208.255 358.659 200.919 357.954 193.401C357.916 193.007 357.789 192.619 357.628 191.874C357.429 192.749 357.283 193.255 357.198 193.774C356.281 199.171 355.867 204.626 355.908 210.081C355.987 220.046 356.262 230.011 356.534 239.976C356.689 245.65 355.939 251.179 354.365 256.611C354.046 257.719 353.717 258.823 353.359 260.042C357.805 260.446 362.143 260.548 366.582 260.443C367.215 258.623 367.809 256.929 368.388 255.23C369.441 252.14 370.351 249.018 370.623 245.739C370.674 245.109 370.579 244.415 370.816 243.868C371.562 242.146 371.49 240.342 371.442 238.566C371.177 228.763 370.841 218.961 370.535 209.159C370.408 205.183 370.241 201.212 370.187 197.236C370.158 195.069 370.336 192.899 370.421 190.728C370.494 190.337 370.566 189.942 370.639 189.55C370.579 189.544 370.519 189.538 370.459 189.535C370.459 189.945 370.459 190.356 370.459 190.766L370.462 190.76ZM302.738 177.985C302.706 177.845 302.675 177.702 302.712 177.867C302.608 177.749 302.697 177.848 302.782 177.947C302.51 178.621 302.317 179.341 301.947 179.958C301.274 181.088 300.499 182.157 299.791 183.211C299.87 183.561 299.898 183.831 299.993 184.073C301.163 187.113 302.624 189.977 305.068 192.208C305.985 193.045 306.598 193.958 306.156 195.27C305.925 195.301 305.697 195.336 305.52 195.359C305.969 196.339 306.399 197.284 306.851 198.274C306.851 198.274 306.997 198.261 307.183 198.242C308.518 200.766 309.498 203.43 310.076 206.25C310.933 210.406 310.952 214.569 310.089 218.713C309.849 219.862 309.839 220.877 310.399 221.927C311.607 224.203 312.198 226.701 312.578 229.206C313.21 233.378 313.131 237.557 311.898 241.647C311.588 242.678 311.506 243.693 311.651 244.775C312.473 250.883 311.623 256.713 308.666 262.168C308.492 262.486 308.252 262.766 308.043 263.066C307.775 261.627 307.579 260.303 308.122 259.04C309.469 255.93 310.01 252.658 310.111 249.298C310.13 248.636 310.054 247.97 310.013 247.082C309.273 248.114 308.685 248.935 307.926 249.995C307.61 248.406 307.74 247.232 308.239 246.093C308.622 245.221 309.058 244.371 309.39 243.48C311.699 237.277 311.553 231.033 309.628 224.776C309.476 224.282 309.204 223.827 308.964 223.305C308.537 223.888 308.072 224.343 307.825 224.9C307.316 226.045 306.921 227.245 306.364 228.732C307.114 233.305 307.104 238.187 305.653 243.012C304.36 247.308 302.279 251.099 298.959 254.151C298.596 254.485 298.33 254.924 298.02 255.313C297.96 255.348 297.9 255.38 297.929 255.364C297.91 255.386 297.954 255.335 297.998 255.284C298.488 255.16 299.016 255.115 299.462 254.899C302.358 253.489 304.739 251.455 306.583 248.792C306.807 248.464 307.095 248.18 307.398 247.83C308.062 249.864 307.297 251.347 306.01 252.522C305.233 259.116 302.88 264.787 297.951 269.214C302.213 267.766 305.04 264.663 307.364 260.876C308.059 263.311 307.054 264.969 305.539 266.442C303.905 268.034 302.216 269.606 300.06 270.408C297.989 271.181 296.395 272.416 294.918 274.074C292.62 276.658 289.629 278.221 286.217 278.915C283.947 279.376 281.699 280.083 279.406 280.296C276.014 280.614 272.665 280.163 269.627 278.412C268.134 277.55 266.607 276.948 264.836 277.222C264.536 277.27 264.21 277.171 263.9 277.117C260.777 276.576 257.95 275.376 255.515 273.294C254.962 272.823 254.371 272.4 253.643 271.837C251.876 274.867 249.644 277.375 247.092 279.367V295.245C249.223 295.789 328.782 306.655 330.3 306.406C330.161 302.046 331.188 298.135 335.166 295.417C332.26 292.903 330.211 290.035 330.426 286.171C330.635 282.4 332.108 279.208 335.517 277.069C334.881 276.496 334.369 276.051 333.873 275.586C331.726 273.565 330.499 271.092 330.569 268.113C330.695 262.76 333.62 258.734 339.466 257.251C342.745 256.42 346.1 256.096 349.473 255.952C350.46 255.911 351.44 255.812 352.477 255.736C352.759 254.676 353.069 253.776 353.223 252.849C353.397 251.809 353.505 250.746 353.517 249.689C353.59 244.546 353.625 239.4 353.666 234.257C353.666 233.903 353.612 233.55 353.568 233.057C352.379 233.187 351.295 233.34 350.207 233.423C347.953 233.595 345.717 233.814 343.441 233.416C338.461 232.541 334.565 229.928 331.486 226.02C329.298 223.242 327.827 220.088 327.128 216.59C326.955 215.715 326.752 214.843 326.547 213.885C319.094 211.358 314.841 205.807 312.527 198.551C310.503 197.641 308.281 197.316 306.646 195.715C306.504 195.075 306.314 194.433 306.64 193.685C307.25 194.07 307.781 194.407 308.315 194.738C310.709 196.228 313.362 196.96 316.128 196.918C321.339 196.835 325.608 194.512 328.874 190.543C333.582 184.821 335.087 178.115 333.977 170.859C333.386 166.986 331.859 163.418 329.307 160.395C327.192 157.89 324.64 155.999 321.45 155.032C317.463 153.826 313.624 154.192 309.944 156.047C308.268 156.891 306.64 157.88 305.53 159.293C305.53 159.602 305.514 159.71 305.53 159.812C306.44 164.761 306.14 169.643 304.575 174.411C304.161 175.668 303.882 177.075 302.731 177.982L302.738 177.985ZM90.9586 313.593C142.153 323.898 193.305 334.194 244.458 344.493C244.803 342.675 244.702 298.154 244.366 296.957C238.495 296.162 232.592 295.382 226.695 294.564C220.763 293.74 214.812 293.046 208.738 292.072V286.7C207.989 286.292 207.398 285.952 206.791 285.643C204.305 284.379 202.288 282.565 200.483 280.446C197.757 277.241 196.078 273.501 194.753 269.558C194.554 268.969 194.238 268.409 193.909 267.881C193.267 266.85 192.572 265.854 191.911 264.838C191.604 264.364 191.32 263.874 191.022 263.387C190.893 263.492 190.836 263.514 190.83 263.546C190.798 263.699 190.76 263.855 190.763 264.008C190.915 269.854 190.118 275.529 187.763 280.93C186.526 283.765 184.971 286.385 182.792 288.603C182.239 289.166 181.701 289.761 181.265 290.414C180.591 291.423 179.972 292.476 179.396 293.549C178.346 295.503 176.8 297.059 175.15 298.428C173.585 299.726 171.846 300.894 169.775 301.346C166.429 302.075 163.078 302.778 159.739 303.545C158.395 303.854 157.061 303.937 155.682 303.94C151.632 303.943 148.252 302.266 145.09 299.946C144.625 299.605 144.176 299.201 143.658 298.978C138.791 296.897 135.361 293.237 132.73 288.775C130.457 284.917 128.958 280.739 128.168 276.305C127.956 275.118 127.564 273.953 127.162 272.814C126.441 270.767 125.461 268.797 124.923 266.71C123.333 260.526 122.928 254.266 124.348 247.974C124.705 246.392 124.629 244.88 124.323 243.279C123.554 239.244 123.548 235.17 124.117 231.093C124.493 228.404 125.214 225.807 126.153 223.267C126.349 222.739 126.457 222.179 126.64 221.491C119.766 218.951 115.466 213.843 112.266 207.367C110.967 210.658 109.566 213.535 107.552 216.106C105.478 218.754 102.838 220.571 99.97 221.739C99.6222 224.136 99.3787 226.294 98.9866 228.426C98.0602 233.502 96.2769 238.222 92.9474 242.235C92.3625 242.942 92.1854 243.674 92.2202 244.575C92.4162 249.587 91.9767 254.527 90.478 259.342C90.3104 259.886 90.1555 260.504 90.244 261.045C90.9618 265.411 91.0851 269.797 90.7784 274.205C90.6393 276.213 90.3326 278.221 90.3579 280.223C90.4812 290.831 90.6835 301.435 90.8638 312.043C90.8732 312.511 90.9175 312.978 90.9555 313.593H90.9586ZM221.873 137.556C218.948 132.658 215.457 128.4 211.758 124.339C208.558 120.825 205.061 117.604 201.302 114.673C198.124 112.197 194.763 110.02 191.247 108.117C187.162 105.905 182.84 104.228 178.362 102.942C175.662 102.169 172.927 101.65 170.154 101.36C164.03 100.717 157.971 101.185 151.951 102.535C148.533 103.302 145.235 104.422 142.07 105.832C136.464 108.33 131.314 111.615 126.587 115.587C121.585 119.794 117.24 124.6 113.288 129.791C113.209 129.896 113.199 130.055 113.104 130.354C115.008 130.554 116.854 130.612 118.638 130.975C120.478 131.347 122.258 132.015 124.174 132.585C124.756 132.267 125.401 131.917 126.043 131.56C128.161 130.383 130.419 129.724 132.844 129.915C136.094 130.173 139.332 130.586 142.586 130.806C144.619 130.943 146.516 131.493 148.385 132.228C148.963 132.458 149.526 132.735 149.858 132.884C151.651 131.802 153.213 130.717 154.895 129.88C156.934 128.864 159.132 128.26 161.446 128.46C164.697 128.744 167.938 129.106 171.182 129.431C174.498 129.762 177.547 130.8 180.199 132.878C180.901 133.428 181.632 133.966 182.236 134.615C183.488 135.962 184.664 137.381 185.79 138.676C188.436 138.855 191.045 139.062 193.659 139.182C194.371 139.214 195.177 139.16 195.797 138.852C198.317 137.594 200.941 137.041 203.74 137.289C204.941 137.397 206.146 137.493 207.344 137.607C210.955 137.948 214.585 138.196 217.706 139.991C219.16 139.141 220.466 138.377 221.867 137.556H221.873ZM84.0404 163.316C83.9677 171.483 85.2514 179.341 89.1975 186.622C90.9934 189.936 93.3079 192.79 96.3559 194.964C97.5827 195.839 99.0024 196.587 100.447 196.988C104.453 198.099 108.317 197.478 111.783 195.171C114.809 193.156 117.133 190.397 118.951 187.246C120.484 184.582 121.66 181.759 122.568 178.806C124.127 173.739 124.724 168.536 124.655 163.281C124.607 159.688 124.165 156.108 123.308 152.581C121.901 146.779 119.681 141.42 115.628 136.955C113.721 134.851 111.517 133.212 108.811 132.251C103.72 130.44 99.2238 131.754 95.2651 135.042C90.8764 138.686 88.2773 143.584 86.5035 148.953C84.9637 153.616 84.1543 158.402 84.0436 163.323L84.0404 163.316ZM304.957 157.043C305.236 156.871 305.448 156.738 305.663 156.61C307.104 155.742 308.496 154.774 309.994 154.026C312.597 152.731 315.385 152.276 318.285 152.556C320.482 152.769 322.702 152.852 324.874 153.211C327.985 153.727 330.793 155.026 333.231 157.085C335.865 159.306 337.854 161.999 339.175 165.191C339.599 166.212 339.994 167.247 340.421 168.319C342.053 168.867 343.706 169.424 345.546 170.041C345.183 169.134 344.942 168.437 344.629 167.772C340.408 158.746 335.191 150.392 328.339 143.116C321.361 135.707 313.352 129.829 303.961 125.87C298.517 123.572 292.866 122.108 287.03 121.494C278.429 120.587 269.971 121.579 261.792 124.402C253.884 127.13 246.773 131.321 240.458 136.856C240.193 137.088 239.978 137.381 239.652 137.741C244.316 139.1 247.674 142.031 250.39 145.895C250.81 145.665 251.174 145.471 251.534 145.274C254.013 143.915 256.619 142.849 259.477 142.941C263.47 143.072 267.473 143.282 271.315 144.577C271.457 144.625 271.628 144.583 271.891 144.583C275.302 142.435 279.074 141.318 283.22 141.764C285.442 142.002 287.687 142.13 289.875 142.556C293.24 143.212 296.231 144.685 298.744 147.12C300.825 149.135 302.485 151.413 303.636 154.074C304.053 155.035 304.483 155.99 304.954 157.046L304.957 157.043ZM42.8507 265.494C42.9487 266.764 43.0278 268.034 43.1416 269.3C43.8309 276.923 45.8924 284.077 50.2495 290.449C51.9759 292.973 54.107 295.102 56.7819 296.566C57.9613 297.212 59.3241 297.683 60.6521 297.855C64.1807 298.313 67.175 296.96 69.6539 294.516C71.7882 292.416 73.2869 289.822 74.3841 287.056C76.5247 281.665 77.2962 275.993 77.1634 270.23C77.0369 264.746 76.1326 259.374 74.2291 254.196C72.4933 249.469 70.1756 245.122 66.4098 241.678C64.3767 239.817 62.097 238.509 59.3241 238.136C56.5574 237.767 54.1259 238.524 51.9221 240.17C48.4314 242.78 46.5343 246.491 45.1178 250.466C43.3914 255.313 42.857 260.367 42.8412 265.491L42.8507 265.494ZM111.327 199.553C111.928 201.288 112.387 202.806 112.975 204.273C114.812 208.85 117.272 212.99 121.117 216.195C124.364 218.9 127.953 220.352 132.272 220.075C134.63 219.922 136.736 219.177 138.681 218.054C141.596 216.367 143.911 213.913 145.725 211.09C148.258 207.147 149.943 202.822 150.955 198.214C151.736 194.665 152.09 191.078 152.065 187.479C152.04 183.828 151.622 180.197 150.778 176.61C149.283 170.242 146.652 164.507 142.127 159.733C141.191 158.746 139.051 157.228 138.071 156.922C138.358 160.691 138.719 164.421 138.447 168.202C137.96 174.958 136.414 181.378 133.122 187.332C131.44 190.372 129.344 193.032 126.681 195.286C123.472 198 119.789 199.264 115.666 199.41C114.824 199.439 113.98 199.413 113.136 199.436C112.621 199.448 112.108 199.506 111.327 199.56V199.553ZM165.127 195.483C165.026 195.489 164.928 195.492 164.826 195.499C164.687 196.148 164.504 196.794 164.412 197.453C163.973 200.581 162.894 203.532 161.658 206.386C160.738 208.509 159.533 210.54 158.215 212.443C156.492 214.925 154.373 217.083 151.793 218.71C149.776 219.983 147.638 221.026 145.235 221.262C142.513 221.529 139.778 221.746 137.043 221.828C134.283 221.914 131.532 222.5 128.601 221.867C128.686 222.583 128.721 223.152 128.822 223.709C129.268 226.163 129.913 228.557 130.782 230.902C132.79 236.316 135.715 241.071 140.259 244.702C142.832 246.758 145.779 248.082 149.039 248.324C153.7 248.671 157.744 246.923 161.105 243.766C165.26 239.861 167.719 234.874 169.199 229.438C170.688 223.98 171.065 218.394 170.521 212.739C170.043 207.787 168.744 203.064 166.802 198.513C166.35 197.456 165.69 196.489 165.124 195.483H165.127ZM173.718 188.567C173.743 188.733 173.724 188.86 173.778 188.936C175.589 191.508 177.673 193.828 180.402 195.419C181.619 196.129 182.975 196.711 184.341 197.026C190.004 198.322 194.88 196.536 198.994 192.66C202.813 189.06 205.181 184.484 206.595 179.471C207.821 175.124 208.315 170.662 207.999 166.104C207.575 160.064 206.057 154.421 202.706 149.338C199.958 145.175 196.401 142.114 191.44 140.977C190.014 140.65 188.569 140.624 186.994 140.672C187.143 141.079 187.212 141.277 187.285 141.468C188.019 143.342 188.917 145.169 189.457 147.098C190.785 151.821 191.339 156.639 190.953 161.572C190.766 163.969 190.362 166.305 189.837 168.628C188.913 172.705 187.219 176.473 184.888 179.91C183.858 181.428 182.587 182.819 181.252 184.083C179.444 185.795 177.357 187.148 174.982 187.991C174.543 188.147 174.129 188.379 173.721 188.567H173.718ZM339.646 259.119C336.978 259.953 334.726 261.185 333.459 263.775C331.195 268.406 332.538 273.345 337.699 276.086C339.972 277.292 342.432 277.823 344.924 278.266C349.496 279.071 354.109 279.424 358.738 279.65C366.377 280.019 374 279.962 381.589 278.909C383.679 278.619 385.753 278.17 387.644 277.203C390.277 275.856 392.235 273.893 392.943 270.863C393.806 267.184 391.577 261.341 385.598 260.048C384.561 260.959 383.242 261.36 381.87 261.477C378.148 261.802 374.427 262.19 370.696 262.299C362.586 262.531 354.479 262.311 346.419 261.267C344.032 260.959 341.585 260.771 339.646 259.122V259.119ZM218.958 163.23C218.825 163.307 218.695 163.38 218.562 163.456C218.613 164.239 218.641 165.025 218.72 165.805C219.128 169.907 218.768 173.946 217.86 177.959C216.561 183.71 214.152 188.879 210.044 193.144C206.961 196.345 203.344 198.618 198.826 199.054C196.891 199.242 194.94 199.257 192.995 199.359C192.556 199.382 192.116 199.439 191.503 199.496C191.958 200.674 192.328 201.657 192.714 202.634C194.646 207.523 197.52 211.708 201.966 214.594C203.363 215.501 204.925 216.313 206.522 216.711C212.191 218.121 217.304 216.739 221.664 212.901C225.658 209.388 228.14 204.833 229.635 199.776C231.058 194.958 231.561 189.993 230.891 184.99C230.555 182.479 230.119 179.942 229.348 177.539C227.909 173.055 225.67 168.978 222.151 165.751C221.155 164.838 220.029 164.061 218.964 163.224L218.958 163.23ZM387.444 279.364C383.239 280.84 378.888 281.21 374.522 281.474C367.996 281.868 361.47 281.754 354.953 281.302C350.277 280.977 345.613 280.509 341.053 279.332C339.836 279.017 338.647 278.584 337.471 278.212C335.552 279.042 334.129 280.315 333.285 282.187C331.331 286.518 331.96 290.929 336.937 294.303C339.115 295.78 341.613 296.467 344.136 297.014C348.515 297.966 352.958 298.443 357.432 298.73C364.012 299.15 370.585 299.188 377.146 298.51C379.492 298.268 381.842 297.855 384.131 297.279C386.48 296.687 388.671 295.7 390.382 293.806C394.6 289.131 393.269 282.161 387.444 279.367V279.364ZM387.944 298.189C385.386 298.806 383.113 299.484 380.789 299.892C375.844 300.754 370.838 300.897 365.83 300.888C359.446 300.875 353.091 300.455 346.786 299.43C343.403 298.879 340.083 298.077 337.028 296.563C333.677 298.214 332.377 301.05 332.175 304.471C331.969 307.979 333.781 310.56 336.412 312.555C338.71 314.299 341.423 315.187 344.209 315.875C348.623 316.96 353.106 317.526 357.631 317.832C364.53 318.297 371.423 318.363 378.288 317.409C381.63 316.944 384.924 316.269 387.878 314.446C390.047 313.109 391.473 311.225 392.301 308.857C393.382 305.77 391.827 299.984 387.941 298.189H387.944ZM387.925 316.68C386.812 317.106 385.81 317.628 384.747 317.87C382.082 318.478 379.41 319.153 376.7 319.458C367.809 320.461 358.921 320.155 350.071 318.911C345.42 318.258 340.835 317.281 336.633 315.009C336.554 314.964 336.428 315.003 336.342 315.003C334.518 316.19 333.509 317.259 332.899 318.834C331.068 323.573 332.067 327.819 336.636 331.288C339.561 333.506 343.026 334.48 346.533 335.273C352.518 336.625 358.592 337.176 364.717 337.227C370.098 337.271 375.458 337.061 380.741 335.896C383.334 335.324 385.851 334.522 388.023 332.962C390.628 331.091 392.396 328.573 392.367 325.251C392.336 321.75 391.093 318.723 387.925 316.683V316.68ZM204.77 218.302C205.507 221.106 205.959 223.674 206.92 226.176C207.942 228.833 209.276 231.252 210.907 233.537C212.618 235.937 214.74 237.939 217.257 239.419C220.466 241.303 223.975 242.274 227.703 241.628C229.544 241.309 231.415 240.755 233.075 239.915C236.43 238.219 238.988 235.581 240.996 232.363C242.014 230.733 242.751 228.993 243.541 227.261C244.265 225.679 244.594 224.047 244.54 222.328C244.366 216.66 244.208 210.989 243.978 205.323C243.864 202.571 242.915 200.05 241.489 197.711C241.318 197.431 241.088 197.189 240.759 196.772C240.382 198.287 240.161 199.601 239.728 200.836C238.093 205.479 235.848 209.763 232.215 213.185C230.356 214.935 228.301 216.367 225.936 217.357C224.013 218.162 222.034 218.643 219.963 218.7C215.616 218.824 211.271 219.785 206.92 218.713C206.316 218.563 205.694 218.477 204.773 218.302H204.77ZM137.41 244.813C137.514 246.201 137.508 247.318 137.694 248.403C138.905 255.38 141.065 261.968 145.675 267.508C148.54 270.952 151.935 273.559 156.375 274.685C159.77 275.548 162.992 275 166.053 273.606C168.877 272.321 171.15 270.182 172.959 267.68C176.541 262.722 178.34 257.047 179.036 251.01C179.475 247.203 179.308 243.394 178.871 239.594C178.802 239.002 178.625 238.423 178.435 237.566C177.622 238.814 177.066 239.842 176.348 240.736C174.454 243.095 172.333 245.221 169.702 246.767C167.865 247.846 165.895 248.687 163.811 248.935C159.265 249.473 154.696 249.82 150.13 250.192C147.932 250.37 145.814 249.772 143.841 248.928C141.77 248.04 139.734 246.99 138.127 245.307C137.988 245.163 137.792 245.077 137.407 244.82L137.41 244.813ZM168.08 184.592C169.253 183.602 170.385 182.803 171.327 181.826C174.856 178.163 177.037 173.704 178.384 168.857C179.918 163.332 180.256 157.664 179.415 151.996C178.647 146.811 176.971 141.904 173.891 137.601C172.149 135.166 170.009 133.062 167.315 131.77C162.142 129.285 157.194 130.007 152.577 133.33C152.261 133.556 152.033 133.906 151.739 134.224C154.835 136.815 157.077 139.934 158.695 143.485C160.969 148.469 162.012 153.765 162.066 159.223C162.091 161.754 161.762 164.293 161.481 166.817C161.377 167.75 161.389 168.596 161.766 169.446C163.185 172.66 164.061 176.04 164.694 179.49C164.921 180.735 165.054 181.995 165.25 183.386C166.126 183.758 167.03 184.146 168.083 184.595L168.08 184.592ZM279.514 168.011C279.549 168.644 279.555 169.007 279.59 169.37C279.966 173.262 279.634 177.091 278.606 180.865C277.332 185.547 275.192 189.719 271.764 193.201C268.463 196.559 264.609 198.735 259.872 199.105C258.089 199.245 256.299 199.248 254.513 199.327C254.067 199.347 253.624 199.413 252.983 199.477C253.482 200.683 253.877 201.711 254.326 202.714C256.069 206.609 258.589 209.846 262.136 212.265C265.826 214.779 269.908 215.575 274.186 214.779C278.768 213.929 282.372 211.285 285.189 207.593C287.561 204.483 289.101 200.979 290.005 197.157C290.96 193.118 291.052 189.054 290.375 185.009C289.632 180.566 287.997 176.432 285.164 172.886C283.656 170.999 281.999 169.223 279.517 168.014L279.514 168.011ZM314.734 198.812C314.753 199.133 314.728 199.302 314.778 199.439C316.473 203.901 318.999 207.691 323.138 210.272C327.087 212.733 331.312 213.293 335.732 212.201C340.829 210.941 344.462 207.625 347.07 203.188C349.141 199.668 350.201 195.779 350.258 191.673C350.356 184.337 347.987 178.033 342.252 173.284C340.468 171.807 338.435 170.665 335.868 170.267C335.95 171.394 335.994 172.434 336.105 173.472C336.349 175.767 336.105 178.039 335.675 180.27C334.891 184.337 333.266 188.058 330.657 191.291C328.4 194.092 325.661 196.256 322.278 197.58C319.885 198.516 317.409 198.805 314.737 198.818L314.734 198.812ZM251.632 147.62C251.857 148.231 251.99 148.619 252.141 149.001C252.685 150.379 253.352 151.719 253.767 153.135C254.984 157.288 255.411 161.521 255.035 165.862C254.671 170.044 253.549 173.997 251.692 177.711C250.731 179.637 249.615 181.527 248.037 183.058C246.684 184.369 245.321 185.677 243.848 187.097C243.946 187.517 244.076 188.067 244.183 188.529C247.414 190.964 249.723 194.025 251.604 197.306C254.137 197.354 256.887 196.68 258.879 195.54C262.794 193.296 265.712 190.063 267.72 186.062C270.262 181.002 271.306 175.607 270.92 169.911C270.563 164.605 269.073 159.729 266.003 155.376C263.243 151.461 259.635 148.804 254.889 147.896C253.881 147.702 252.831 147.715 251.636 147.62H251.632ZM263.695 215.416C263.768 216.087 263.79 216.654 263.897 217.201C264.621 220.925 265.861 224.445 267.973 227.621C271.189 232.458 275.403 235.762 281.284 236.644C284.421 237.115 287.425 236.583 290.201 235.259C295.804 232.583 299.174 227.86 301.141 222.093C302.526 218.035 302.871 213.821 302.418 209.544C302.017 205.75 300.831 202.211 299.105 198.837C298.95 198.532 298.691 198.28 298.368 197.857C298.175 198.411 298.027 198.793 297.913 199.184C296.582 203.684 294.403 207.666 291.01 210.944C287.627 214.213 283.7 216.243 278.96 216.539C276.384 216.701 273.813 216.892 271.236 217.064C270.977 217.08 270.702 217.099 270.452 217.042C268.457 216.59 266.354 216.593 264.495 215.578C264.324 215.486 264.1 215.492 263.701 215.409L263.695 215.416ZM210.468 236.284C210.525 238.801 210.721 241.16 211.173 243.505C212.599 250.886 215.796 257.203 221.908 261.783C224.459 263.696 227.356 264.902 230.492 265.074C236.228 265.389 240.904 263.081 244.518 258.686V239.409C243.978 239.708 243.582 239.953 243.165 240.154C241.986 240.724 240.812 241.306 239.611 241.825C238.046 242.503 236.386 242.745 234.694 242.885C232.911 243.031 231.14 243.317 229.354 243.442C227.577 243.566 225.775 243.731 224.01 243.569C221.759 243.362 219.546 242.811 217.557 241.624C216.612 241.058 215.616 240.558 214.746 239.89C213.339 238.805 212.02 237.608 210.465 236.287L210.468 236.284ZM111.53 197.564C113.114 197.564 114.429 197.602 115.741 197.558C118.691 197.453 121.483 196.699 123.953 195.066C126.719 193.236 128.92 190.779 130.665 187.981C133.973 182.682 135.737 176.788 136.414 170.627C136.999 165.299 136.825 159.974 135.649 154.666C134.684 150.322 133.287 146.219 130.994 142.422C128.373 138.084 124.98 134.67 120.007 133.167C117.888 132.528 115.691 132.579 113.487 132.416C113.882 132.91 114.331 133.253 114.771 133.603C115.223 133.966 115.71 134.294 116.111 134.708C120.396 139.09 123.055 144.424 124.648 150.268C126.163 155.815 126.735 161.496 126.378 167.275C125.951 174.191 124.433 180.773 121.192 186.934C118.929 191.24 115.846 194.754 111.523 197.567L111.53 197.564ZM54.3757 216.313C54.831 216.122 55.2864 216.004 55.6626 215.756C57.37 214.636 59.3367 214.432 61.2591 214.314C64.9332 214.095 68.6231 213.967 72.3036 214.025C73.8971 214.05 75.5571 214.419 77.0495 214.995C78.9056 215.708 80.6509 216.752 82.0168 218.289C82.9243 219.311 83.8697 220.304 84.7424 221.354C85.4032 222.15 85.9787 223.019 86.5921 223.856C86.845 221.657 86.9336 219.543 86.8292 217.44C86.5035 210.947 84.9574 204.767 81.6785 199.127C79.7118 195.747 77.2076 192.822 73.4766 191.282C70.8839 190.212 68.2532 190.187 65.67 191.339C62.1698 192.899 59.9564 195.769 58.2111 199.035C55.9567 203.248 54.9259 207.844 54.3979 212.558C54.2651 213.751 54.3789 214.973 54.3789 216.307L54.3757 216.313ZM304.752 230.718C303.19 232.115 301.985 233.4 300.581 234.406C297.568 236.564 294.194 237.84 290.46 238.069C289.306 238.139 288.162 238.369 287.007 238.454C285.436 238.569 283.839 238.795 282.284 238.658C277.269 238.216 272.985 236.131 269.497 232.452C268.719 231.631 267.951 230.794 266.99 229.763C266.907 231.179 266.752 232.283 266.8 233.381C266.961 237.111 267.644 240.736 269.162 244.177C271.533 249.555 275.09 253.766 280.598 256.092C284.706 257.83 288.848 257.709 292.879 256.019C296.749 254.396 299.604 251.474 301.66 247.849C304.031 243.668 305.059 239.091 305.024 234.282C305.018 233.184 304.863 232.089 304.752 230.718ZM139.851 219.617C139.885 219.709 139.92 219.801 139.952 219.893C141.571 219.741 143.19 219.566 144.808 219.445C146.921 219.286 148.792 218.407 150.522 217.325C154.974 214.547 157.886 210.393 159.963 205.677C161.892 201.297 162.98 196.67 163.343 191.864C163.713 186.966 163.445 182.135 162.354 177.342C160.918 171.034 158.363 165.302 153.81 160.63C152.226 159.004 150.377 157.712 148.299 156.722C145.89 155.573 143.335 155.417 140.761 155.248C140.442 155.226 140.123 155.248 139.8 155.248C139.765 155.353 139.731 155.462 139.696 155.567C142.159 156.929 143.986 158.959 145.725 161.088C147.509 163.278 148.859 165.741 149.991 168.303C151.407 171.505 152.406 174.853 153.039 178.313C153.671 181.769 153.937 185.241 153.889 188.748C153.839 192.367 153.469 195.957 152.533 199.448C151.837 202.052 151.037 204.649 149.984 207.122C149.121 209.152 147.945 211.081 146.68 212.892C144.982 215.326 142.946 217.481 140.429 219.114C140.217 219.251 140.044 219.448 139.854 219.617H139.851ZM70.3274 296.839C72.0348 296.553 73.7549 296.33 75.4433 295.961C77.919 295.42 80.0596 294.207 81.8208 292.365C85.1408 288.892 86.9146 284.593 87.9833 280.007C89.1469 275.019 89.4472 269.94 88.8149 264.835C88.6062 263.161 88.3216 261.493 88.0655 259.826C87.5944 256.764 86.6363 253.836 85.4 251.029C83.7306 247.235 81.6437 243.728 78.4661 240.918C75.6804 238.454 72.645 236.994 68.8887 237.277C67.6809 237.369 66.4699 237.436 65.2621 237.525C64.9427 237.547 64.6265 237.614 64.1017 237.694C65.1609 238.4 66.0494 238.881 66.8082 239.517C70.9187 242.974 73.6252 247.439 75.5445 252.378C77.4922 257.394 78.5925 262.623 78.8897 268.021C79.2249 274.116 78.6747 280.08 76.7365 285.901C75.3737 289.994 73.2553 293.577 70.3242 296.836L70.3274 296.839ZM138.931 260.023C138.798 260.026 138.665 260.029 138.529 260.033C138.621 261.929 138.643 263.829 138.814 265.72C139.512 273.435 141.881 280.529 146.769 286.62C149.428 289.933 152.637 292.482 156.827 293.657C161.775 295.044 166.123 293.752 169.917 290.595C173.857 287.317 176.013 282.823 177.483 277.992C177.939 276.496 178.135 274.924 178.489 273.209C177.727 273.565 177.186 273.883 176.604 274.081C174.508 274.784 172.399 275.424 170.183 275.694C167.729 275.993 165.301 276.522 162.841 276.783C161.124 276.964 159.344 277.095 157.652 276.846C152.422 276.079 148.245 273.301 144.815 269.377C142.902 267.187 141.261 264.781 140.028 262.117C139.696 261.404 139.297 260.72 138.931 260.023ZM244.566 265.157C244.23 265.195 244.025 265.201 243.829 265.246C240.133 266.08 236.405 266.678 232.614 266.929C228.601 267.197 224.962 266.035 221.693 263.903C217.117 260.917 213.908 256.681 211.736 251.659C211.104 250.198 210.566 248.696 209.88 246.939C209.728 247.496 209.646 247.741 209.595 247.996C208.991 251.029 208.878 254.084 209.162 257.165C209.782 263.883 211.96 269.962 216.396 275.115C219.154 278.32 222.461 280.608 226.644 281.553C229.749 282.257 232.756 281.881 235.599 280.691C239.484 279.065 242.166 276.016 244.281 272.432C244.414 272.209 244.547 271.942 244.547 271.694C244.569 269.533 244.559 267.375 244.559 265.157H244.566ZM165.266 185.496C165.266 187.316 165.326 188.895 165.244 190.47C165.193 191.473 165.392 192.332 165.911 193.182C167.46 195.712 168.779 198.344 169.816 201.148C171.735 206.339 172.592 211.724 172.614 217.198C172.639 222.946 171.767 228.595 169.582 233.989C167.454 239.247 164.532 243.862 159.774 247.108C159.723 247.143 159.739 247.28 159.698 247.519C161.244 247.347 162.79 247.347 164.248 246.984C169.022 245.803 172.601 242.837 175.396 238.894C177.426 236.029 178.881 232.828 179.861 229.46C180.525 227.182 181.1 224.83 181.309 222.475C181.591 219.273 181.97 216.043 181.42 212.812C181.129 211.097 180.949 209.362 180.677 207.647C180.146 204.321 179.007 201.17 177.578 198.163C176.076 195.005 174.173 192.046 171.612 189.636C169.857 187.988 168.004 186.393 165.259 185.496H165.266ZM46.041 244.046C46.743 243.076 47.2014 242.216 47.8654 241.57C49.2156 240.253 50.5783 238.91 52.1182 237.837C54.2113 236.379 56.7282 236.15 59.2008 235.982C62.1951 235.775 65.202 235.749 68.1868 235.453C71.238 235.154 74.0394 235.689 76.648 237.293C76.9895 237.503 77.372 237.637 77.8621 237.869C77.84 237.512 77.8558 237.309 77.8147 237.118C76.7144 231.991 74.8963 227.182 71.766 222.923C69.9796 220.495 67.8801 218.445 65.1198 217.217C62.5144 216.058 59.8395 215.899 57.1677 217.09C53.775 218.605 51.587 221.332 49.8764 224.505C47.603 228.719 46.5533 233.311 46.0758 238.034C45.8861 239.912 46.0442 241.825 46.0442 244.049L46.041 244.046ZM353.717 230.008C353.653 221.469 354.02 213.073 353.54 204.41C353.11 204.916 352.809 205.196 352.594 205.53C351.465 207.284 350.081 208.837 348.414 210.034C346.761 211.221 345.006 212.392 343.121 213.099C338.771 214.728 334.195 214.868 329.601 214.473C329.304 214.448 329.003 214.47 328.592 214.47C328.978 216.841 329.573 219.006 330.591 221.058C333.566 227.038 338.11 230.918 344.854 231.742C347.896 232.115 350.789 231.415 353.714 230.011L353.717 230.008ZM91.9578 240.456C92.4984 239.794 92.8937 239.438 93.1308 238.992C93.9055 237.547 94.7402 236.118 95.3378 234.6C97.3235 229.562 98.1171 224.279 98.0033 218.888C97.8894 213.617 97.0073 208.449 94.9963 203.551C93.4375 199.754 91.3475 196.314 88.192 193.564C85.0775 190.849 80.8817 190.018 76.5342 190.626C77.5207 191.495 78.4692 192.319 79.4083 193.163C79.7593 193.478 80.1007 193.812 80.4074 194.172C83.7938 198.163 85.9123 202.822 87.2213 207.835C88.8022 213.888 89.1658 220.056 88.4386 226.284C88.3785 226.79 88.4038 227.366 88.5904 227.828C90.1934 231.771 91.259 235.857 91.9546 240.453L91.9578 240.456ZM171.258 186.807C173.578 186.852 175.479 185.964 177.192 184.885C181.382 182.246 184.199 178.367 186.141 173.86C187.867 169.85 188.857 165.646 189.11 161.257C189.533 153.899 188.338 146.945 184.541 140.519C182.691 137.388 180.313 134.835 177.17 133.088C175.118 131.945 172.864 131.286 170.195 131.302C170.632 131.662 170.884 131.834 171.093 132.053C172.611 133.654 174.271 135.15 175.589 136.907C177.208 139.058 178.353 141.509 179.292 144.068C180.955 148.603 181.682 153.297 181.67 158.087C181.657 163.316 180.784 168.418 178.802 173.294C176.958 177.819 174.476 181.877 170.578 184.929C170.306 185.143 170.094 185.439 169.771 185.789C170.379 186.206 170.888 186.559 171.258 186.813V186.807ZM288.377 273.167C287.681 273.167 287.317 273.154 286.951 273.167C283.51 273.31 280.377 272.216 277.506 270.475C273.62 268.116 270.765 264.705 268.754 260.653C265.943 254.991 265.089 248.963 266.009 242.706C266.234 241.169 265.842 239.81 265.273 238.19C264.482 239.066 263.761 239.756 263.161 240.542C260.388 244.186 258.99 248.356 258.68 252.907C258.146 260.765 260.328 267.712 265.836 273.4C268.017 275.653 270.673 277.219 273.778 278.049C276.779 278.851 279.662 278.485 282.454 277.496C284.68 276.706 286.615 275.306 288.373 273.161L288.377 273.167ZM267.758 245.79C267.252 247.073 267.537 248.177 267.609 249.266C268.043 255.739 270.344 261.411 274.907 266.054C277.199 268.39 279.925 270.045 283.122 270.847C285.73 271.503 288.288 271.41 290.897 270.71C293.088 270.121 294.96 269.065 296.699 267.655C299.528 265.357 301.305 262.334 302.668 259.02C303.272 257.556 303.623 255.733 303.531 254.743C302.504 255.322 301.505 255.911 300.483 256.449C299.927 256.742 299.348 257.015 298.751 257.197C295.01 258.343 291.187 258.995 287.279 259.132C281.553 259.332 276.886 257.006 272.887 253.056C270.8 250.997 269.266 248.54 267.755 245.787L267.758 245.79ZM198.238 141.604C198.203 141.709 198.171 141.818 198.137 141.926C198.295 142.047 198.447 142.177 198.608 142.292C202.083 144.79 204.495 148.17 206.339 151.964C207.682 154.73 208.58 157.664 209.187 160.697C210.108 165.321 210.196 169.977 209.519 174.608C208.77 179.732 207.176 184.595 204.324 188.981C202.728 191.435 200.9 193.666 198.529 195.403C197.716 195.998 196.91 196.603 195.819 197.415C199.24 197.466 202.076 196.737 204.637 195.187C208.783 192.682 211.663 188.974 213.677 184.63C215.533 180.626 216.593 176.39 216.906 171.938C217.32 166.072 216.532 160.449 214.303 155.016C212.321 150.182 209.355 146.165 204.783 143.536C202.769 142.378 200.597 141.614 198.241 141.608L198.238 141.604ZM169.686 273.664C169.933 273.724 170.078 273.801 170.217 273.788C175.782 273.237 180.168 270.538 183.478 266.118C185.578 263.317 187.035 260.131 188.025 256.748C189.47 251.818 189.938 246.799 189.581 241.672C189.223 236.539 187.936 231.653 185.869 226.975C185.214 225.492 184.291 224.133 183.456 222.653C183.304 222.876 183.213 222.952 183.197 223.041C182.492 226.793 181.692 230.514 180.19 234.053C179.943 234.635 179.934 235.428 180.092 236.055C180.724 238.591 180.895 241.179 181.072 243.769C181.417 248.741 180.772 253.616 179.466 258.387C178.897 260.469 178.056 262.505 177.088 264.437C175.637 267.33 173.771 269.969 171.371 272.177C170.84 272.667 170.29 273.135 169.686 273.667V273.664ZM241.919 177.807C243.31 175.958 244.095 173.876 244.705 171.766C245.846 167.832 246.314 163.816 245.954 159.685C245.517 154.675 244.148 150.042 241.315 145.869C238.751 142.095 235.412 139.431 230.884 138.501C229.142 138.145 227.371 137.948 225.405 138.597C232.879 150.907 238.321 163.93 241.919 177.803V177.807ZM219.568 216.746C222.382 216.918 224.696 216.062 226.853 214.887C231.02 212.618 233.973 209.082 236.057 204.891C238.738 199.493 239.813 193.717 239.573 187.657C239.396 183.144 238.447 178.844 236.639 174.732C234.584 170.063 231.589 166.168 227.125 163.603C224.968 162.365 222.663 161.461 219.802 161.54C220.361 161.97 220.716 162.25 221.076 162.521C221.708 162.995 222.41 163.396 222.964 163.95C224.798 165.776 226.518 167.686 227.884 169.933C229.05 171.852 230.024 173.854 230.701 175.958C231.494 178.418 232.165 180.945 232.588 183.494C233.183 187.062 233.116 190.68 232.667 194.273C232.143 198.465 230.979 202.497 229.028 206.224C226.948 210.199 224.254 213.719 220.355 216.128C220.143 216.259 219.96 216.431 219.568 216.739V216.746ZM82.0421 165.334C81.3086 165.662 80.828 165.862 80.3632 166.088C76.8851 167.775 74.6149 170.659 72.8316 173.962C70.5361 178.214 69.4674 182.851 68.8887 187.615C68.8603 187.861 68.914 188.112 68.9298 188.427C69.5401 188.456 70.0555 188.497 70.574 188.5C73.6284 188.526 76.6796 188.529 79.734 188.564C82.7504 188.599 85.5992 189.34 88.0592 191.107C90.9207 193.163 93.134 195.836 94.8351 198.952C96.5457 202.087 97.7851 205.39 98.6104 208.859C98.6483 209.012 98.8064 209.136 98.9835 209.375C100.21 205.992 101.19 202.72 101.472 199.27C101.282 199.168 101.153 199.047 101.007 199.028C98.9645 198.751 97.1843 197.736 95.5402 196.654C92.5554 194.69 90.1903 192.007 88.3754 188.933C84.7613 182.819 82.8611 176.145 82.3963 169.051C82.3204 167.899 82.1813 166.75 82.0453 165.334H82.0421ZM233.635 283.73C232.19 283.73 230.789 283.724 229.389 283.73C225.61 283.746 222.271 282.378 219.258 280.236C216.036 277.944 213.44 275.023 211.641 271.464C210.642 269.488 209.662 267.48 208.947 265.389C207.588 261.404 207.025 257.267 207.195 253.04C207.29 250.707 207.471 248.387 208.112 246.128C208.166 245.94 208.119 245.724 208.119 245.345C207.85 245.657 207.667 245.835 207.524 246.042C204.049 251.058 202.712 256.716 202.823 262.728C202.93 268.664 204.413 274.259 207.616 279.303C210.541 283.912 214.354 287.371 219.811 288.689C222.761 289.398 225.588 288.877 228.288 287.785C230.391 286.938 232.193 285.522 233.635 283.724V283.73ZM89.1595 256.271C89.3935 255.851 89.5042 255.73 89.5358 255.59C90.282 252.369 90.5254 249.078 90.4464 245.8C90.3262 240.695 89.5326 235.682 87.7462 230.861C86.4308 227.309 84.7013 223.989 82.2508 221.109C81.2991 219.992 80.1735 218.986 78.9909 218.118C75.4812 215.543 71.4846 215.619 67.2857 216.062C67.4975 216.297 67.5766 216.434 67.6967 216.507C69.7045 217.726 71.3392 219.356 72.7778 221.202C75.3484 224.492 77.195 228.162 78.3649 232.169C78.9878 234.298 79.4937 236.465 79.9774 238.636C80.1798 239.549 80.6035 240.246 81.1821 240.978C82.6524 242.837 84.1037 244.731 85.3305 246.755C87.06 249.613 88.1793 252.77 89.1627 256.274L89.1595 256.271ZM125.787 133.909C128.986 136.27 131.304 139.208 133.217 142.54C135.127 145.866 136.211 149.494 137.375 153.119C139.168 153.256 140.894 153.412 142.62 153.517C144.625 153.638 146.592 153.902 148.429 154.8C148.913 155.035 149.45 155.162 150.12 155.395C150.064 154.494 150.083 153.803 149.966 153.138C149.121 148.364 147.8 143.762 145.099 139.666C142.709 136.038 139.727 133.136 135.386 132.076C132.012 131.251 128.838 131.821 125.787 133.909ZM167.485 295.506C167.435 295.401 167.381 295.296 167.331 295.191C166.629 295.315 165.92 295.401 165.231 295.573C163.637 295.971 162.034 296.047 160.393 296.05C156.296 296.056 152.776 294.468 149.637 292.056C145.311 288.733 142.345 284.284 140.252 279.294C137.729 273.266 136.54 266.948 136.79 260.383C136.803 260.042 136.736 259.698 136.708 259.355C136.341 259.807 136.126 260.281 136.003 260.777C135.121 264.342 134.643 267.967 134.754 271.64C134.956 278.247 136.42 284.539 139.633 290.366C142.007 294.672 145.118 298.268 149.51 300.541C152.179 301.922 155.037 302.45 158.073 301.83C160.238 301.387 162.183 300.503 163.909 299.191C165.272 298.154 166.433 296.862 167.485 295.506ZM205.213 227.535C202.62 227.484 200.331 228.251 198.213 229.68C195.927 231.22 194.263 233.289 192.878 235.647C191.743 237.576 191.136 239.543 191.392 241.838C191.816 245.65 191.601 249.473 190.735 253.209C190.321 255.004 190.472 256.675 191.054 258.352C191.452 259.504 191.882 260.647 192.357 261.767C192.638 262.432 193.04 263.046 193.388 263.683C193.612 263.113 193.59 262.614 193.561 262.114C193.517 261.267 193.406 260.421 193.438 259.577C193.596 255.529 194.2 251.57 195.866 247.83C198.2 242.589 201.634 238.509 207.281 236.72C207.72 236.58 208.138 236.37 208.527 236.211C208.738 235.167 208.944 234.222 208.448 233.321C207.404 231.427 206.339 229.549 205.213 227.541V227.535ZM260.286 196.832C260.324 196.94 260.359 197.049 260.397 197.157C260.96 197.09 261.542 197.09 262.082 196.94C266.304 195.785 269.668 193.312 272.289 189.859C274.645 186.753 276.241 183.252 277.063 179.407C278.862 170.996 277.835 163.103 272.89 155.91C271.053 153.237 268.631 151.225 265.76 149.796C264.656 149.249 263.414 148.991 262.231 148.603C262.316 148.998 262.509 149.144 262.683 149.31C264.021 150.576 265.532 151.703 266.664 153.138C271.059 158.714 272.902 165.223 272.877 172.243C272.861 176.775 271.966 181.177 270.069 185.349C268.055 189.783 265.273 193.535 261.172 196.218C260.871 196.415 260.584 196.625 260.29 196.829L260.286 196.832ZM237.723 139.396C237.875 139.533 238.021 139.676 238.182 139.803C240.882 141.92 243.004 144.552 244.534 147.597C246.45 151.41 247.544 155.474 247.813 159.774C248.265 166.957 246.886 173.666 243.042 179.799C242.877 180.063 242.767 180.362 242.593 180.725C242.852 181.992 243.121 183.297 243.412 184.713C243.8 184.493 243.987 184.404 244.158 184.29C244.376 184.143 244.604 184 244.793 183.822C247.007 181.744 248.872 179.366 250.178 176.632C252.587 171.581 253.631 166.251 253.226 160.611C252.859 155.481 251.446 150.754 248.518 146.515C245.894 142.712 242.431 140.16 237.72 139.396H237.723ZM247.089 234.222C248.486 232.796 249.59 231.192 250.437 229.467C253.058 224.139 254.137 218.487 253.839 212.532C253.507 205.947 251.525 199.964 247.686 194.63C246.912 193.554 245.913 192.644 245.015 191.657C244.939 193.016 245.078 194.216 245.239 195.413C245.758 199.245 246.121 203.108 246.848 206.902C247.731 211.491 247.844 216.068 247.225 220.657C246.618 225.151 247.067 229.642 247.089 234.222ZM159.802 165.468C159.906 164.812 159.963 164.561 159.989 164.303C160.599 157.931 160.004 151.716 157.605 145.739C155.878 141.442 153.5 137.677 149.539 135.045C147.727 133.839 145.804 133.139 143.708 132.817C142.937 132.7 142.146 132.559 141.188 132.649C148.846 139.027 151.382 147.524 152.195 156.836C155.274 159.061 157.665 161.906 159.802 165.464V165.468ZM280.526 214.343C285.202 213.601 288.835 211.122 291.69 207.491C294.172 204.334 295.769 200.725 296.629 196.772C297.461 192.943 297.616 189.089 296.955 185.254C296.227 181.037 294.7 177.11 292.104 173.644C290.166 171.053 287.766 169.019 284.895 167.603C283.653 166.989 282.265 166.668 280.671 166.123C282.315 167.571 283.748 168.72 285.053 170.003C288.057 172.963 289.923 176.629 291.206 180.598C292.139 183.484 292.579 186.479 292.648 189.512C292.737 193.471 292.155 197.348 290.805 201.062C289.265 205.298 286.96 209.073 283.523 212.048C282.575 212.869 281.528 213.579 280.529 214.34L280.526 214.343ZM196.54 212.79C196.217 213.013 195.81 213.261 195.443 213.557C195.117 213.821 194.823 214.13 194.529 214.429C191.026 218.019 189.343 222.468 188.556 227.331C188.483 227.786 188.512 228.296 188.642 228.738C189.296 230.966 189.998 233.178 190.741 235.587C192.297 232.977 193.944 230.552 196.341 228.738C198.785 226.886 201.504 225.819 204.517 225.609C203.898 222.716 203.316 219.983 202.788 217.516C200.65 215.899 198.684 214.41 196.54 212.79ZM247.095 261.91C248.056 261.318 248.957 260.892 249.704 260.274C252.214 258.196 254.127 255.631 255.597 252.709C257.861 248.212 258.759 243.4 258.766 238.426C258.772 235.027 258.231 231.66 257.207 228.416C256.622 226.571 255.781 224.804 254.993 222.856C253.874 225.848 252.847 228.595 251.851 231.252C252.059 232.296 252.306 233.222 252.42 234.167C253.033 239.266 252.875 244.317 251.433 249.282C250.646 251.987 249.707 254.654 248.031 256.923C246.909 258.448 246.855 259.998 247.095 261.913V261.91ZM188.635 261.223C186.602 265.379 183.921 268.918 180.588 271.811C179.984 275.793 179.131 279.545 177.556 283.11C175.988 286.661 173.676 289.669 170.967 292.457C172.971 292.253 174.875 291.852 176.611 290.983C180.677 288.943 183.494 285.602 185.467 281.592C188.082 276.277 189.027 270.554 188.951 264.657C188.936 263.511 188.746 262.369 188.635 261.226V261.223ZM299.276 191.664C298.817 193.723 298.89 195.311 300.012 196.995C301.23 198.818 302.21 200.884 302.877 202.978C304.777 208.958 305.011 215.024 303.329 221.135C301.789 226.727 298.88 231.38 294.34 234.976C294.169 235.11 294.005 235.25 293.837 235.386C294.783 235.288 295.662 235.09 296.458 234.715C300.401 232.853 303.361 229.865 305.448 226.096C306.763 223.722 307.888 221.233 308.322 218.445C308.957 214.368 309.09 210.346 308.195 206.301C307.705 204.092 307.304 201.861 306.915 199.923V201.294C305.052 197.59 302.684 194.372 299.276 191.657V191.664ZM244.553 281.289C244.43 281.194 244.31 281.098 244.186 281.003C244.12 281.213 244.091 281.445 243.987 281.636C243.07 283.291 241.673 284.529 240.256 285.703C238.669 287.021 236.917 288.132 234.884 288.628C232.377 289.243 229.834 289.714 227.33 290.341C224.02 291.168 220.747 291.082 217.538 289.971C216.207 289.51 214.961 288.787 213.69 288.151C212.748 287.68 211.799 287.266 210.658 287.282V290.528C222.006 292.059 233.243 293.577 244.55 295.105V281.292L244.553 281.289ZM186.912 224.865C187.038 224.728 187.2 224.632 187.228 224.508C187.873 221.641 189.002 218.986 190.517 216.472C190.839 215.934 190.921 215.158 190.88 214.502C190.675 211.211 190.728 207.943 191.525 204.674C190.956 203.22 190.381 201.753 189.764 200.184C188.382 200.359 187.105 200.518 186.134 200.639C185.056 203.315 184.082 205.705 183.134 208.108C183.004 208.439 182.909 208.831 182.947 209.178C183.326 212.545 183.652 215.915 183.491 219.314C183.488 219.413 183.551 219.515 183.583 219.617C183.611 219.597 183.643 219.582 183.671 219.562C184.743 221.316 185.815 223.067 186.909 224.862L186.912 224.865ZM103.413 199.576C103.28 200.254 103.138 200.861 103.04 201.479C102.474 205.053 101.478 208.49 99.8498 211.73C99.6854 212.055 99.4957 212.427 99.5115 212.771C99.6158 215.015 99.7708 217.252 99.9289 219.779C106.531 216.549 109.263 210.893 111.112 204.607C110.512 202.87 109.949 201.234 109.377 199.576H103.416H103.413ZM131.336 237.041C127.646 241.325 126.223 246.513 125.546 251.974C124.857 257.528 126.052 266.041 127.421 267.292C127.573 263.339 128.158 259.552 129.435 255.863C130.741 252.089 132.8 248.823 135.513 245.988C135.5 244.594 135.74 243.225 134.937 242.057C133.808 240.409 132.607 238.808 131.333 237.041H131.336ZM229.234 162.683C232.734 165.028 235.263 168.272 237.518 171.801C234.141 160.258 229.446 149.36 223.068 139.24C221.342 139.959 220.218 140.633 219.697 141.261C226.262 146.837 228.835 154.243 229.234 162.686V162.683ZM227.204 161.343C227.204 160.859 227.248 160.541 227.197 160.242C226.897 158.523 226.701 156.773 226.236 155.099C224.674 149.469 221.898 144.66 216.7 141.62C215.198 140.742 213.57 140.23 211.777 140.105C217.889 145.198 220.542 151.989 221.493 159.51C223.406 160.124 225.199 160.7 227.201 161.346L227.204 161.343ZM258.832 227.331C260.435 225.807 261.95 224.365 263.341 223.044C262.715 220.072 262.098 217.137 261.447 214.037C260.992 213.713 260.391 213.286 259.796 212.854C259.218 212.43 258.642 212.001 258.089 211.59C256.611 212.908 255.807 214.502 255.676 216.373C255.61 217.325 255.461 218.274 255.484 219.222C255.499 219.823 255.68 220.457 255.926 221.014C256.527 222.36 257.229 223.662 257.855 224.998C258.212 225.756 258.503 226.545 258.829 227.334L258.832 227.331ZM255.186 257.012C253.621 259.355 251.62 261.124 249.451 262.84C249.324 263.339 249.179 263.899 249.04 264.463C248.692 265.85 248.537 267.327 247.952 268.603C247.101 270.462 246.883 272.346 246.984 274.326C247.022 275.08 247.032 275.834 247.06 276.703C252.423 273.174 255.977 262.808 255.186 257.009V257.012ZM199.354 139.724C199.61 139.768 199.863 139.806 200.119 139.857C203.439 140.529 206.443 141.948 208.963 144.182C212.039 146.91 214.398 150.217 215.91 154.09C216.58 155.808 217.206 157.543 217.908 159.427C218.344 159.449 218.885 159.478 219.58 159.516C219.479 158.708 219.451 158.081 219.321 157.473C218.806 155.092 218.237 152.737 217.231 150.493C215.505 146.639 213.162 143.333 209.513 141.108C206.358 139.182 202.99 138.581 199.354 139.727V139.724ZM250.421 233.388C249.163 234.836 248.066 236.096 247.01 237.312C246.713 240.596 246.902 253.709 247.272 254.733C250.757 248.031 251.557 240.969 250.425 233.388H250.421ZM254.785 270C256.486 272.55 261.937 275.51 264.83 275.134C263.897 274.058 262.933 273.081 262.13 271.986C261.32 270.885 260.599 269.704 259.97 268.492C259.341 267.279 258.816 266.003 258.351 264.714C257.912 263.498 257.608 262.235 257.254 261.016C256.432 264.004 255.639 266.897 254.788 270H254.785ZM127.165 225.972C125.55 231.3 125.227 236.44 125.961 241.822C127.485 239.438 128.911 237.207 130.305 235.027C129.303 232.134 128.291 229.219 127.162 225.969L127.165 225.972ZM170.407 294.723C168.738 296.728 167.255 298.51 165.702 300.375C170.853 299.736 174.695 297.269 177.651 292.839C174.989 293.533 172.617 294.15 170.407 294.723ZM338.353 168.93C337.55 163.606 332.361 157.301 327.751 156.216C331.561 159.316 333.863 163.386 335.286 168.014C336.317 168.322 337.297 168.615 338.353 168.93ZM235.529 240.819C238.956 240.504 241.884 239.113 244.569 236.946C244.569 235.822 244.578 234.715 244.569 233.604C244.559 232.544 244.61 231.481 244.42 230.412C242.099 234.483 239.421 238.155 235.532 240.819H235.529ZM260.666 240.596C262.086 239.027 263.553 237.407 265.134 235.663C265.032 234.759 264.919 233.744 264.798 232.665C263.202 232.796 261.738 232.668 260.318 233.286C260.438 235.787 260.552 238.193 260.666 240.593V240.596ZM264.305 224.893C262.323 226.166 260.856 227.783 259.796 229.756C259.591 230.138 259.768 230.727 259.768 231.255C261.621 231.052 263.268 230.87 265.001 230.679C265.13 229.429 265.251 228.286 265.371 227.121C265.036 226.418 264.7 225.714 264.308 224.893H264.305ZM179.257 197.001C180.316 199.961 181.278 202.644 182.293 205.483C183.19 203.306 184.069 201.262 184.107 199.063C182.508 198.382 181.015 197.746 179.26 196.998L179.257 197.001ZM232.987 287.177C236.541 286.483 239.092 284.612 241.505 281.891C239.668 282.282 238.147 282.607 236.889 282.877C235.519 284.386 234.334 285.694 232.987 287.177ZM351.816 257.945C348.882 257.922 346.236 258.212 343.596 258.734C346.036 259.428 348.503 259.781 351.089 259.826C351.32 259.227 351.522 258.702 351.816 257.945ZM195.389 211.205C194.602 210.027 193.83 208.878 192.856 207.424C192.727 209.639 192.398 211.469 192.758 213.449C193.713 212.634 194.542 211.927 195.386 211.205H195.389ZM293.853 272.187C292.87 272.486 291.706 272.55 290.947 273.139C289.837 274.004 289.015 275.249 287.867 276.563C290.388 275.548 292.342 274.259 293.853 272.187ZM244.562 275.713C243.117 277.231 241.843 278.571 240.408 280.083C242.065 279.867 243.339 279.345 244.562 278.52V275.713ZM241.518 189.659C241.445 190.69 241.394 191.721 241.296 192.749C241.163 194.127 241.881 195.063 242.899 196.11C242.716 193.764 242.371 191.683 241.518 189.659ZM300.85 190.54C300.923 190.486 300.999 190.432 301.071 190.378C300.436 189.312 299.804 188.242 299.168 187.176C299.111 187.202 299.054 187.224 298.997 187.249C299.083 187.975 299.168 188.701 299.257 189.458C299.819 189.84 300.335 190.19 300.85 190.543V190.54ZM255.635 208.735C255.553 208.777 255.471 208.818 255.389 208.859C255.461 209.563 255.537 210.269 255.642 211.272C256.211 210.823 256.549 210.556 256.957 210.231C256.359 209.553 255.996 209.143 255.635 208.732V208.735ZM379.764 259.444C379.793 259.577 379.821 259.711 379.846 259.845C380.504 259.781 381.162 259.717 381.819 259.654C381.108 259.211 380.403 258.619 379.764 259.444ZM307.93 223.388C307.93 223.388 307.952 223.388 307.964 223.388V222.898C307.964 222.898 307.942 222.898 307.93 222.898V223.388ZM368.701 260.153L368.644 260.243L368.736 260.255L368.701 260.157V260.153Z" fill="white"/>
</svg>
