<svg width="436" height="436" viewBox="0 0 436 436" fill="none" xmlns="http://www.w3.org/2000/svg">
<g clip-path="url(#clip0_259_9573)">
<path d="M322.994 191.062C324.885 190.065 326.577 189.173 328.39 188.221C328.303 188.108 328.205 187.898 328.039 187.777C323.747 184.598 323.337 179.906 326.931 175.835C330.568 171.723 338.458 169.413 344.069 173.047C343.711 172.182 343.462 171.603 343.225 171.016C342.151 168.389 342.596 165.951 344.303 163.773C347.69 159.45 355.362 157.234 360.589 158.991C364.839 160.42 365.883 163.596 363.192 167.14C362.258 168.371 361.116 169.443 360.005 170.658C361.346 170.658 362.627 170.594 363.897 170.669C369.968 171.023 372.628 175.715 369.832 181.08C368.449 183.736 366.331 185.629 363.686 186.957C362.695 187.454 361.67 187.89 360.611 188.379C367.59 192.766 366.991 202.03 359.496 206.62C358.169 207.433 356.715 208.042 355.057 208.877C359.27 210.36 361.508 213.347 362.149 217.689C363.441 216.854 364.526 215.985 365.751 215.409C367.891 214.401 370.062 213.389 372.323 212.711C375.733 211.684 379.192 210.706 382.7 210.123C389.494 208.99 396.006 210.789 402.483 212.557C403.207 212.753 403.892 213.152 404.623 213.238C411.048 213.983 416.418 217.324 421.968 220.21C423.362 220.932 424.534 221.896 423.758 223.784C423.076 225.44 421.893 225.974 419.771 225.658C417.729 225.353 415.675 225.082 413.618 224.909C411.9 224.763 410.083 224.398 408.712 225.982C408.603 226.106 408.373 226.136 408.192 226.185C403.926 227.321 399.646 228.397 395.403 229.601C391.736 230.64 388.074 231.704 384.475 232.953C377.195 235.486 369.96 238.157 362.703 240.768C362.19 240.952 361.674 241.129 360.803 241.43C361.994 241.84 362.801 242.187 363.645 242.393C366.923 243.206 369.824 244.745 372.568 246.683C375.017 248.41 376.543 252.612 375.251 255.295C373.351 259.242 371.456 263.23 369.09 266.902C365.359 272.681 365.25 277.896 369.406 283.657C373.219 288.947 375.872 295.004 376.89 301.536C378.137 309.539 378.069 317.605 375.254 325.27C373.498 330.052 370.005 333.769 366.132 337.23C360.167 342.554 353.263 344.624 345.493 344.951C336.902 345.312 328.593 344.01 320.518 341.222C313.524 338.807 307.879 334.563 303.433 328.573C300.743 324.946 298.934 320.943 298.135 316.676C297.442 312.974 297.849 309.068 297.769 305.253C297.758 304.76 297.769 304.264 297.769 303.616C296.963 303.436 296.179 303.255 295.396 303.09C267.696 297.292 239.985 291.531 212.304 285.643C209.123 284.966 206.241 286.2 203.196 286.241C202.804 286.245 202.311 286.896 202.058 287.355C199.379 292.197 195.52 295.858 190.844 298.744C190.068 299.226 189.288 299.892 188.828 300.659C185.753 305.821 180.745 308.767 175.967 311.973C171.811 314.761 167.24 316.413 162.195 316.322C159.764 316.277 157.266 316.134 154.937 315.521C152.887 314.979 150.973 314.817 148.874 315.039C138.414 316.153 130.086 311.879 123.085 304.512C121.408 302.747 119.803 301.069 117.538 299.888C107.673 294.733 101.783 286.441 99.0515 275.755C98.7425 274.548 98.0454 273.317 97.2013 272.395C92.5589 267.32 89.5142 261.454 88.1162 254.738C87.2006 250.332 87.2194 245.923 88.1087 241.506C88.2444 240.828 88.2594 239.974 87.958 239.391C84.6495 233.01 82.9689 226.32 83.8394 219.104C83.8771 218.795 83.8808 218.479 83.8771 218.167C83.8771 218.05 83.8017 217.934 83.7075 217.655C81.0886 218.664 78.4471 219.6 75.8848 220.729C75.3949 220.944 74.9993 221.88 74.9578 222.509C74.6413 227.336 73.4091 231.892 71.005 236.099C68.5821 240.332 65.3113 243.699 60.782 245.697C58.1405 246.86 55.4688 247.954 52.8236 249.106C43.4748 253.169 34.8871 251.243 27.3169 245.121C15.6469 235.681 10.8764 223.103 12.2178 208.332C12.9338 200.438 16.2422 193.602 22.7988 188.763C25.4215 186.829 28.4134 185.433 31.6955 184.94C34.9135 184.455 36.4622 183.277 36.8353 179.47C37.5663 172.054 40.9011 165.62 46.9076 160.793C50.1896 158.155 54.0294 156.887 58.0237 156.037C61.7428 155.243 65.5336 154.78 69.2716 154.047C69.8444 153.934 70.4925 153.253 70.7525 152.673C72.2899 149.272 74.2984 146.228 76.9474 143.576C80.7721 139.742 85.4898 137.733 90.6861 136.698C93.9984 136.04 97.3256 135.381 100.676 135.027C104.285 134.644 107.76 135.539 111.14 136.841C111.697 137.055 112.704 136.943 113.118 136.563C120.014 130.204 128.673 128.857 137.475 128.097C139.8 127.898 141.323 127.36 142.619 125.245C151.199 111.241 162.88 100.443 177.437 92.8576C187.43 87.6504 198.098 84.5087 209.361 83.4552C231.8 81.3558 252.454 86.5856 271.434 98.5578C291.096 110.959 305.163 128.15 314.251 149.385C319.602 161.88 322.41 175.023 322.824 188.639C322.847 189.422 322.933 190.2 322.997 191.066L322.994 191.062ZM309.522 281.083C308.222 282.949 306.983 284.657 305.826 286.414C304.797 287.976 303.471 289.481 302.954 291.212C301.018 297.709 299.861 304.309 300.087 311.19C300.279 317.045 301.858 322.188 305.227 326.94C309.36 332.768 314.813 336.764 321.528 339.044C329.381 341.712 337.437 342.953 345.768 342.524C352.593 342.174 358.908 340.696 363.999 335.771C365.212 334.597 366.614 333.603 367.778 332.384C370.488 329.551 372.432 326.282 373.574 322.478C375.318 316.661 375.522 310.75 374.787 304.824C374.391 301.634 373.8 298.342 372.553 295.414C370.552 290.715 367.985 286.249 365.551 281.741C363.991 278.856 362.748 275.951 363.908 272.644C364.53 270.879 365.284 269.145 366.147 267.482C368.336 263.26 370.676 259.11 372.843 254.877C373.672 253.26 373.024 250.043 371.878 249.102C367.997 245.923 363.29 244.689 358.392 243.281C359.662 248.447 355.498 250.517 352.747 253.677C358.795 253.538 364.496 253.591 369.579 250.329C370.032 250.039 370.879 250.355 371.543 250.389C371.271 251.04 371.185 251.939 370.699 252.296C368.717 253.745 366.557 254.87 364.014 255.054C359.707 255.367 355.411 255.908 351.1 255.991C348.666 256.04 347.008 256.83 345.87 258.888C345.474 259.599 345.098 260.322 344.683 261.022C342.599 264.539 339.796 267.301 335.76 268.332C334.046 268.768 332.847 269.495 331.815 270.86C329.859 273.449 327.15 274.224 323.988 273.916C323.412 273.859 322.553 274.235 322.206 274.698C320.254 277.294 318.438 279.992 316.531 282.626C314.918 284.849 312.914 284.913 311.052 282.851C310.596 282.347 310.163 281.824 309.519 281.079L309.522 281.083ZM292.675 119.688C291.925 123.21 291.168 126.592 290.527 129.997C290.444 130.43 290.844 131.126 291.228 131.438C292.441 132.42 293.839 133.18 295.019 134.196C300.113 138.591 303.056 144.182 304.19 150.785C304.315 151.507 304.71 152.369 305.264 152.801C314.218 159.785 317.801 170.485 314.854 181.468C314.662 182.175 314.764 183.078 315.028 183.778C318.864 193.876 317.405 202.914 309.779 210.8C309.206 211.391 308.72 212.245 308.573 213.042C306.794 222.772 300.11 228.341 291.725 232.009C287.942 233.665 284.08 235.064 280.726 237.491C277.843 239.579 275.127 241.901 272.282 244.041C270.488 245.392 268.269 246.306 266.791 247.921C260.909 254.362 254.221 259.174 245.207 259.987C244.665 260.036 243.922 260.559 243.696 261.052C240.037 269.028 233.142 273.475 225.677 277.05C222.64 278.506 219.399 279.51 216.671 281.587C215.827 282.231 214.896 282.757 213.683 283.547C242.084 289.492 269.998 295.332 298.007 301.193C298.862 297.679 299.65 294.342 300.494 291.016C300.69 290.241 300.931 289.421 301.372 288.77C303.369 285.809 305.472 282.923 307.454 279.954C307.736 279.529 307.766 278.671 307.529 278.212C305.766 274.845 303.927 271.515 302.046 268.212C301.7 267.606 301.153 266.959 300.539 266.688C297.212 265.224 295.347 262.756 294.732 259.185C294.551 258.139 294.05 257.014 293.353 256.221C290.418 252.876 289.807 248.112 291.865 244.147C292.954 242.044 293.805 239.816 294.876 237.702C295.52 236.43 296.13 234.955 297.185 234.105C300.467 231.471 304.247 229.804 308.539 229.68C311.523 229.594 314.511 229.665 318.016 229.665C317.669 228.047 317.59 226.557 317.036 225.27C315.295 221.226 315.265 217.219 317.741 213.618C320.126 210.149 319.632 206.432 319.644 202.673C319.651 200.453 319.772 198.226 319.93 196.01C320.009 194.9 320.416 193.809 320.443 192.702C320.62 184.903 319.787 177.175 318.133 169.575C314.462 152.715 307.148 137.533 296.454 123.985C295.226 122.431 293.843 120.997 292.686 119.688H292.675ZM196.541 276.124C196.368 274.476 196.308 272.903 196.025 271.368C194.567 263.452 191.089 256.533 185.309 250.897C177.889 243.661 169.192 239.609 158.585 241.396C150.125 242.822 144.3 247.872 141.025 255.66C138.323 262.09 138.274 268.768 139.91 275.552C143.169 289.075 155.404 301.984 170.194 303.135C176.536 303.628 182.283 302.089 187.219 298.056C194.175 292.37 196.549 284.703 196.541 276.124ZM265.898 98.0574C219.294 71.3137 165.936 89.4376 144.827 126.615C149.477 125.659 154.029 124.387 158.792 125.301C159.173 125.373 159.738 125.042 160.066 124.733C163.868 121.174 168.341 118.92 173.416 117.833C177.889 116.877 182.347 115.816 186.985 116.685C187.513 116.783 188.176 116.501 188.696 116.238C196.33 112.366 204.236 110.342 212.812 112.547C213.329 112.678 214.06 112.524 214.516 112.231C217.85 110.112 221.524 108.901 225.368 108.224C230.097 107.388 234.841 106.579 239.604 105.985C242.37 105.639 245.196 105.612 247.988 105.699C249.141 105.733 249.895 105.552 250.814 104.822C252.567 103.43 254.413 102.019 256.452 101.158C259.466 99.886 262.684 99.0845 265.895 98.0574H265.898ZM14.2338 214.205C14.0982 218.088 15.4509 224.42 18.4127 230.335C22.6557 238.808 28.7299 245.403 38.2144 248.075C43.9157 249.681 49.3041 248.681 54.1387 245.336C60.164 241.163 62.8092 234.963 63.7852 227.987C64.9043 220.003 63.4461 212.343 59.7721 205.235C55.3294 196.638 48.9725 190.114 39.1263 187.717C32.5659 186.122 24.227 189.124 20.1461 194.512C16.3289 199.55 14.6106 205.232 14.2376 214.209L14.2338 214.205ZM313.532 282.163C314.082 281.685 314.421 281.486 314.628 281.192C316.584 278.446 318.528 275.688 320.45 272.918C321.162 271.891 321.92 270.969 323.34 271.331C326.735 272.2 329.121 270.857 331.073 268.144C331.634 267.361 332.682 266.646 333.62 266.462C338.127 265.574 340.99 262.809 343.138 258.952C343.99 257.421 345.128 255.953 346.432 254.795C347.961 253.433 349.94 252.571 351.5 251.235C353.094 249.87 354.507 248.263 355.829 246.626C356.677 245.577 356.478 244.309 355.389 243.458C352.491 241.193 349.292 239.579 345.618 238.891C342.155 238.243 338.605 237.739 335.323 236.539C329.919 234.56 324.441 234.315 318.834 234.714C317.771 234.79 316.701 234.985 315.649 234.917C315.227 234.891 314.579 234.349 314.519 233.966C314.462 233.597 314.956 233.036 315.344 232.731C315.642 232.498 316.151 232.536 316.565 232.453C311.979 231.742 307.405 231.55 303.049 233.333C300.814 234.248 298.568 235.354 297.449 237.781C296.168 240.557 294.74 243.274 293.583 246.103C292.438 248.91 292.731 251.788 294.729 254.061C296.179 255.713 296.714 257.534 297.355 259.509C297.879 261.119 298.945 263.219 300.309 263.761C303.474 265.017 304.345 267.557 305.472 270.217C307.348 274.645 310.525 278.212 313.524 282.163H313.532ZM125.308 191.231C125.696 191.468 125.934 191.675 126.212 191.777C133.41 194.388 140.441 193.997 146.986 190.016C153.743 185.904 157.594 179.534 158.958 171.911C161.128 159.8 158.08 148.998 149.292 140.205C141.952 132.857 133.135 130.095 122.964 133.289C119.886 134.256 117.048 135.874 114.878 138.455C134.273 150.593 136.669 177.337 125.308 191.231ZM98.2978 200.498C104.802 200.581 110.145 198.388 114.395 193.97C120.432 187.698 122.651 179.936 122.248 171.392C121.804 161.952 118.375 153.738 111.648 147.007C103.939 139.298 92.2537 136.077 82.1437 142.462C77.7462 145.239 74.6526 149.189 72.7911 154.288C83.2101 156.425 90.2566 162.821 94.9969 171.753C99.7373 180.689 100.996 190.242 98.2978 200.498ZM160.608 138.463C160.567 138.707 160.522 138.952 160.48 139.2C165.59 145.848 168.649 153.253 168.823 161.692C169.049 172.822 165.405 182.171 156.094 188.846C154.794 189.779 153.343 190.498 151.489 191.593C154.315 193.263 156.787 194.926 159.433 196.254C167.398 200.254 175.395 199.847 182.927 195.34C191.812 190.024 195.55 181.524 195.916 171.535C196.199 163.822 193.945 156.707 189.352 150.427C184.223 143.422 177.444 139.016 168.729 138.068C166.068 137.778 163.318 138.308 160.608 138.466V138.463ZM75.1613 218.156C81.5672 215.304 85.2713 210.367 87.4267 204.193C89.8722 197.184 89.8308 190.046 87.7658 182.946C84.755 172.581 78.9445 164.416 68.729 160.104C63.122 157.738 57.368 157.809 51.7873 160.563C45.8374 163.498 42.3707 168.517 40.3246 174.567C39.4428 177.182 39.1452 179.993 38.5347 182.961C40.1626 182.706 41.2629 182.412 42.3707 182.374C50.8943 182.081 57.8164 185.599 63.6156 191.551C69.0945 197.172 72.5198 203.915 74.1175 211.575C74.5471 213.641 74.7882 215.744 75.1651 218.156H75.1613ZM174.777 201.484C177.927 206.266 182.226 209.942 187.554 212.489C193.527 215.345 199.786 216.049 206.052 214.141C218.077 210.484 224.52 199.949 224.795 188.12C224.98 180.177 222.489 173.059 217.651 166.828C213.856 161.94 208.995 158.392 202.785 156.417C202.951 157.245 203.109 157.892 203.211 158.55C203.66 161.512 204.342 164.465 204.492 167.441C205.099 179.639 198.324 192.514 185.896 197.041C182.219 198.38 178.624 199.941 174.78 201.484H174.777ZM187.238 215.033C187.475 215.815 187.573 216.214 187.72 216.598C189.45 221.158 191.914 225.259 195.4 228.698C202.314 235.519 210.499 238.842 220.296 237.412C230.485 235.926 239.114 227.261 240.9 217.14C242.215 209.694 241.119 202.669 237.656 196.032C236.412 193.647 234.675 191.514 233.164 189.264C232.995 189.324 232.825 189.384 232.656 189.448C230.937 199.938 225.409 207.515 215.97 212.523C206.772 217.403 197.487 219.348 187.234 215.033H187.238ZM244.171 225.451C239.035 231.783 232.656 235.888 225.368 238.514C215.929 241.919 207.062 240.113 198.9 234.643C196.251 232.867 193.96 230.553 191.432 228.423C191.266 233.093 192.208 237.51 194.247 241.656C199.737 252.808 208.411 259.55 221.114 260.1C228.857 260.435 235.418 257.334 240.173 251.258C246.195 243.564 246.888 234.816 244.167 225.451H244.171ZM238.372 136.608C238.281 136.773 238.191 136.939 238.101 137.108C238.176 137.341 238.248 137.575 238.327 137.808C242.404 149.393 240.995 160.01 232.486 169.206C230.911 170.91 230.003 172.272 231.34 174.443C231.683 175 231.744 175.76 231.823 176.441C232.019 178.119 232.949 179.154 234.272 180.2C236.861 182.25 239.352 184.47 241.594 186.886C242.566 187.935 243.169 188.146 244.371 187.574C252.668 183.609 257.307 177.002 258.709 168.009C260.495 156.549 254.432 144.332 244.194 138.978C242.347 138.011 240.316 137.39 238.372 136.611V136.608ZM131.59 225.726C131.247 224.255 131.043 223.22 130.757 222.208C128.108 212.779 122.633 205.687 113.559 201.604C111.615 200.728 109.742 200.656 107.583 201.367C104.949 202.233 102.104 202.553 99.319 202.835C98.132 202.955 97.3671 203.079 96.8508 204.268C94.8876 208.78 91.9334 212.489 87.9165 215.413C87.0913 216.011 86.4394 217.328 86.3565 218.366C86.1342 221.158 86.0438 223.999 86.3151 226.779C86.6504 230.233 87.6226 233.57 89.4803 236.784C90.4977 235.083 91.3003 233.533 92.2951 232.118C97.0091 225.444 104.455 223.457 111.645 221.109C113.095 220.635 114.735 220.635 116.291 220.605C121.815 220.492 126.653 222.584 131.59 225.729V225.726ZM266.121 163.043C265.156 177.227 257.111 185.753 244.073 190.215C247.491 196.171 249.352 202.263 249.236 208.806C258.754 210.683 270.07 204.197 274.004 195.321C279.618 182.653 274.026 168.732 266.121 163.047V163.043ZM97.6648 269.502C98.0303 269.216 98.1132 269.186 98.117 269.145C98.1396 268.896 98.1509 268.648 98.1546 268.4C98.3054 259.4 101.079 251.612 108.984 246.525C111.848 244.681 115.07 243.345 118.243 242.051C120.417 241.163 122.757 240.524 125.082 240.192C127.249 239.884 129.494 240.125 131.936 240.125C131.639 239.575 131.488 239.244 131.292 238.947C127.252 232.833 121.924 228.454 114.738 226.448C105.05 223.743 94.8424 228.935 91.5189 238.424C88.4554 247.168 89.6461 255.573 93.8514 263.64C94.9216 265.691 96.3798 267.538 97.6723 269.502H97.6648ZM201.173 123.687C201.417 123.992 201.617 124.289 201.862 124.545C208.935 131.931 211.799 140.716 210.54 150.826C210.382 152.087 210.77 152.613 211.885 153.035C215.804 154.513 219.282 156.737 222.165 159.77C224.245 161.959 226.129 164.333 228.096 166.621C234.705 158.144 235.369 143.44 226.623 132.495C219.991 124.195 209.214 120.877 201.173 123.687ZM136.959 260.269C131.394 265.837 129.434 272.249 129.51 279.375C129.585 286.452 131.759 292.931 135.753 298.767C141.553 307.236 149.262 312.835 159.723 313.869C167.38 314.625 173.718 311.792 178.782 306.07C179.053 305.765 179.193 305.34 179.438 304.892C156.301 310.34 132.55 286.441 136.955 260.273L136.959 260.269ZM116.849 297.074C116.977 296.916 117.105 296.754 117.233 296.596C117.127 296.37 117.022 296.144 116.913 295.918C112.707 287.122 111.219 278.077 114.618 268.663C116.773 262.696 120.831 258.32 126.446 255.427C129.472 253.865 132.599 252.503 135.719 251.032C132.445 247.691 124.249 244.997 119.287 245.52C108.826 246.623 102.571 253.549 101.026 263.091C99.1871 274.457 103.068 284.168 110.959 292.333C112.696 294.131 114.874 295.505 116.849 297.077V297.074ZM280.006 195.49C272.316 206.161 262.33 211.838 248.821 211.628C248.911 213.024 248.629 214.559 249.16 215.733C251.029 219.871 252.582 224.059 253.151 228.593C253.211 229.063 253.919 229.755 254.394 229.816C256.436 230.083 258.532 230.433 260.559 230.244C270.71 229.3 277.776 224.093 281.159 214.435C283.379 208.095 282.802 201.766 280.006 195.498V195.49ZM146.847 313.098C146.892 312.883 146.937 312.669 146.986 312.455C145.788 311.691 144.537 311.002 143.407 310.152C135.282 304.034 129.89 296.103 127.893 286.091C125.903 276.113 127.426 266.914 134.668 259.219C135.671 258.154 136.808 257.214 138.135 255.984C137.095 255.905 136.307 255.754 135.531 255.795C124.969 256.356 116.754 264.22 115.469 274.755C114.429 283.284 116.415 291.031 121.076 298.15C125.519 304.933 131.492 309.806 139.386 312.007C141.79 312.677 144.356 312.756 146.847 313.105V313.098ZM274.004 160.77C278.917 165.707 281.71 171.471 282.799 178.055C291.349 175.61 297.984 166.787 298.327 156.963C298.745 144.964 290 135.483 283.119 133.605C284.298 138.658 284.091 143.58 282.52 148.448C280.941 153.351 277.919 157.26 274.004 160.767V160.77ZM252.145 116.776C252.258 117.205 252.258 117.344 252.325 117.434C257.152 124.113 258.893 131.483 257.424 139.614C257.33 140.144 257.518 140.916 257.876 141.303C261.23 144.979 263.558 149.204 264.971 153.964C265.107 154.427 265.593 154.867 266.03 155.149C267.236 155.928 268.566 156.53 269.719 157.373C270.722 158.107 271.355 157.918 272.071 157.038C274.35 154.235 276.005 151.097 276.788 147.59C279.381 135.994 274.934 125.565 264.696 119.549C260.921 117.329 256.719 116.354 252.148 116.776H252.145ZM177.335 214.258C177.429 214.062 177.52 213.87 177.614 213.675C176.608 212.034 175.636 210.375 174.584 208.761C170.481 202.462 164.071 199.941 157.145 198.482C154.014 197.823 150.958 198.839 147.977 199.941C145.905 200.709 144.951 201.902 144.756 204.182C144.383 208.501 142.638 212.41 140.113 215.913C139.409 216.891 139.198 217.708 139.518 218.829C140.644 222.783 141.134 226.832 140.43 230.899C139.981 233.491 141.36 235.102 143.03 237.201C143.783 228.536 147.431 221.794 154.813 217.9C161.75 214.243 169.072 211.12 177.335 214.254V214.258ZM304.134 160.093C303.037 162.603 302.167 165.169 300.856 167.479C297.359 173.653 291.831 177.378 285.274 179.763C284.524 180.038 283.266 180.482 283.239 180.907C283.111 182.969 282.663 185.407 283.556 187.047C285.384 190.419 287.29 193.681 288.206 197.443C288.304 197.85 289.02 198.444 289.385 198.403C296.115 197.631 301.707 194.73 305.735 189.2C310.261 182.984 311.049 176.076 309.006 168.826C308.075 165.522 306.417 162.52 304.138 160.086L304.134 160.093ZM162.47 125.956C164.55 127.062 166.622 127.965 168.465 129.203C170.319 130.452 171.935 132.048 173.684 133.459C173.951 133.673 174.354 133.786 174.709 133.82C182.942 134.614 189.827 138.094 195.294 144.261C196.862 146.029 198.03 148.155 199.624 149.901C200.189 150.521 201.455 150.6 202.424 150.683C202.593 150.698 203.06 149.502 203.06 148.866C203.094 142.233 201.338 136.122 197.333 130.776C192.005 123.665 185.049 119.65 175.941 120.121C170.767 120.388 166.242 122.299 162.473 125.952L162.47 125.956ZM146.089 244.327C146.376 244.203 146.689 244.136 146.915 243.959C150.871 240.9 155.442 239.015 159.979 237.051C160.748 236.716 161.482 236.129 162.033 235.486C164.731 232.344 167.96 229.959 171.788 228.378C174.81 227.133 177.829 225.884 180.798 224.657C174.573 218.385 164.007 215.311 154.933 220.628C146.655 225.481 143.942 236.204 146.086 244.324L146.089 244.327ZM404.582 218.171C404.906 218.306 405.219 218.46 405.55 218.569C406.379 218.844 407.446 218.995 407.092 220.233C406.692 221.625 405.629 220.977 404.752 220.816C402.596 220.424 400.452 219.822 398.282 219.702C394.468 219.491 390.628 219.431 386.815 219.593C384.177 219.706 381.558 220.296 378.932 220.673C378.958 220.853 378.981 221.034 379.007 221.218C379.252 221.199 379.501 221.181 379.746 221.158C386.114 220.541 392.482 219.608 398.851 221.034C399.45 221.166 400.339 221.873 400.358 222.343C400.411 223.645 399.329 223.502 398.444 223.318C393.767 222.347 389.065 222.584 384.381 223.096C376.015 224.006 367.556 224.668 360.796 230.655C359.842 231.501 358.961 230.967 358.761 229.635C358.689 229.168 358.509 228.721 358.369 228.224C355.411 229.609 354.288 232.035 353.067 234.985C354.367 234.067 355.283 233.416 356.199 232.773C356.979 232.224 357.909 231.463 358.524 232.698C358.727 233.108 358.064 234.206 357.521 234.688C355.999 236.042 354.337 237.239 352.702 238.522C354.446 240.241 356.01 241.009 358.071 239.696C358.836 239.207 359.854 239.12 360.743 238.815C367.443 236.52 374.35 234.688 380.782 231.802C389.14 228.051 398.123 226.757 406.745 224.097C407.872 223.75 408.783 223.457 408.241 221.922C408.098 221.516 408.474 220.74 408.855 220.421C409.051 220.255 410.11 220.609 410.212 220.914C410.762 222.607 412.111 222.411 413.411 222.524C415.528 222.712 417.639 222.998 419.756 223.216C420.265 223.269 420.785 223.224 421.297 223.224C421.335 223.024 421.377 222.825 421.414 222.629C416.067 220.278 410.683 218.062 404.582 218.171ZM251.056 135.332C251.775 128.176 247.065 118.115 238.289 113.295C231.729 109.695 221.739 109.951 216.66 114.014C216.871 114.165 217.063 114.315 217.266 114.439C223.729 118.348 227.896 124.733 233.571 129.489C233.801 129.685 233.974 129.974 234.106 130.253C234.841 131.788 235.975 132.39 237.724 132.191C238.881 132.059 240.128 132.172 241.255 132.473C244.552 133.349 247.807 134.373 251.048 135.332H251.056ZM201.255 254.836C201.18 255.16 201.097 255.303 201.139 255.385C203.874 261.168 205.529 267.203 205.51 273.652C205.51 274.092 206.079 274.773 206.531 274.943C217.398 278.999 229.513 276.056 235.681 264.916C236.94 262.643 237.543 260.009 238.447 257.545C238.251 257.391 238.055 257.236 237.859 257.086C232.26 261.014 226.155 262.986 219.301 262.429C212.462 261.872 206.561 259.155 201.252 254.832L201.255 254.836ZM252.909 106.29C255.807 108.562 258.716 110.861 261.652 113.126C262.032 113.42 262.53 113.623 263.004 113.728C270.307 115.353 275.989 119.364 279.739 125.757C281.193 128.24 283.141 128.443 285.417 128.635C288.146 118.405 285.248 109.845 274.32 103.329C268.054 99.5925 257.476 101.248 252.909 106.29ZM310.389 189.926C304.352 195.784 297.551 200.099 288.813 200.908C289.468 206.661 288.281 211.948 285.839 217.019C302.676 219.48 314.685 204.408 310.389 189.926ZM60.4278 243.18C60.8611 242.988 61.3283 242.849 61.7165 242.589C67.949 238.496 71.2236 232.476 72.1957 225.327C73.8952 212.847 70.2514 201.917 61.5356 192.8C57.5489 188.628 52.6352 185.851 46.8661 184.967C44.707 184.636 42.4536 184.914 40.2417 184.914C63.9924 191.498 73.9818 225.658 60.424 243.18H60.4278ZM253.946 232.216C252.503 237.299 251.135 242.1 249.729 247.055C257.119 248.756 264.142 247.473 270.251 242.205C275.157 237.973 277.301 232.479 277.719 225.511C270.262 231.249 262.484 233.947 253.949 232.216H253.946ZM84.6571 214.378C89.94 211.583 93.3954 207.184 95.3662 201.668C97.8117 194.821 97.9286 187.823 95.9616 180.817C93.0789 170.549 87.3814 162.531 77.3581 158.11C74.012 156.635 70.4624 156.158 66.3588 156.647C89.3258 163.453 99.6619 196.1 84.6571 214.374V214.378ZM344.257 230.045C344.257 230.022 344.257 229.996 344.257 229.974C345.757 229.872 347.261 229.808 348.757 229.661C354.563 229.093 358.478 225.865 359.451 220.755C360.042 217.64 359.662 214.653 356.971 212.595C354.284 210.54 351.206 210.525 348.267 211.996C346.91 212.677 345.663 213.776 344.676 214.946C341.28 218.957 340.387 224.048 338.986 228.897C338.914 229.15 339.69 229.947 340.124 229.996C341.488 230.143 342.874 230.049 344.254 230.049L344.257 230.045ZM163.37 238.435C176.751 239.538 186.303 246.028 192.943 256.86C199.628 267.768 200.95 279.296 195.667 291.618C202.797 285.15 206.35 270.924 198.968 256.57C191.99 242.992 177.252 234.744 163.37 238.435ZM117.176 194.877C126.084 189.249 129.728 180.772 129.785 170.715C129.841 160.575 126.224 151.718 118.827 144.622C114.603 140.566 109.504 138.124 103.652 137.383C102.921 137.289 102.156 137.454 101.407 137.499C112.941 142.266 119.976 150.773 123.194 162.433C126.427 174.135 124.811 185.08 117.176 194.873V194.877ZM336.291 229.985C336.092 228.284 335.982 227.125 335.817 225.974C335.376 222.889 335.104 219.758 334.392 216.737C333.808 214.258 332.429 212.091 329.829 211.131C326.106 209.758 321.403 211.699 319.369 215.383C317.258 219.205 318.005 224.33 321.373 226.553C323.19 227.754 325.417 228.529 327.564 228.984C330.326 229.575 333.198 229.654 336.291 229.981V229.985ZM341.296 207.177C341.42 207.41 341.544 207.643 341.669 207.877C345.87 207.395 350.155 207.275 354.251 206.334C359.111 205.216 362.409 202.09 363.166 196.864C363.622 193.715 362.032 191.322 358.919 190.573C355.603 189.772 352.589 190.52 349.91 192.605C345.09 196.348 343.519 201.951 341.296 207.18V207.177ZM138.651 130.599C150.005 134.952 157.142 143.169 160.454 154.596C163.781 166.068 162.123 176.847 154.67 186.63C162.813 182.28 169.561 168.22 165.058 152.963C161.245 140.028 150.17 130.565 138.647 130.599H138.651ZM338.831 200.133C338.684 199.08 338.579 197.191 338.134 195.381C337.354 192.195 335.451 190.633 332.305 190.475C328.522 190.279 325.417 191.698 323.205 194.779C320.141 199.05 321.332 204.366 326.14 205.86C329.773 206.989 333.763 207.011 337.607 207.391C337.965 207.425 338.726 206.511 338.775 205.988C338.925 204.321 338.831 202.635 338.831 200.133ZM345.636 187.695C351.5 187.108 357.073 187.717 362.054 185.035C363.976 184 365.743 182.45 367.168 180.783C368.404 179.338 369.259 177.378 368.2 175.38C367.156 173.408 365.174 173.01 363.181 173.051C361.632 173.081 360.016 173.22 358.558 173.702C351.862 175.907 348.96 181.641 345.633 187.698L345.636 187.695ZM192.283 190.422C201.346 183.349 205.951 167.817 198.29 152.414C193.9 143.583 180.764 134.7 174.494 136.585C196.244 143.809 205.449 171.651 192.283 190.422ZM337.998 187.74C338.021 187.631 338.044 187.518 338.066 187.409C338.816 187.454 339.566 187.506 340.316 187.544C343.353 187.687 343.639 187.375 343.383 184.395C343.338 183.849 343.545 183.289 343.575 182.732C343.666 181.061 344.073 179.304 343.688 177.743C343.372 176.445 342.366 174.929 341.224 174.289C336.766 171.791 328.812 175.166 327.24 180.008C326.291 182.931 327.063 185.012 329.995 186.002C332.565 186.867 335.323 187.187 337.995 187.747L337.998 187.74ZM201.372 153.396C212.677 156.842 220.292 163.675 224.524 174.12C228.744 184.542 228.092 194.723 222.323 204.844C230.082 198.102 232.633 184.858 228.605 173.837C223.473 159.796 210.646 153.023 201.372 153.396ZM137.875 231.821C138.011 231.121 138.09 230.835 138.12 230.545C139.002 222.178 136.631 214.675 131.639 208.057C128.104 203.373 123.545 199.866 117.689 198.455C116.686 198.214 115.537 198.568 114.456 198.651C114.452 198.854 114.448 199.061 114.444 199.264C114.855 199.509 115.247 199.783 115.673 199.994C126.224 205.224 131.891 214.058 133.824 225.323C134.325 228.235 136.134 229.624 137.871 231.821H137.875ZM283.149 231.437C292.351 231.938 301.251 224.014 302.22 216.703C299.454 217.557 296.609 218.807 293.643 219.243C290.61 219.691 287.46 219.341 284.479 219.341C284.027 223.446 283.597 227.377 283.149 231.437ZM344.841 167.949C345.162 169.006 345.29 169.898 345.693 170.643C346.334 171.836 347.253 172.886 347.875 174.09C348.515 175.331 349.243 175.38 350.256 174.631C353.079 172.551 355.958 170.549 358.705 168.374C359.861 167.46 360.875 166.286 361.712 165.063C362.759 163.524 362.341 162.407 360.649 161.583C360.091 161.312 359.481 161.094 358.87 160.996C354.081 160.236 349.921 161.617 346.484 164.962C345.693 165.733 345.361 166.975 344.849 167.949H344.841ZM240.723 225.688C252.695 211.315 245.403 189.395 232.968 182.461C232.64 184.497 232.81 186.31 234.6 187.683C235.188 188.135 235.7 188.718 236.145 189.316C242.374 197.676 245.264 206.917 243.203 217.328C242.653 220.12 241.594 222.81 240.723 225.692V225.688ZM141.685 243.989C137.483 230.154 123.65 220.793 112.956 223.457C113.879 223.728 114.648 223.976 115.428 224.179C119.313 225.176 122.734 227.043 125.888 229.507C129.559 232.37 132.347 235.937 134.71 239.888C135.022 240.411 135.362 241.047 135.859 241.302C137.683 242.239 139.582 243.037 141.685 243.993V243.989ZM217.621 122.551C226.061 126.709 231.578 133.169 234.159 141.928C236.748 150.725 235.7 159.19 230.576 167.55C237.599 161.297 240.478 148.211 235.599 137.345C231.751 128.778 222.953 122.48 217.624 122.547L217.621 122.551ZM119.758 196.42C126.405 198.918 131.473 203.256 135.531 209.412C136.673 204.897 136.722 200.829 135.998 196.758C135.927 196.348 135.068 195.889 134.51 195.78C131.883 195.265 129.012 195.363 126.653 194.298C123.733 192.985 122.011 194.147 120.149 195.893C120.063 195.976 120.002 196.089 119.758 196.42ZM186.673 119.248C199.997 125.727 205.755 136.649 205.525 151.18C206.376 151.334 207.141 151.469 207.891 151.601C211.117 136.785 200.2 120.677 186.673 119.248ZM258.773 177.118C264.843 168.137 265.243 158.678 260.446 149.159C256.617 141.57 250.362 136.758 241.865 135.137C249.982 138.572 255.792 144.294 259.123 152.467C262.484 160.721 262.138 168.927 258.777 177.115L258.773 177.118ZM212.421 118.585C207.605 113.991 195.366 114.063 191.718 117.739C193.497 118.706 195.26 119.782 197.129 120.625C198.068 121.046 199.262 121.343 200.246 121.163C204.345 120.41 208.407 119.455 212.421 118.589V118.585ZM266.192 158.016L265.631 158.381C266.109 159.055 266.513 159.803 267.078 160.39C268.679 162.057 270.556 163.502 271.958 165.319C277.87 172.98 280.044 181.573 277.919 191.107C277.614 192.484 277.105 193.816 276.585 195.528C284.046 185.2 281.299 165.963 266.196 158.016H266.192ZM245.151 257.47C251.376 257.214 256.101 254.535 260.348 249.775C259.263 249.87 258.656 249.994 258.061 249.96C255.14 249.787 252.175 249.821 249.318 249.286C247.453 248.936 246.579 249.715 246.213 251.055C245.663 253.075 245.501 255.201 245.147 257.47H245.151ZM185.414 230.794C179.524 228.299 169.29 230.53 165.887 235.177C166.065 235.233 166.227 235.316 166.392 235.328C170.161 235.598 173.929 235.877 177.697 236.106C178.138 236.133 178.688 236.027 179.027 235.772C181.201 234.127 183.327 232.427 185.414 230.79V230.794ZM245.456 247.477C252.299 240.012 252.047 225.146 247.216 218.43C246.794 220.398 245.773 222.245 246.202 223.656C248.056 229.778 248.689 235.888 247.22 242.138C246.813 243.865 246.112 245.52 245.456 247.477ZM142.4 194.843C141.01 195.107 139.714 195.355 138.361 195.611C139.115 201.134 139.111 206.33 137.434 211.458C137.159 212.294 137.686 213.389 137.841 214.367C142.344 208.482 143.388 202.015 142.4 194.847V194.843ZM164.369 135.189C160.382 130.757 151.274 127.589 146.602 129.199C146.621 129.256 146.625 129.35 146.662 129.365C150.709 131.092 154.523 133.191 157.699 136.307C157.91 136.514 158.393 136.593 158.705 136.525C160.574 136.119 162.428 135.656 164.373 135.189H164.369ZM361.632 226.384C364.647 225.206 367.356 224.3 369.907 223.069C370.898 222.592 372.206 221.922 372.089 220.27C372.063 219.901 372.684 219.333 373.133 219.108C376.471 217.418 379.821 215.751 383.205 214.16C384.645 213.483 386.182 213.009 387.674 212.444C387.587 212.267 387.497 212.091 387.41 211.917C376.784 212.82 368.939 218.739 361.636 226.388L361.632 226.384ZM240 111.52C240.403 111.805 240.795 112.118 241.217 112.377C245.848 115.241 248.949 119.398 251.229 124.237C253 127.992 253.674 131.972 253.663 136.096C253.663 137.101 253.671 138.132 255.08 138.233C257.623 126.63 249.575 113.995 240.004 111.523L240 111.52ZM265.808 117.159C278.819 126.125 282.659 137.736 277.926 152.282C285.519 141.367 280.658 122.611 265.808 117.159ZM122.908 243.12C123.266 243.195 123.62 243.281 123.982 243.338C128.914 244.098 133.357 245.998 137.298 249.049C139.947 251.1 141.055 250.859 142.664 247.672C136.718 243.458 130.282 241.336 122.908 243.12ZM283.164 216.177C288.176 209.156 287.426 196.371 282.177 189.956C281.314 191.186 281.144 192.375 281.819 193.782C282.569 195.351 283.228 196.988 283.71 198.658C285.387 204.438 285.195 210.206 283.164 216.173V216.177ZM340.026 232.555C339.615 234.951 340.124 235.779 342.362 236.14C344.627 236.505 346.914 236.738 349.284 237.043C350.102 235.328 350.931 233.582 351.771 231.821C347.675 232.077 343.835 232.314 340.026 232.551V232.555ZM169.083 215.883C169.84 216.094 170.598 216.316 171.359 216.511C175.764 217.655 179.596 219.924 182.731 223.107C184.513 224.917 186.345 224.826 188.851 224.717C183.394 218.622 177.109 215.315 169.083 215.879V215.883ZM299.661 164.273C305.788 151.831 298.632 135.998 286.435 132.029C298.32 139.753 302.732 150.247 299.661 164.273ZM203.784 283.649C208.272 283.499 212.029 281.997 215.476 279.412C211.976 278.709 208.637 278.035 205.227 277.347C204.767 279.345 204.3 281.388 203.784 283.649ZM304.722 155.646C304.552 155.732 304.379 155.819 304.209 155.905C304.624 156.575 304.959 157.313 305.468 157.903C308.377 161.271 310.502 165.033 311.61 169.375C312.631 173.375 312.688 177.382 311.734 181.915C315.476 174.601 313.068 161.873 304.722 155.65V155.646ZM381.705 217.189C381.758 217.358 381.807 217.527 381.86 217.697C385.33 217.256 388.801 216.827 392.268 216.372C392.626 216.327 393.27 216.135 393.266 216.022C393.213 213.976 395.271 214.408 396.627 213.302C390.998 213.449 386.382 215.424 381.705 217.185V217.189ZM241.224 108.637C243.587 110.12 245.855 111.384 247.939 112.904C250.072 114.462 250.837 114.635 253.486 113.235C249.918 110.368 245.927 108.826 241.224 108.637ZM156.987 127.736C157.582 128.014 158.208 128.244 158.766 128.582C161.098 130.005 163.657 131.186 165.65 132.988C167.267 134.448 168.57 134.441 170.439 133.617C166.554 130.117 162.157 128.089 156.983 127.736H156.987ZM189.08 234.093C188.353 236.121 187.739 237.724 187.234 239.357C187.14 239.662 187.381 240.238 187.652 240.46C189.137 241.664 190.678 242.8 192.479 244.169C191.319 240.723 190.283 237.657 189.08 234.093ZM184.51 217.253C184.272 213.671 182.102 211.029 178.074 209.573C179.875 212.493 180.142 216.609 184.51 217.253ZM313.389 200.521C315.073 195.682 315.058 190.878 313.083 186.058C312.718 186.543 312.341 187.126 312.462 187.574C313.607 191.837 314.127 196.126 313.389 200.521ZM242.867 253.76C242.219 254.354 241.19 254.844 240.987 255.562C240.245 258.222 239.781 260.958 239.137 264.009C241.454 260.83 242.754 257.613 242.864 253.76H242.867ZM184.804 238.936C185.452 237.051 186.006 235.429 186.563 233.808C186.413 233.702 186.262 233.601 186.111 233.495C184.491 234.575 182.874 235.659 180.96 236.938C182.396 237.687 183.436 238.225 184.804 238.94V238.936ZM287.577 114.672C289.02 119.477 289.174 124.094 288.085 128.74C290.418 125.042 290.222 116.584 287.577 114.672ZM282.09 222.964C281.815 222.862 281.54 222.761 281.265 222.659C280.873 223.19 280.202 223.686 280.134 224.255C279.814 226.9 279.663 229.567 279.452 232.224L280.021 232.34C280.711 229.214 281.401 226.087 282.086 222.964H282.09ZM211.343 114.808C214.719 116.238 216.908 119.748 221.261 120.459C218.28 117.412 214.972 115.85 211.343 114.808ZM332.795 209.622C334.144 211.455 335.263 212.975 336.487 214.638C336.778 213.046 337.049 211.575 337.347 209.953C335.756 209.837 334.377 209.739 332.798 209.626L332.795 209.622ZM342.087 210.029C341.951 211.545 341.831 212.907 341.691 214.461C343.413 212.817 344.898 211.402 346.597 209.784C344.996 209.871 343.7 209.942 342.083 210.029H342.087ZM361.768 222.652C364.025 220.729 366.282 218.803 368.539 216.88C365.8 218.253 362.906 219.454 361.768 222.652ZM341.45 190.065C340.237 189.975 339.14 189.892 337.795 189.79C338.718 191.216 339.445 192.341 340.327 193.7C340.715 192.447 341.039 191.397 341.45 190.069V190.065ZM182.912 227.261C182.889 227.347 182.871 227.434 182.848 227.52C184.811 228.028 186.771 228.54 188.734 229.048C188.869 228.905 189.001 228.758 189.137 228.615C188.719 228.164 188.331 227.366 187.871 227.321C186.232 227.163 184.566 227.257 182.912 227.257V227.261ZM325.337 208.396C324.214 207.734 323.28 207.18 322.127 206.503C322.021 207.587 321.935 208.452 321.825 209.547C323.141 209.114 324.128 208.791 325.337 208.396ZM334.882 233.706C335.093 232.186 332.911 231.482 329.588 232.099C331.498 232.679 333.186 233.19 334.882 233.706ZM152.782 195.445C151.47 194.189 150.626 194.52 148.056 197.24C149.76 196.593 151.233 196.032 152.782 195.445ZM349.303 189.96C346.017 189.914 345.972 189.96 346.066 192.77C347.102 191.871 348.056 191.043 349.303 189.96Z" fill="white"/>
<path d="M157.756 275.756C159.022 271.297 160.28 267.061 161.365 262.779C161.501 262.245 160.819 261.353 160.299 260.852C159.787 260.36 158.999 260.156 158.193 259.754C158.502 258.651 158.792 257.605 159.142 256.345C161.102 257.225 162.85 258.012 164.742 258.858C165.213 257.391 165.661 255.984 166.11 254.588C169.35 254.927 169.426 255.137 168.159 260.265C168.664 260.514 169.203 260.777 169.893 261.112C170.379 259.584 170.82 258.189 171.332 256.571C172.489 257.116 173.473 257.579 174.742 258.177C172.338 261.507 173.925 263.497 176.675 265.458C179.705 267.621 179.803 273.103 175.805 274.691C176.48 276.301 177.504 277.87 177.708 279.537C177.866 280.827 177.233 282.381 176.536 283.574C175.048 286.125 173.356 286.26 166.856 284.778C166.43 286.155 165.996 287.547 165.36 289.605C164.218 288.522 162.892 287.841 162.699 286.926C162.469 285.839 163.219 284.545 163.577 283.22C163.031 282.919 162.507 282.633 161.874 282.287C161.607 283.126 161.38 283.837 161.151 284.545C160.928 285.233 160.702 285.922 160.427 286.765C159.278 286.219 158.343 285.771 157.462 285.354C157.737 283.608 158.622 281.727 158.046 280.594C157.477 279.477 155.419 279.119 154.018 278.419C153.742 278.284 153.497 278.096 153.109 277.848C153.648 276.764 154.168 275.729 154.73 274.597C155.724 274.981 156.584 275.312 157.756 275.759V275.756ZM164.693 272.441C164.052 274.713 163.54 276.534 162.971 278.562C164.761 279.221 166.347 280.011 168.028 280.346C168.958 280.53 170.45 280.286 170.963 279.65C171.86 278.544 171.408 277.031 170.277 276.162C168.581 274.856 166.716 273.769 164.693 272.437V272.441ZM165.544 269.435C166.807 269.943 167.869 270.593 169 270.755C170.047 270.906 171.656 270.921 172.154 270.304C173.171 269.043 172.527 267.523 171.249 266.579C170.017 265.668 168.63 264.961 167.119 264.047C166.569 265.932 166.083 267.583 165.541 269.435H165.544Z" fill="white"/>
<path d="M42.4727 220.338C45.133 222.558 46.678 225.064 45.8565 228.491C45.2498 231.024 43.2941 232.72 40.6979 232.529C38.0262 232.333 35.3735 231.757 32.747 231.197C32.2986 231.099 31.7033 230.256 31.692 229.744C31.5186 222.423 31.432 215.097 31.3227 207.771C31.3038 206.567 31.9294 206.259 33.0184 206.462C34.9891 206.827 36.9787 207.102 38.9419 207.504C42.2089 208.178 44.1985 210.251 45.0991 213.404C45.9206 216.297 44.922 218.551 42.4765 220.338H42.4727ZM36.0178 221.109V227.321C36.8016 227.491 37.4686 227.664 38.1431 227.769C39.1567 227.927 40.5283 228.533 40.8938 227.152C41.1915 226.023 41.2066 224.281 40.5396 223.566C39.5109 222.464 37.7851 222.012 36.0178 221.109ZM35.7578 211.718C35.7578 213.031 35.7427 214.205 35.7578 215.383C35.788 217.407 36.3607 217.877 38.8816 217.84C40.7054 217.813 40.7092 216.406 40.6903 215.172C40.6564 212.843 39.4845 212.042 35.754 211.718H35.7578Z" fill="white"/>
<path d="M26.7637 203.677C27.5023 204.219 28.2785 204.723 28.9756 205.318C30.5168 206.635 30.8484 208.832 29.7293 209.968C28.5913 211.127 25.9837 211.059 24.7741 209.69C24.4463 209.321 24.4727 208.463 24.6423 207.925C24.7101 207.715 25.6144 207.692 26.1307 207.718C26.5113 207.737 26.8843 207.974 27.4948 207.764C27.0576 207.387 26.5829 207.052 26.1985 206.631C25.4939 205.86 24.6234 205.137 24.2202 204.219C23.6475 202.917 23.9037 201.601 25.3695 200.886C26.5979 200.284 29.1829 200.867 29.6426 201.92C29.8197 202.33 29.6615 203.03 29.4014 203.433C29.2281 203.7 28.5951 203.772 28.1806 203.745C27.7924 203.719 27.4194 203.444 27.0426 203.279C26.9521 203.414 26.8617 203.546 26.7713 203.681L26.7637 203.677Z" fill="white"/>
</g>
<defs>
<clipPath id="clip0_259_9573">
<rect width="412" height="262" fill="white" transform="translate(12 83)"/>
</clipPath>
</defs>
</svg>
