<svg width="436" height="436" viewBox="0 0 436 436" fill="none" xmlns="http://www.w3.org/2000/svg">
<g clip-path="url(#clip0_259_9598)">
<path d="M217.365 282.495C218.91 275.289 220.18 268.518 221.878 261.853C222.527 259.295 223.604 256.405 225.446 254.684C228.882 251.47 230.395 247.683 231.196 243.289C232.076 238.456 235.052 234.919 238.982 232.213C241.103 230.754 243.487 229.68 246.319 228.123C245.48 227.483 244.555 226.922 243.803 226.18C237.642 220.113 233.03 213.096 232.54 204.275C232.31 200.131 233.132 195.86 233.967 191.744C235.59 183.715 237.559 175.759 239.38 167.766C239.512 167.192 239.586 166.602 239.561 165.933C236.684 170.688 232.179 173.312 227.189 175.517C228.171 176.902 229.162 178.116 229.955 179.448C232.22 183.251 233.395 187.285 232.31 191.749C231.439 195.331 231.094 199.131 229.671 202.475C227.106 208.505 226.329 214.965 224.34 221.093C223.58 223.433 221.697 225.516 219.991 227.413C218.705 228.848 217.87 230.295 217.41 232.152C216.645 235.242 215.93 238.415 214.623 241.292C212.67 245.588 208.872 248.248 204.684 250.076C194.194 254.651 183.486 254.331 172.786 250.806C166.382 248.699 160.685 245.416 156.213 240.235C152.723 236.193 150.553 231.639 151.153 226.217C151.621 221.97 152.16 217.67 153.315 213.58C153.981 211.214 155.95 209.218 157.302 207.038C157.754 206.312 158.359 205.574 158.49 204.779C159.185 200.549 159.801 196.356 161.314 192.257C162.3 189.58 162.19 186.481 162.448 183.563C162.494 183.063 162.058 182.403 161.659 181.997C156.891 177.152 155.119 171.434 156.406 164.749C157.047 161.416 157.319 157.99 158.202 154.727C159.472 150.034 162.962 147.058 167.04 144.705C167.513 144.43 168.01 144.201 168.495 143.943C170.48 142.889 170.579 142.348 169.001 140.803C166.46 138.319 164.524 135.466 163.645 131.998C163.382 130.953 163.073 129.83 163.201 128.793C163.85 123.534 164.352 118.234 165.466 113.065C166.464 108.438 170.168 105.732 173.987 103.289C174.681 102.847 175.368 101.961 175.52 101.178C176.112 98.0961 176.243 94.9112 176.995 91.878C178.87 84.3154 178.644 76.4824 180.181 68.8829C180.313 68.2353 180.222 67.3581 179.869 66.8335C177.682 63.6158 177.02 60.0907 177.509 56.3074C178.023 52.3109 178.409 48.2899 179.166 44.3426C179.852 40.7601 181.842 37.8253 184.752 35.5586C189.298 32.0212 194.592 30.1275 200.158 29.1888C216.801 26.3893 232.787 28.4346 247.77 36.4521C252.521 38.9935 256.706 42.3177 259.09 47.3717C260.241 49.8147 260.825 52.3478 260.163 55.0818C259.086 59.5292 258.046 63.9888 257.101 68.4648C256.903 69.3994 256.87 70.6086 257.302 71.3956C259.415 75.2363 259.546 79.0893 258.247 83.2251C257.269 86.3444 256.813 89.6236 255.97 92.792C255.559 94.3455 254.762 95.7966 254.215 97.3173C253.977 97.9854 253.96 98.7314 253.796 99.4323C252.485 105.081 251.486 110.831 249.722 116.336C248.608 119.812 245.702 122.419 242.364 124.014C239.935 125.174 238.953 126.838 238.262 129.33C237.259 132.941 237.506 135.732 240.161 138.749C242.122 140.975 242.915 144.221 244.107 146.75C244.338 145.791 244.798 144.246 245.073 142.672C247.564 128.285 256.985 120.538 270.365 116.984C275.548 115.607 281.015 115.275 286.351 114.471C286.799 114.402 287.255 114.377 287.526 114.352C283.65 112.287 279.568 110.397 275.791 108.02C270.78 104.872 266.781 100.711 264.664 95.0014C263.287 91.2959 264.878 87.9963 268.704 86.8322C274.739 84.9959 280.806 85.7255 286.815 86.8158C295.961 88.4718 304.737 91.2877 312.9 95.8088C314.409 96.645 315.013 95.981 315.342 94.5792C316.205 90.9229 317.052 87.2626 317.965 83.6227C320.192 74.7485 324.977 67.682 332.98 63.001C337.933 60.103 343.417 58.9266 349.073 58.5987C356.463 58.1683 363.509 59.1726 369.818 63.5625C378.541 69.6289 379.235 81.7905 371.22 88.8448C364.791 94.5054 357.117 97.4976 348.9 99.0757C339.96 100.793 330.929 102.056 321.923 103.404C320.624 103.597 320.04 103.999 319.716 105.253C318.602 109.54 317.373 113.799 316.16 118.181C319.128 119.275 321.968 120.23 324.739 121.358C334.764 125.436 343.84 130.9 350.647 139.54C356.936 147.525 358.934 156.256 355.444 166.061C349.998 181.382 344.679 196.753 339.31 212.104C339.068 212.797 338.838 213.493 338.735 213.801C345.242 215.658 351.744 217.076 357.927 219.371C368.959 223.466 378.594 229.803 385.59 239.46C389.581 244.965 391.818 251.2 390.728 258.135C390.375 260.389 389.405 262.574 388.537 264.718C387.333 267.694 385.861 270.563 384.682 273.543C382.232 279.736 377.694 283.819 371.865 286.733C371.319 287.008 370.813 287.885 370.764 288.516C370.653 289.93 370.838 291.373 370.908 292.8C371.084 296.522 369.9 299.92 368.441 303.26C367.266 305.953 366.045 308.63 364.993 311.372C363.685 314.774 361.1 317.229 359.012 320.074C357.006 322.804 354.515 325.464 355.514 329.719C356.587 334.297 354.955 338.777 352.994 342.958C351.157 346.885 349.611 350.804 349.443 355.247C349.373 357.145 348.473 359.075 347.671 360.867C345.443 365.826 344.313 371.581 340.083 375.229C335.697 379.013 335.224 385.013 331.266 388.809C328.878 391.096 326.218 393.133 323.51 395.048C321.084 396.761 318.219 397.892 315.918 399.737C308.157 405.951 299.208 407.615 289.647 406.795C276.897 405.701 265.831 400.63 256.743 391.674C250.117 385.141 245.78 377.357 245.953 367.712C245.986 365.892 246.335 364.027 246.865 362.277C248.144 358.051 249.447 353.816 251.058 349.709C252.46 346.135 255.16 343.487 258.284 341.265C258.967 340.778 259.575 340.065 259.97 339.323C261.466 336.519 262.905 333.682 264.273 330.813C264.701 329.911 265.248 328.772 265.034 327.919C264.405 325.415 263.468 322.984 262.518 320.574C262.391 320.254 261.478 320.07 260.948 320.103C253.208 320.558 245.838 319.062 238.706 316.11C233.523 313.967 228.993 310.839 224.665 307.052C224.513 307.503 224.373 307.785 224.319 308.085C220.394 329.657 212.329 349.664 199.266 367.208C187 383.673 169.481 388.436 149.685 385.35C136.898 383.353 126.034 377.443 117.196 367.888C116.058 366.654 114.335 365.621 112.707 365.24C108.523 364.261 104.248 363.646 99.9938 362.99C95.8709 362.355 91.6783 362.088 87.6089 361.236C81.5459 359.965 77.5094 356.059 74.9239 350.533C73.0948 346.619 73.2962 342.704 74.8294 338.798C76.8435 333.658 80.3087 329.649 84.9782 326.784C88.1802 324.821 91.5221 323.054 94.9132 321.439C99.2498 319.373 101.104 316.18 101.054 311.335C100.98 304.047 101.404 296.755 101.613 289.475C99.817 290.332 97.7823 291.521 95.5997 292.316C81.4596 297.464 67.932 296.157 55.4567 287.68C48.6415 283.052 44.716 276.49 45.016 267.931C45.1352 264.533 44.7447 260.971 45.6367 257.774C46.9932 252.929 47.1042 247.994 47.9263 243.125C48.2592 241.149 49.2992 239.3 49.8911 237.357C50.1541 236.497 50.2692 235.521 50.1624 234.632C49.8212 231.742 49.0608 228.873 49.0032 225.983C48.9292 222.318 48.8265 218.49 49.7678 215.014C50.7378 211.444 50.1583 208.985 47.8852 206.173C45.8751 203.689 45.0571 200.381 45.127 197.11C45.2298 192.286 45.4764 187.461 45.8669 182.653C46.1177 179.562 46.7712 176.509 47.1823 173.43C48.1482 166.138 52.7273 161.511 58.6259 157.809C60.0604 156.908 61.4621 155.932 62.7939 154.883C68.6554 150.247 75.4295 147.861 82.738 146.869C94.9625 145.209 106.69 146.828 117.488 152.973C123.765 156.547 128.858 161.367 130.247 168.917C130.551 170.565 130.543 172.328 130.333 173.996C129.729 178.784 129.174 183.6 128.163 188.314C127.46 191.581 125.154 194.085 122.622 196.249C121.833 196.926 121.455 197.409 121.919 198.622C124.077 204.279 125.343 210.132 124.521 216.219C123.929 220.601 122.984 224.929 122.371 229.307C121.87 232.885 121.623 236.501 121.266 240.096C121.183 240.911 121.196 241.752 120.994 242.539C119.593 247.994 118.22 253.458 116.654 258.869C116.271 260.193 115.075 261.258 114.483 262.545C113.628 264.41 112.987 266.37 112.181 268.477C112.884 268.477 113.061 268.53 113.127 268.468C122.971 259.188 134.974 254.77 148.181 253.573C168.606 251.724 187.333 256.569 203.973 268.747C208.642 272.162 212.674 276.24 216.086 280.917C216.394 281.339 216.748 281.728 217.36 282.479L217.365 282.495ZM157.693 383.669C176.737 383.64 190.811 376.197 200.162 361.785C209.616 347.213 216 331.26 220.55 314.565C221.298 311.827 221.681 308.917 221.755 306.076C222.055 294.349 217.134 284.692 209.008 276.658C194.469 262.279 176.478 256.151 156.332 255.803C144.691 255.602 133.572 257.979 123.436 263.939C111.696 270.838 104.926 280.958 104.088 294.669C103.743 300.321 103.582 305.998 103.648 311.663C103.71 317.098 101.568 320.976 96.6807 323.402C93.6184 324.923 90.5561 326.468 87.5924 328.173C82.9558 330.834 79.3632 334.51 77.3327 339.528C76.0625 342.671 75.7049 345.869 77.123 349.09C79.2851 353.997 82.7092 357.596 88.1021 358.69C92.1099 359.506 96.208 359.912 100.282 360.383C108.675 361.354 117.336 361.625 122.725 369.741C133.223 379.037 145.595 383.423 157.689 383.673L157.693 383.669ZM288.283 234.267C289.898 230.414 292.307 227.331 295.632 225.401C300.516 222.568 305.625 220.089 310.779 217.765C318.174 214.432 326.062 213.661 334.082 214.071C335.414 214.141 336.001 213.768 336.437 212.51C341.9 196.77 347.354 181.022 352.949 165.327C356.143 156.367 354.396 148.386 348.596 141.139C340.124 130.547 328.541 124.915 315.901 121.021C315.794 120.989 315.65 121.091 315.309 121.194C313.998 125.928 312.654 130.769 311.256 135.798C325.133 140.122 336.692 146.964 341.456 161.933C342.077 160.986 342.397 160.162 342.997 159.678C343.556 159.228 344.407 159.142 345.131 158.891C345.131 159.613 345.402 160.511 345.073 161.023C344.157 162.445 343.125 163.843 341.9 165.003C337.785 168.893 332.659 170.848 327.234 171.93C310.072 175.349 293.709 172.586 278.064 165.122C270.682 161.601 264.097 157.002 259.571 149.972C257.688 147.046 256.406 143.893 256.628 140.344C256.665 139.745 257.417 139.196 257.84 138.622C258.28 139.192 258.88 139.7 259.119 140.344C259.37 141.028 259.275 141.84 259.341 142.709C261.454 140.852 263.147 138.999 265.178 137.651C270.143 134.355 275.807 132.744 281.677 132.605C287.876 132.457 294.095 133.072 300.306 133.29C300.98 133.314 302.156 133.076 302.283 132.695C303.787 128.108 305.132 123.473 306.5 118.923C306.192 118.71 306.089 118.587 305.966 118.566C292.607 116.14 279.342 116.07 266.472 120.931C257.429 124.35 250.655 130.232 248.378 140.069C244.083 158.637 239.849 177.222 235.734 195.831C235.109 198.651 234.842 201.688 235.138 204.554C236.112 213.957 241.44 220.953 248.432 226.852C248.982 227.315 250.092 227.422 250.861 227.27C257.483 225.987 264.051 226.237 270.645 227.54C276.823 228.762 282.553 231.111 288.279 234.267H288.283ZM356.093 275.728C366.176 275.391 373.888 273.981 380.6 269.108C388.665 263.25 390.124 254.966 386.618 246.617C383.63 239.497 378.286 234.164 372.034 229.787C360.841 221.945 348.341 217.588 334.707 216.744C324.924 216.137 315.457 217.199 306.998 222.929C299.87 227.758 297.322 235.853 299.956 243.752C302.197 250.462 306.595 255.741 311.996 260.02C325.45 270.682 340.938 275.699 356.089 275.728H356.093ZM303.187 155.235C307.047 141.282 310.771 127.834 314.52 114.283C311.503 114.758 309.924 116.082 309.098 119.046C305.991 130.162 302.538 141.18 299.208 152.235C298.999 152.923 298.752 153.604 298.501 154.358C297.609 153.878 296.923 153.505 296.237 153.137C297.93 147.476 299.587 141.934 301.272 136.302C300.692 136.13 300.314 135.97 299.928 135.909C292.512 134.704 285.081 134.363 277.645 135.704C271.512 136.811 266.024 139.225 261.556 143.721C260.34 144.947 260.151 145.943 261.034 147.451C264.167 152.788 268.626 156.76 273.867 159.875C287.876 168.212 303.08 171.672 319.317 170.52C325.507 170.082 331.48 168.676 336.971 165.585C338.743 164.589 339.277 163.491 338.632 161.462C336.897 155.998 333.572 151.677 329.371 147.935C323.999 143.147 317.553 140.483 310.545 138.364C309.312 142.811 308.021 146.98 307.043 151.222C306.574 153.255 305.395 154.256 303.179 155.235H303.187ZM96.6807 191.515C97.5686 191.515 98.4647 191.585 99.3484 191.503C107.894 190.744 115.938 188.605 122.519 182.727C127.797 178.017 129.745 170.766 125.803 164.261C122.215 158.338 116.711 154.891 110.5 152.473C100.479 148.57 90.1122 147.816 79.614 150.058C72.6837 151.538 66.3741 154.288 61.5402 159.822C58.2559 163.581 57.1707 169.623 59.115 174.193C61.0798 178.804 64.4915 182.087 68.6102 184.637C77.1888 189.949 86.6881 191.818 96.6807 191.507V191.515ZM225.54 67.727C234.164 67.6369 242.648 66.8048 250.4 62.5911C258.215 58.3446 260.311 50.905 253.734 44.1745C250.265 40.6249 246.13 38.1122 241.633 36.2554C228.541 30.853 214.948 29.2749 200.968 31.6728C195.743 32.5664 190.741 34.2264 186.445 37.5179C182.598 40.4691 180.572 45.0107 182.939 49.9581C184.781 53.8029 187.921 56.4386 191.436 58.6028C201.876 65.0258 213.476 67.2516 225.532 67.727H225.54ZM319.81 100.478C320.899 100.596 321.713 100.863 322.47 100.744C330.917 99.4364 339.392 98.2723 347.786 96.6655C355.711 95.153 363.209 92.46 369.411 86.9633C376.346 80.819 375.725 70.7807 368.112 65.5382C362.325 61.5581 355.83 60.7834 349.089 61.1974C343.856 61.5171 338.768 62.5952 334.189 65.2923C327.653 69.1412 323.292 74.7567 321.187 82.0118C319.921 86.3731 318.935 90.8163 317.845 95.1243C321.097 96.9975 321.754 98.5797 319.814 100.469L319.81 100.478ZM279.499 248.146C280.839 246.691 282.142 245.018 283.704 243.637C285.323 242.206 286.121 240.469 286.766 238.481C287.272 236.919 286.786 236.226 285.438 235.673C281.965 234.242 278.607 232.435 275.026 231.365C264.882 228.327 254.655 227.721 244.658 231.971C239.668 234.095 235.64 237.325 234.115 242.928C232.273 249.683 234.904 255.122 239.113 260.029C244.724 266.566 252.09 270.481 260.208 272.879C264.471 274.137 268.963 274.613 273.69 275.502C273.485 273.432 273.23 272.022 273.238 270.612C273.242 269.137 273.497 267.665 273.662 266.009C271.524 266.341 271.734 264.615 271.426 263.48C271.002 261.894 270.332 261.033 268.507 261.775C268.811 263.054 269.116 264.349 269.42 265.644C265.745 266.464 265.511 266.374 264.532 263.041C264.191 261.877 263.681 261.385 262.411 261.463C260.516 261.578 258.605 261.492 256.513 261.492V257.692C257.738 257.594 258.848 257.508 260.155 257.401C259.098 253.802 258.038 250.495 257.183 247.133C256.747 245.424 255.814 244.805 254.141 244.777C251.338 244.727 251.173 244.502 251.12 241.395H257.927C257.614 239.944 257.351 238.731 257.092 237.513C260.771 236.943 260.866 236.915 261.803 240.022C262.333 241.78 263.324 241.223 264.438 241.075C264.125 239.78 263.858 238.681 263.595 237.583C267.167 236.812 267.43 236.89 268.306 239.927C268.659 241.153 269.259 241.448 270.451 241.559C272.071 241.711 273.707 242.063 275.244 242.592C277.916 243.514 279.622 245.293 279.499 248.146ZM382.861 270.784C381.11 271.924 379.819 272.973 378.36 273.682C370.336 277.572 361.77 278.732 352.969 278.212C340.658 277.482 329.133 273.977 318.524 267.718C312.185 263.976 306.332 259.529 302.225 253.298C299.989 249.9 298.242 246.182 296.397 242.83C294.896 245.904 294.576 252.105 295.834 255.811C298.168 262.685 302.472 268.21 308.021 272.698C318.54 281.212 330.654 286.086 344.103 287.696C353.364 288.807 362.424 288.172 370.982 284.2C376.654 281.569 380.797 277.4 382.857 270.788L382.861 270.784ZM303.311 113.811C304.827 113.631 307.302 113.479 309.711 113.012C313.398 112.295 314.804 110.663 315.321 106.978C315.474 105.896 315.585 104.806 315.79 103.732C316.234 101.445 315.268 99.9611 313.299 98.879C304.457 93.9971 295.036 90.7836 285.089 89.1481C280.012 88.316 274.887 87.7626 269.798 89.2137C266.986 90.0171 265.979 91.7099 267.278 94.3086C268.54 96.8377 269.954 99.4774 271.927 101.441C280.296 109.758 290.691 113.401 303.311 113.807V113.811ZM175.199 105.511C173.995 106.409 173.062 107.089 172.145 107.794C166.929 111.811 165.942 118.3 169.58 123.817C172.301 127.949 176.087 130.867 180.382 133.035C192.784 139.303 205.884 141.065 219.502 138.237C224.574 137.184 229.355 135.265 233.083 131.466C234.197 130.33 234.999 128.891 235.944 127.588C233.843 127.653 232.207 128.125 230.539 128.424C216.608 130.945 203.212 129.178 190.556 122.895C183.276 119.279 177.139 114.352 175.199 105.503V105.511ZM180.748 52.9135C179.478 57.4346 179.495 62.0623 181.698 64.7348C183.963 67.4852 186.503 70.2274 189.463 72.1621C198.925 78.3474 209.641 80.7412 220.805 81.2453C229.712 81.647 238.402 80.7207 246.582 76.7078C252.583 73.7648 255.173 68.8829 255.514 62.3123C255.033 62.6157 254.663 62.8944 254.26 63.0993C251.354 64.5832 248.563 66.3949 245.509 67.4565C236.273 70.666 226.687 70.8668 217.097 69.7068C207.647 68.5673 198.481 66.194 190.42 60.9228C186.935 58.6397 183.946 55.5983 180.752 52.9135H180.748ZM277.032 264.005C274.887 270.12 275.832 275.842 278.623 281.204C282.203 288.078 287.707 293.349 294.21 297.419C306.48 305.092 319.876 308.884 334.427 307.716C341.633 307.138 348.444 305.076 354.022 300.235C356.661 297.94 358.815 295.157 359.637 291.242C359.073 291.603 358.786 291.767 358.519 291.963C352.328 296.472 345.217 298.165 337.732 298.645C327.151 299.325 317.023 297.362 307.29 293.279C296.265 288.66 286.766 282.097 280.51 271.641C279.125 269.325 278.245 266.71 277.032 264.005ZM254.17 88.0783C253.833 88.2422 253.57 88.3201 253.376 88.4759C248.756 92.1772 243.314 93.9069 237.6 94.9194C225.606 97.0467 213.854 95.8048 202.382 91.9559C197.248 90.2343 192.307 87.9553 188.172 84.3605C185.891 82.3766 183.881 80.0812 181.636 77.8145C180.604 82.4176 180.485 86.7625 183.502 90.8204C186.618 95.0096 190.774 97.805 195.349 100.039C203.525 104.027 212.251 105.925 221.302 106.224C230.021 106.515 238.525 105.523 246.327 101.178C251.42 98.342 253.845 93.9233 254.162 88.0742L254.17 88.0783ZM236.47 138.405C234.316 144.771 229.441 148.394 223.53 150.632C211.75 155.092 199.751 154.735 187.859 151.165C183.128 149.747 178.644 147.509 174.048 145.64C174.258 146.14 174.5 146.959 174.916 147.681C177.637 152.399 181.772 155.612 186.491 158.096C196.187 163.199 206.587 165.146 217.463 164.237C224.64 163.638 231.48 161.896 237.033 156.817C242.414 151.895 242.241 143.357 236.474 138.401L236.47 138.405ZM362.317 306.601C361.577 307.08 361.112 307.453 360.59 307.703C357.462 309.208 354.453 311.147 351.161 312.085C341.9 314.725 332.512 314.463 323.14 312.364C316.555 310.892 310.451 308.203 304.285 305.539C295.55 301.764 287.707 296.882 281.361 289.742C281.019 289.361 280.613 289.037 280.234 288.688C280.07 288.775 279.906 288.856 279.741 288.943C280.633 291.332 281.262 293.865 282.466 296.087C286.116 302.834 291.468 308.126 297.881 312.212C309.797 319.803 322.84 323.583 337.058 322.57C344.432 322.046 351.362 319.967 357.006 314.963C359.419 312.823 361.507 310.253 362.321 306.601H362.317ZM248.67 109.454C237.485 117.595 224.772 118.353 211.778 116.476C198.83 114.607 186.848 110.393 178.377 99.1618C178.2 102.113 177.994 105.015 178.66 107.704C179.766 112.168 183.186 115.078 186.783 117.652C191.629 121.12 197.071 123.366 202.822 124.784C214.409 127.641 225.984 128.141 237.333 123.682C243.803 121.14 248.374 116.951 248.666 109.446L248.67 109.454ZM342.866 337.121C342.43 337.339 342.179 337.425 341.982 337.572C334.127 343.389 325.055 344.721 315.667 344.225C304.807 343.651 294.699 340.368 285.508 334.502C276.712 328.887 269.588 321.837 266.304 311.597C266.148 311.114 265.881 310.667 265.663 310.204C265.054 311.839 264.693 313.438 264.701 315.032C264.734 321.919 267.702 327.678 271.96 332.854C277.748 339.884 285.146 344.68 293.569 347.975C304.425 352.226 315.543 353.583 326.938 350.517C331.204 349.369 335.146 347.311 338.307 344.209C340.243 342.307 342.212 340.224 342.862 337.121H342.866ZM183.063 70.7357C182.627 73.3918 183.687 75.3675 184.908 77.2079C188.04 81.9217 192.652 84.8483 197.642 87.2134C206.25 91.2877 215.416 93.1527 224.874 93.3167C233.28 93.4643 241.571 92.5256 249.093 88.2791C252.715 86.2337 255.654 83.5653 256.283 79.1549C256.579 77.0726 256.447 75.0518 255.214 73.2893C254.256 74.1706 253.508 74.8592 252.756 75.5437C248.477 79.4705 243.219 81.5364 237.683 82.5488C220.114 85.7706 203.348 83.5612 187.827 74.2812C186.219 73.318 184.801 72.0391 183.067 70.7316L183.063 70.7357ZM166.633 186.768C169.144 192.24 173.341 195.835 178.29 198.655C185.451 202.738 193.248 204.701 201.424 204.943C209.119 205.168 216.53 203.914 223.226 199.688C230.896 194.847 232.236 185.047 226.223 178.898C224.862 181.128 223.756 183.67 222.013 185.662C218.043 190.199 212.674 192.466 206.891 193.724C196.656 195.954 186.598 195.106 176.823 191.437C173.403 190.154 170.164 188.404 166.629 186.768H166.633ZM277.39 292.07C276.14 296.489 276.218 300.555 277.587 304.629C280.563 313.499 286.819 319.689 294.362 324.673C302.826 330.264 312.202 333.531 322.35 334.461C330.686 335.228 338.776 334.379 346.224 330.305C348.921 328.829 351.58 327.091 353.134 323.89C352.431 324.144 351.925 324.292 351.449 324.505C344.247 327.702 336.68 328.317 328.944 327.661C318.528 326.78 308.975 323.378 299.965 318.123C292.015 313.483 285.245 307.707 280.674 299.661C279.375 297.374 278.561 294.812 277.394 292.066L277.39 292.07ZM234.46 134.023C223.559 142.307 211.199 143.238 198.539 141.414C185.821 139.581 174.139 135.286 166.041 124.075C165.918 126.764 165.807 129.437 166.407 131.941C167.484 136.429 170.715 139.581 174.398 141.971C189.442 151.727 205.641 153.932 222.638 148.14C229.063 145.951 233.963 141.791 234.452 134.023H234.46ZM339.388 336.585L339.117 336.027C338.986 336.011 338.85 335.957 338.727 335.982C337.987 336.117 337.247 336.261 336.511 336.421C329.63 337.917 322.724 337.544 315.918 336.187C304.988 334.006 295.057 329.506 286.692 322.066C279.56 315.721 274.18 308.253 273.912 298.247C273.838 295.505 274.55 292.742 274.891 290.07C269.062 294.3 266.386 303.207 268.618 310.355C271.565 319.795 277.945 326.436 285.927 331.715C294.888 337.638 304.819 340.917 315.56 341.626C321.06 341.991 326.523 341.524 331.788 339.872C334.406 339.048 336.86 337.699 339.388 336.589V336.585ZM57.7298 177.894C57.516 182.239 58.4286 185.797 60.7345 188.924C65.6918 195.643 72.733 199.123 80.5717 201.152C91.0987 203.877 101.572 203.664 111.807 199.766C117.073 197.758 121.722 194.774 124.71 189.838C126.05 187.621 126.979 185.153 126.691 182.231C112.576 199.053 71.9068 198.627 57.7298 177.894ZM171.935 148.107C171.767 149.32 171.611 150.095 171.557 150.874C171.08 157.555 174.665 162.257 179.626 165.86C191.723 174.644 205.366 177.095 219.962 174.664C225.565 173.73 230.773 171.742 234.892 167.598C237.161 165.315 238.443 162.601 238.579 159.207C227.793 167.282 215.692 168.225 203.224 166.229C190.757 164.232 179.491 159.703 171.935 148.111V148.107ZM266.879 344.364C266.736 344.381 266.592 344.397 266.444 344.413C266.719 346.623 266.752 348.902 267.319 351.037C269.823 360.506 276.001 367.306 283.848 372.717C291.999 378.332 301.07 381.624 310.964 382.39C320.312 383.116 329.108 381.546 336.548 375.336C338.611 373.614 340.124 371.434 341.181 368.954C334.361 373.75 326.745 375.459 318.626 375.516C312.892 375.557 307.314 374.61 301.864 372.901C290.038 369.196 280.148 362.678 272.692 352.71C270.661 349.996 268.811 347.152 266.875 344.368L266.879 344.364ZM223.432 176.582C222.597 177.042 222.096 177.247 221.676 177.558C217.702 180.509 213.221 182.26 208.404 183.268C199.92 185.047 191.481 184.6 183.174 182.391C175.191 180.267 167.87 176.792 162.255 170.471C161.108 169.18 160.188 167.692 159.164 166.294C158.983 166.331 158.802 166.368 158.622 166.405C158.724 168.327 158.539 170.315 158.979 172.156C160.582 178.878 165.585 182.821 171.183 186.055C178.253 190.138 186.034 191.995 194.144 192.277C201.991 192.548 209.612 191.441 216.39 187.096C220.069 184.739 222.79 181.624 223.432 176.582ZM48.0784 195.995C47.8769 196.052 47.6714 196.11 47.47 196.167C47.8934 198.139 48.066 200.209 48.7895 202.066C51.4531 208.899 57.0433 212.756 63.4269 215.58C71.1012 218.974 79.2235 220.019 87.5226 219.22C95.4887 218.453 102.962 216.191 109.041 210.632C111.589 208.3 113.431 205.521 114.278 201.533C112.761 202.299 111.639 202.861 110.521 203.435C107.245 205.111 104.067 207.034 100.676 208.419C95.1023 210.698 89.1626 211.469 83.1737 211.362C71.7219 211.161 61.0716 208.464 52.2793 200.631C50.7296 199.25 49.4677 197.549 48.0742 195.995H48.0784ZM120.041 217.06C110.533 227.122 98.7771 229.922 85.9482 229.147C73.0701 228.368 61.6676 224.171 53.4138 213.387C53.5453 215.383 53.6809 217.301 54.3263 219.031C56.9734 226.102 62.5473 230.295 69.1775 233.185C79.1618 237.538 89.549 238.267 100.109 235.751C105.769 234.402 110.956 231.926 115.108 227.729C117.903 224.901 119.654 221.503 120.045 217.064L120.041 217.06ZM215.157 178.882C215.112 178.632 215.067 178.378 215.022 178.128C214.068 178.128 213.114 178.116 212.161 178.128C199.776 178.308 188.217 175.541 178.188 168.028C172.515 163.782 168.433 158.432 168.939 150.78C169.029 149.435 169.227 148.099 169.449 146.066C167.43 147.537 165.741 148.542 164.331 149.849C160.628 153.28 159.16 157.498 160.636 162.441C162.44 168.491 167.019 172.209 172.199 175.152C181.764 180.587 192.196 182.489 203.076 181.444C207.15 181.054 211.137 179.759 215.161 178.878L215.157 178.882ZM259.859 349.791C259.653 350.837 259.361 351.669 259.341 352.505C259.238 356.874 260.118 361.067 262.078 364.974C265.934 372.655 271.89 378.369 279.256 382.657C291.123 389.559 303.722 392.383 317.282 388.916C320.813 388.014 324.221 386.587 327.332 383.468C326.021 383.722 325.289 383.833 324.57 384.009C319.387 385.28 314.158 385.403 308.876 384.768C300.774 383.796 293.088 381.386 285.763 377.91C276.49 373.508 268.676 367.347 263.649 358.198C262.226 355.608 261.199 352.8 259.859 349.791ZM227.649 199.643C217.418 207.652 205.905 208.751 193.959 206.747C181.981 204.734 171.389 199.992 164.421 188.703C164.311 189.625 164.245 190.007 164.22 190.392C163.83 196.897 167.151 201.578 171.874 205.46C177.83 210.358 184.822 213.096 192.36 214.297C202.312 215.883 212.066 215.465 220.871 209.808C224.455 207.509 227.09 204.381 227.649 199.643ZM347.424 349.918C347.235 349.75 347.042 349.582 346.853 349.414C343.125 352.206 338.965 353.989 334.439 355.034C328.557 356.386 322.65 356.612 316.698 355.743C313.521 355.28 310.36 354.669 307.183 354.218C296.023 352.648 285.96 348.521 277.139 341.479C276.103 340.651 275.076 339.81 274.044 338.978C275.762 343.114 278.615 346.295 281.792 349.185C287.062 353.976 293.108 357.551 299.784 360.03C310.237 363.916 320.908 365.179 331.796 362.137C336.125 360.928 340.075 358.809 343.195 355.505C344.79 353.816 346.031 351.792 347.433 349.922L347.424 349.918ZM213.698 232.086C211.096 232.906 209.065 233.718 206.953 234.181C194.28 236.956 182.298 234.996 171.117 228.512C166.189 225.651 162.111 221.794 159.674 216.535C158.819 214.686 158.416 212.633 157.758 210.509C155.132 213.883 154.421 217.527 155.317 221.441C156.743 227.676 161.026 231.824 166.218 234.951C176.831 241.338 188.316 243.162 200.405 240.284C205.465 239.079 209.994 236.747 213.698 232.086ZM312.773 399.278C307.096 398.917 302.131 398.536 297.157 398.298C288.632 397.896 280.456 396.105 272.856 392.17C264.438 387.817 257.24 382.054 252.653 373.573C251.247 370.97 250.191 368.179 248.929 365.371C248.797 365.908 248.645 366.359 248.584 366.818C248.522 367.29 248.534 367.769 248.538 368.249C248.575 376.939 252.554 383.923 258.502 389.797C267.451 398.638 278.401 403.397 290.959 404.336C295.838 404.701 300.696 404.213 305.345 402.647C307.758 401.835 310.011 400.553 312.777 399.278H312.773ZM222.581 217.765C212.526 225.782 201.251 226.967 189.491 224.921C177.793 222.888 167.578 218.064 160.907 207.034C160.077 214.182 163.135 219.261 167.998 222.999C181.287 233.213 196.068 235.673 211.856 229.754C217.081 227.795 221.237 224.2 222.577 217.765H222.581ZM53.015 249.58C52.8465 249.65 52.678 249.716 52.5053 249.785C52.8506 251.29 53.0438 252.851 53.57 254.29C55.9746 260.861 60.9688 265.021 67.0565 267.89C76.5599 272.371 86.5278 273.211 96.7054 270.649C102.44 269.206 107.594 266.595 111.548 262.025C113.669 259.574 115.1 256.803 115.679 253.142C106.719 262.812 95.6325 265.779 83.3627 264.992C71.1217 264.21 60.4509 259.996 53.015 249.576V249.58ZM179.963 91.3574C179.371 93.8906 180.346 96.3253 181.809 98.5961C184.801 103.232 189.224 106.191 194.062 108.561C202.308 112.602 211.125 114.475 220.25 114.648C228.459 114.799 236.544 113.836 243.82 109.548C246.837 107.77 249.443 105.552 250.347 102.064C247.544 103.392 244.868 104.925 242.007 105.97C233.124 109.212 223.896 109.483 214.643 108.302C205.461 107.126 196.619 104.63 188.941 99.2561C185.693 96.9852 182.943 94.0094 179.963 91.3574ZM283.313 247.732C283.506 247.658 283.367 247.679 283.268 247.756C283.108 247.879 282.943 248.019 282.832 248.187C279.388 253.311 278.401 258.856 280.3 264.747C283.408 274.383 290.441 280.769 298.658 286.004C305.822 290.57 313.714 293.496 322.054 295.07C330.547 296.673 339.064 296.726 347.478 294.456C348.982 294.05 350.404 293.353 351.757 292.832C347.063 293.111 342.336 293.882 337.683 293.578C319.707 292.402 303.771 286.311 291.3 272.862C287.074 268.304 283.893 263.009 283.354 256.614C283.108 253.671 283.313 250.691 283.313 247.732ZM153.656 226.208C153.73 227.536 153.636 228.897 153.907 230.184C155.284 236.747 159.686 241.059 165.12 244.395C173.756 249.695 183.252 251.618 193.273 250.515C199.854 249.794 205.995 247.752 210.619 242.637C212.198 240.891 213.48 238.923 213.747 236.197C204.121 244.137 193.166 245.371 181.743 243.42C170.267 241.456 160.286 236.657 153.652 226.212L153.656 226.208ZM287.021 246.826C284.624 253.474 285.652 259.41 288.792 265.017C292.553 271.727 298.177 276.732 304.63 280.732C314.693 286.971 325.746 290.295 337.563 291.049C339.972 291.201 342.397 291.07 344.818 291.07C344.859 290.857 344.905 290.644 344.946 290.43C317.229 287.18 297.963 272.731 287.021 246.826ZM276.572 285.012C276.699 284.745 276.823 284.475 276.95 284.208C276.317 282.581 275.61 280.978 275.068 279.326C274.693 278.183 274.036 277.814 272.856 277.654C268.729 277.088 264.532 276.699 260.529 275.625C252.217 273.399 244.596 269.657 238.69 263.238C235.964 260.279 233.823 256.79 231.455 253.593C231.381 254.376 231.139 255.549 231.18 256.713C231.414 263.984 235.43 269.247 240.663 273.699C247.334 279.372 255.206 282.663 263.784 284.073C267.985 284.766 272.305 284.725 276.572 285.016V285.012ZM51.8107 228.233C51.6586 233.418 53.9769 237.505 57.4544 240.948C62.6254 246.068 69.0624 248.826 76.1242 250.175C87.0499 252.257 97.4987 251.122 107.175 245.256C109.777 243.678 112.165 241.178 112.769 239.366C102.555 245.145 91.6413 246.416 80.358 244.104C69.2679 241.829 58.7985 238.169 51.8107 228.233ZM62.0417 218.064C61.9965 218.133 61.9512 218.203 61.906 218.277C62.6665 218.814 63.4105 219.38 64.1956 219.884C68.9843 222.954 74.2334 224.901 79.8154 225.852C91.0822 227.77 101.967 226.815 111.906 220.683C116.321 217.961 119.712 214.231 120.78 208.915C121.471 205.484 121.064 202.201 119.26 199.139C117.188 200.028 117.213 200.033 116.937 201.766C116.822 202.5 116.633 203.234 116.395 203.939C113.846 211.489 108.038 215.789 101.054 218.613C91.1768 222.609 80.9458 223.056 70.6038 220.601C67.71 219.912 64.8943 218.92 62.0417 218.064ZM105.637 277.921C96.6478 284.942 86.3881 287.123 75.298 285.852C64.212 284.581 54.7127 280.261 47.8687 270.489C47.8687 271.276 47.8358 271.547 47.8728 271.809C48.6785 277.769 52.0367 282.261 56.7926 285.475C69.2556 293.898 82.5818 294.767 96.4793 289.262C101.708 287.192 104.499 283.294 105.637 277.921ZM56.4144 243.744C56.7391 244.617 56.8296 245.08 57.0639 245.453C59.0903 248.671 61.6635 251.368 64.8491 253.47C71.1711 257.643 78.1794 259.754 85.7016 260.098C96.3067 260.586 106.098 258.479 114.019 250.769C116.271 248.576 118.446 243.924 118.236 241.407C110.192 250.433 99.5005 252.954 88.1186 253.602C76.5352 254.261 65.959 251.359 56.4144 243.744ZM223.81 211.12C213.049 218.092 201.806 218.896 190.198 216.477C178.582 214.055 168.553 209.042 162.374 198.09C162.276 199.844 162.235 201.541 162.584 203.152C163.501 207.419 166.057 210.817 169.424 213.334C182.947 223.462 197.815 225.93 213.797 220.167C218.01 218.646 221.52 215.932 223.81 211.12ZM270.369 290.336C266.296 289.664 261.984 289.275 257.853 288.205C244.757 284.823 233.946 278.298 227.723 265.009C227.563 266.386 227.345 267.349 227.353 268.304C227.415 275.424 231.196 280.769 236.211 285.184C244.498 292.48 254.445 296.009 265.42 296.731C265.95 296.763 266.74 296.378 267.027 295.939C268.244 294.083 269.317 292.132 270.369 290.336ZM336.659 363.232C322.334 368.495 308.724 366.925 295.48 360.99C282.224 355.046 272.005 346.053 267.364 331.649C267.278 333.789 267.364 335.814 267.788 337.765C269.42 345.303 273.937 351.066 279.593 356.001C288.34 363.637 298.604 367.909 310.122 369.327C316.045 370.056 321.898 369.696 327.587 368.023C330.74 367.097 333.897 365.892 336.663 363.236L336.659 363.232ZM222.618 293.078C223.144 295.542 223.863 297.53 223.933 299.538C224.048 302.695 225.844 304.633 228.007 306.507C234.382 312.02 241.822 315.364 250.047 316.819C253.956 317.512 257.997 317.471 262.189 317.779V311.282C246.549 310.888 233.017 305.806 222.618 293.078ZM222.277 272.178C222.178 272.625 222.022 273.059 221.997 273.498C221.681 278.753 223.485 283.401 226.798 287.282C236.063 298.141 248.275 302.604 262.267 302.805C265.137 302.846 265.215 302.584 265.33 299.465C246.409 297.714 231.899 289.025 222.277 272.178ZM49.5746 184.19C49.5746 184.711 49.5499 185.227 49.5746 185.744C49.9938 192.863 54.1824 197.622 59.859 201.102C71.4999 208.243 84.1355 209.345 97.2808 206.509C98.0577 206.341 98.7976 205.992 99.5539 205.726C98.4688 205.435 97.5151 205.398 96.5656 205.439C89.0845 205.763 81.883 204.529 74.8006 202.07C67.969 199.701 62.7569 194.856 56.9159 190.998C54.1989 189.207 52.0614 186.539 49.5746 184.19ZM49.8582 256.45C50.1788 257.832 50.372 259.254 50.8365 260.586C53.0931 267.083 57.96 271.247 63.9202 274.043C75.261 279.359 86.8772 279.736 98.5798 275.055C101.589 273.85 104.577 271.772 105.268 270.6C83.8272 278.375 64.8902 275.769 49.8582 256.454V256.45ZM257.849 344.733C256.636 346.184 255.202 347.504 254.248 349.107C250.216 355.878 250.376 362.941 253.578 369.901C257.684 378.824 264.808 384.882 273.271 389.526C274.229 390.051 275.261 390.436 276.264 390.879C277.18 391.281 278.101 391.674 279.018 392.072C261.01 381.16 253.619 365.757 257.849 344.737V344.733ZM263.887 374.049C265.342 375.865 267.327 379.021 269.954 381.505C281.069 392.019 294.309 397.245 309.719 396.273C316.493 395.847 322.724 393.634 327.789 388.936C329.272 387.559 330.358 385.747 331.624 384.136L331.258 383.792C323.51 391.281 313.944 393.564 303.639 392.924C290.659 392.121 279.199 387.333 269.428 378.66C267.332 376.799 265.12 375.074 263.887 374.053V374.049ZM367.911 288.631C364.376 288.533 362.724 290.398 361.647 293.562C359.468 299.961 354.597 303.928 348.621 306.699C342.821 309.384 336.68 310.474 330.3 310.638C330.925 310.909 331.554 311.089 332.199 311.147C338.39 311.688 344.547 311.356 350.503 309.597C355.386 308.154 359.904 305.92 363.377 301.969C366.744 298.132 368.306 293.73 367.911 288.635V288.631ZM47.8852 261.795C48.1606 263.103 48.3085 264.451 48.736 265.706C50.9804 272.28 55.8718 276.51 61.8814 279.355C73.2674 284.737 84.9658 285.167 96.6889 280.368C99.6115 279.171 102.435 277.617 104.856 274.682C102.661 275.814 101.009 276.793 99.258 277.543C91.5591 280.839 83.4861 281.679 75.3103 280.273C63.5543 278.253 53.6028 273.338 47.8893 261.799L47.8852 261.795ZM121.031 224.38C120.411 225.159 120.049 225.548 119.757 225.987C115.157 232.898 108.285 236.411 100.536 238.296C89.4257 240.997 78.5165 240.055 67.9895 235.509C66.2714 234.767 64.6477 233.804 62.9789 232.943C62.8473 233.099 62.7158 233.254 62.5843 233.41C62.9336 233.603 63.3241 233.742 63.6324 233.992C68.5856 237.989 74.3197 240.305 80.4977 241.501C91.4604 243.625 102.049 242.752 111.795 236.829C116.358 234.058 119.646 230.18 121.035 224.376L121.031 224.38ZM327.756 353.361C328.376 353.394 328.718 353.468 329.042 353.423C333.815 352.763 338.476 351.615 342.648 349.172C347.457 346.356 351.025 342.368 352.493 336.871C353.158 334.371 353.417 331.772 352.789 329.083C349.525 330.854 347.161 332.957 346.097 336.445C344.448 341.86 341.07 346.106 336.219 349.037C333.617 350.611 330.793 351.824 327.756 353.357V353.361ZM221.981 285.102L221.524 285.34C222.918 287.783 223.982 290.492 225.754 292.623C234.818 303.535 246.931 308.035 260.784 308.564C263.25 308.658 263.57 308.134 263.472 305.597C246.475 305.109 231.928 299.743 221.985 285.102H221.981ZM292.2 252.04C292.714 242.907 295.813 234.562 299.496 226.221C290.354 230.484 286.145 241.624 292.2 252.04ZM56.4432 187.084C54.0468 179.038 55.0826 170.942 56.2788 162.859C47.0302 169.545 48.4319 181.399 56.4432 187.084ZM312.777 372.745C315.971 372.745 319.177 372.905 322.363 372.713C329.453 372.286 335.956 370.102 341.242 365.236C343.91 362.781 345.829 359.698 346.405 355.8C339.023 369.208 326.782 372.59 312.777 372.749V372.745ZM265.663 252.319C266.23 254.229 266.46 255.376 266.929 256.422C267.151 256.918 267.813 257.549 268.277 257.553C270.246 257.561 272.239 257.479 274.18 257.168C274.981 257.041 275.68 256.249 276.424 255.762C275.783 255.044 275.244 253.86 274.476 253.688C271.742 253.069 268.931 252.794 265.667 252.319H265.663ZM266.855 358.026C264.171 351.812 263.168 345.5 264.878 338.876C265.124 337.925 264.82 336.83 264.758 335.445C260.816 341.052 261.885 351.701 266.859 358.026H266.855ZM263.303 245.027C263.969 246.711 264.191 248.191 265.026 249.125C265.926 250.134 271.056 248.974 272.4 247.646C270.229 244.301 266.855 245.244 263.307 245.027H263.303ZM224.352 268.485C225.183 264.726 225.927 261.34 226.675 257.955C224.439 261.004 223.876 264.402 224.352 268.485Z" fill="white"/>
<path d="M167.399 339.785C153.176 339.384 137.889 335.129 124.925 324.5C117.834 318.688 112.585 311.359 109.474 302.674C108.816 300.841 108.619 298.816 108.43 296.861C108.384 296.386 109.215 295.828 109.638 295.304C110.065 295.755 110.793 296.152 110.883 296.665C113.411 310.941 122.068 320.906 134.198 327.714C152.847 338.183 172.578 340.404 192.949 332.895C199.201 330.591 204.676 326.948 208.882 321.697C210.32 319.901 211.422 317.827 212.556 315.811C213.058 314.921 213.477 313.851 214.579 314.565C215.023 314.852 215.191 316.311 214.87 316.897C213.555 319.274 212.207 321.689 210.493 323.783C206.432 328.747 201.174 332.178 195.329 334.735C187.17 338.306 178.591 339.777 167.399 339.781V339.785Z" fill="white"/>
<path d="M85.8203 350.664C86.6136 348.967 87.0699 347.336 88.0235 346.073C92.4629 340.167 98.6985 337.318 105.834 336.236C108.379 335.851 110.759 336.597 112.678 338.326C113.106 338.712 113.028 339.659 113.184 340.347C112.489 340.335 111.745 340.47 111.112 340.269C110.286 340.007 109.587 339.355 108.761 339.076C106.595 338.347 106.167 338.617 105.567 340.851C104.47 344.909 99.2739 348.77 94.3372 349.164C93.5234 349.23 92.6807 349.275 91.8792 349.152C90.0459 348.877 88.5373 348.811 88.8251 351.431C88.8621 351.775 87.9578 352.218 87.4892 352.615C86.9713 352.009 86.4533 351.398 85.8244 350.664H85.8203ZM91.1763 346.221C96.4459 347.475 103.134 343.511 102.743 339.466C98.4559 340.843 94.477 342.643 91.1763 346.221Z" fill="white"/>
<path d="M356.007 242.235C357.968 243.395 360.093 244.202 361.622 245.641C365.51 249.306 364.195 253.88 359.032 255.118C357.314 255.532 355.53 255.663 353.594 255.954C354.182 257.462 354.766 258.954 355.341 260.43C352.316 261.824 350.548 261.233 349.496 258.495C348.855 256.819 348.296 255.216 345.772 256.175C346.216 257.29 346.651 258.418 347.108 259.532C347.49 260.463 347.252 260.893 346.191 261.016C343.088 261.377 342.459 261.217 341.55 258.278C340.897 256.155 339.783 255.556 337.719 255.729C335.886 255.884 334.028 255.741 332.178 255.716C332.055 255.716 331.932 255.622 331.813 255.569C331.086 252.945 332.281 251.474 335.397 251.154C335.011 250.056 334.673 248.994 334.267 247.957C333.099 244.973 331.821 242.026 330.744 239.005C330.086 237.16 328.874 236.492 327.02 236.468C323.764 236.431 323.768 236.394 322.967 232.721H331.101C330.518 230.983 330.053 229.618 329.593 228.241C333.436 227.257 334.156 227.503 335.331 230.721C335.931 232.369 336.823 232.816 338.566 232.234C338.102 230.93 337.637 229.631 337.033 227.938C338.615 227.938 339.902 227.782 341.123 228.008C341.649 228.106 342.282 228.922 342.438 229.52C343.051 231.901 344.419 232.828 346.931 232.963C350.088 233.131 353.158 234.012 355.423 236.517C357.256 238.542 357.359 240.054 356.003 242.223L356.007 242.235ZM341.435 245.313C342.294 247.42 342.899 249.064 343.647 250.638C343.815 250.994 344.485 251.326 344.917 251.314C347.165 251.257 349.434 251.216 351.654 250.896C352.62 250.757 353.491 249.97 354.404 249.474C353.697 248.617 353.06 247.682 352.254 246.928C351.843 246.543 351.144 246.363 350.552 246.289C347.667 245.94 344.769 245.662 341.431 245.309L341.435 245.313ZM337.871 236.582C338.578 238.316 339.018 239.595 339.635 240.784C339.857 241.214 340.502 241.702 340.946 241.698C342.845 241.677 344.752 241.571 346.631 241.309C347.264 241.222 348.32 240.554 348.304 240.202C348.267 239.517 347.728 238.718 347.161 238.247C346.569 237.751 345.731 237.398 344.958 237.292C342.751 236.984 340.523 236.837 337.876 236.582H337.871Z" fill="white"/>
<path d="M118.516 166.934C118.524 172.311 115.717 175.681 111.734 178.202C105.79 181.96 99.1308 183.059 92.2417 182.653C85.4429 182.251 79.01 180.505 73.4896 176.259C71.4221 174.668 69.6669 172.816 68.5488 170.045C70.1889 169.766 71.6399 169.467 73.1074 169.311C73.4567 169.274 73.9911 169.639 74.2172 169.971C77.8796 175.32 83.4411 177.333 89.4342 178.247C95.4191 179.161 101.338 178.652 106.809 175.714C110.837 173.545 112.116 171.799 113.476 166.938H118.516V166.934Z" fill="white"/>
<path d="M81.6042 168.794C80.2765 168.257 78.6529 167.868 77.3417 167.007C75.233 165.622 75.3933 162.892 77.5718 161.617C80.2683 160.039 83.1415 160.072 85.7312 161.687C86.6889 162.281 87.5644 163.826 87.5398 164.917C87.5192 165.9 86.3971 167.118 85.4393 167.749C84.4857 168.38 83.1374 168.413 81.6042 168.794Z" fill="white"/>
<path d="M102.983 159.137C104.462 159.76 106.082 160.166 107.369 161.051C109.251 162.347 109.046 164.699 107.163 165.999C104.874 167.581 100.566 167.274 98.5352 165.384C96.9485 163.908 97.0595 161.621 98.9544 160.535C100.093 159.883 101.47 159.645 102.983 159.137Z" fill="white"/>
<path d="M212.783 40.7148C212.215 39.9811 211.648 39.2474 211.081 38.5137C213.181 37.0463 214.505 37.0996 215.981 38.8498C216.91 39.9483 217.921 40.2066 219.347 40.2311C221.842 40.2721 224.391 40.4894 226.795 41.1083C228.723 41.6043 230.178 42.9938 229.648 44.9859C231.785 45.8262 233.989 46.3017 235.732 47.4617C238.712 49.4415 238.259 52.2861 234.959 53.6429C233.779 54.1306 232.534 54.4545 231.132 54.9176C231.938 55.9014 232.632 56.754 233.364 57.6475C230.31 59.0904 229.841 58.9633 227.696 56.8031C227.116 56.2211 226.253 55.9219 225.517 55.4915C225.373 55.6718 225.229 55.8522 225.089 56.0284C225.431 56.4752 225.78 56.9138 226.117 57.3647C226.43 57.7828 226.734 58.2091 227.05 58.6436C224.658 60.1315 223.392 60.0741 221.908 58.1968C220.946 56.9835 219.964 56.4465 218.426 56.9138C217.518 57.1884 216.54 57.2376 215.594 57.3811C213.054 57.7705 212.836 57.6147 212.055 54.6389C212.959 54.4258 213.86 54.2167 215.142 53.9175C212.548 51.1015 210.164 48.3429 207.558 45.818C206.995 45.2728 205.556 45.2851 204.64 45.5106C202.58 46.0229 201.639 45.0064 200.686 43.0922C202.774 42.6987 204.664 42.3421 206.786 41.9404C206.128 41.0058 205.577 40.2189 205.022 39.4278C207.316 38.03 208.306 38.1899 210.045 39.8622C210.69 40.4812 211.599 40.8296 212.388 41.301C212.516 41.1083 212.647 40.9116 212.774 40.7189L212.783 40.7148ZM230.26 51.0482C227.794 48.511 223.034 48.2282 219.203 49.9251C220.305 50.9253 221.361 52.6755 222.372 52.6509C224.868 52.5853 227.338 51.7041 230.26 51.0523V51.0482ZM222.886 44.8875C220.165 42.7397 217.296 43.7111 214.291 44.0227C216.388 47.2608 219.787 47.5518 222.886 44.8875Z" fill="white"/>
</g>
<defs>
<clipPath id="clip0_259_9598">
<rect width="346" height="379" fill="white" transform="translate(45 28)"/>
</clipPath>
</defs>
</svg>
