<svg width="56" height="24" viewBox="0 0 56 24" fill="none" xmlns="http://www.w3.org/2000/svg">
<g clip-path="url(#clip0_1075_198)">
<g clip-path="url(#clip1_1075_198)">
<rect width="24" height="24" rx="12" fill="#FC6432"/>
<path d="M16.2523 12.8641C16.2248 12.8487 16.2375 12.8106 16.2694 12.8117C17.1082 12.8895 17.5301 11.9973 17.6471 11.5768C18.0989 9.94386 16.4202 9.26722 15.879 9.0943C15.7883 9.06504 15.7414 8.96942 15.7663 8.87879L16.1229 7.56183C16.1504 7.4663 16.0963 7.37434 16.0007 7.34688L15.6395 7.24699C15.544 7.21953 15.4425 7.26982 15.4156 7.3655L15.063 8.68165C15.0367 8.77749 14.9334 8.82295 14.8378 8.79796L13.982 8.56864C13.8863 8.54176 13.8384 8.45455 13.8632 8.35956L14.2197 7.04071C14.2466 6.94503 14.1903 6.84751 14.0947 6.82005L13.7339 6.72089C13.6384 6.69344 13.5407 6.75032 13.5133 6.84585L13.1532 8.15258C13.1258 8.24811 13.023 8.31231 12.928 8.28748L12.501 8.16935L11.3017 7.84799C11.2062 7.82053 11.1055 7.85616 11.0786 7.95184L10.9684 8.38158C10.9416 8.47727 10.9993 8.56958 11.0948 8.59704L12.051 8.86131C12.1465 8.88876 12.2009 8.98639 12.1759 9.08196L10.7274 14.4579C10.6999 14.5534 10.5683 14.5981 10.4726 14.5737L9.64335 14.3447C9.56154 14.3215 9.47434 14.3602 9.43557 14.4378L9.21591 14.8828C9.16616 14.9829 9.23502 15.1284 9.34184 15.1577L10.913 15.5811C11.0085 15.6086 11.0553 15.6955 11.0304 15.7905L10.6506 17.201C10.6232 17.2965 10.68 17.3942 10.7756 17.4216L11.1368 17.5215C11.2323 17.549 11.3508 17.4977 11.3777 17.402L11.7523 15.9901C11.7798 15.8946 11.8695 15.8349 11.9651 15.8599L12.7578 16.0748C12.8534 16.1023 12.9097 16.2042 12.8849 16.2991L12.506 17.713C12.4786 17.8086 12.5271 17.9052 12.6222 17.9319L12.9834 18.0318C13.0789 18.0593 13.1794 17.992 13.2068 17.8965L13.5796 16.5101C13.6063 16.4125 13.7182 16.3514 13.8138 16.3807C14.5001 16.5881 16.338 17.1011 17.1605 15.3982C17.8865 13.8964 16.7422 13.115 16.2534 12.8644L16.2523 12.8641ZM13.5554 9.54519C13.6146 9.46559 13.7034 9.40943 13.7944 9.42577C16.6048 9.93834 16.0253 11.3195 16.0253 11.3195C15.6319 12.7413 13.6748 12.0421 13.1256 11.8131C13.0437 11.7788 12.9988 11.6874 12.9896 11.592L13.556 9.54534L13.5554 9.54519ZM15.591 14.6263C15.191 16.0729 12.8286 15.2973 12.2045 15.0657C12.1182 15.0339 12.0881 14.9706 12.1137 14.882L12.7059 12.6415C12.731 12.5528 12.8198 12.4966 12.9103 12.5128C16.2414 13.106 15.5905 14.6261 15.5905 14.6261L15.591 14.6263Z" fill="white"/>
<path d="M10.4237 12.4489L10.4799 12.239C10.6665 11.5428 10.355 10.9957 9.6663 10.8112L7.57583 10.251C7.3798 10.1985 7.3176 10.0975 7.36687 9.91365L7.41863 9.7205C7.45721 9.57651 7.64419 9.49398 7.76967 9.5276L10.9166 10.3708L11.1474 9.50978L8.00039 8.66655C7.33595 8.48852 6.76789 8.82284 6.58707 9.49769L6.53531 9.69083C6.34209 10.4119 6.6361 10.9339 7.34217 11.1231L9.43321 11.6834C9.63561 11.7376 9.69774 11.8342 9.64893 12.0163L9.59268 12.2263C9.5541 12.3703 9.36423 12.452 9.23643 12.4178L6.08483 11.5733L5.85256 12.4401L9.00416 13.2846C9.67149 13.4634 10.2423 13.128 10.4242 12.4491L10.4237 12.4489Z" fill="white"/>
</g>
<rect x="0.5" y="0.5" width="23" height="23" rx="11.5" stroke="#B1977B" stroke-opacity="0.1"/>
</g>
<rect x="32" width="24" height="24" rx="12" fill="#12100F"/>
<path d="M39.5 13.5L42.6471 16L48.5 8" stroke="white" stroke-width="2" stroke-linecap="round" stroke-linejoin="round"/>
<defs>
<clipPath id="clip0_1075_198">
<rect width="24" height="24" rx="12" fill="white"/>
</clipPath>
<clipPath id="clip1_1075_198">
<rect width="24" height="24" rx="12" fill="white"/>
</clipPath>
</defs>
</svg>
