<svg width="16" height="16" viewBox="0 0 16 16" fill="none" xmlns="http://www.w3.org/2000/svg">
<path d="M8.00072 1.8335V13.5002M8.00072 13.5002H4.50072M8.00072 13.5002H11.5007M1.83405 3.8335H5.17668C5.28017 3.8335 5.38225 3.8094 5.47482 3.76311L6.52662 3.23721C6.61919 3.19093 6.72127 3.16683 6.82477 3.16683H9.17668C9.28017 3.16683 9.38225 3.19093 9.47482 3.23721L10.5266 3.76311C10.6192 3.8094 10.7213 3.8335 10.8248 3.8335H14.1674M3.66739 3.8335L1.82993 9.65211C1.73515 9.95224 1.86134 10.2829 2.14902 10.4106C3.18425 10.87 4.15053 10.87 5.18576 10.4106C5.47344 10.2829 5.59962 9.95224 5.50484 9.65211L3.66739 3.8335ZM12.3341 3.8335L10.4966 9.65211C10.4018 9.95224 10.528 10.2829 10.8157 10.4106C11.8509 10.87 12.8172 10.87 13.8524 10.4106C14.1401 10.2829 14.2663 9.95224 14.1715 9.65211L12.3341 3.8335Z" stroke="#12100F" stroke-width="1.5" stroke-linecap="round" stroke-linejoin="round"/>
</svg>
