<svg width="44" height="28" viewBox="0 0 44 28" fill="none" xmlns="http://www.w3.org/2000/svg">
<g clip-path="url(#clip0_1075_198)">
<g clip-path="url(#clip1_1075_198)">
<rect y="2" width="24" height="24" rx="12" fill="#FC6432"/>
<path d="M16.2523 14.8641C16.2248 14.8487 16.2375 14.8106 16.2694 14.8117C17.1082 14.8895 17.5301 13.9973 17.6471 13.5768C18.0989 11.9439 16.4202 11.2672 15.879 11.0943C15.7883 11.065 15.7414 10.9694 15.7663 10.8788L16.1229 9.56183C16.1504 9.4663 16.0963 9.37434 16.0007 9.34688L15.6395 9.24699C15.544 9.21953 15.4425 9.26982 15.4156 9.3655L15.063 10.6817C15.0367 10.7775 14.9334 10.823 14.8378 10.798L13.982 10.5686C13.8863 10.5418 13.8384 10.4546 13.8632 10.3596L14.2197 9.04071C14.2466 8.94503 14.1903 8.84751 14.0947 8.82005L13.7339 8.72089C13.6384 8.69344 13.5407 8.75032 13.5133 8.84585L13.1532 10.1526C13.1258 10.2481 13.023 10.3123 12.928 10.2875L12.501 10.1693L11.3017 9.84799C11.2062 9.82053 11.1055 9.85616 11.0786 9.95184L10.9684 10.3816C10.9416 10.4773 10.9993 10.5696 11.0948 10.597L12.051 10.8613C12.1465 10.8888 12.2009 10.9864 12.1759 11.082L10.7274 16.4579C10.6999 16.5534 10.5683 16.5981 10.4726 16.5737L9.64335 16.3447C9.56154 16.3215 9.47434 16.3602 9.43557 16.4378L9.21591 16.8828C9.16616 16.9829 9.23502 17.1284 9.34184 17.1577L10.913 17.5811C11.0085 17.6086 11.0553 17.6955 11.0304 17.7905L10.6506 19.201C10.6232 19.2965 10.68 19.3942 10.7756 19.4216L11.1368 19.5215C11.2323 19.549 11.3508 19.4977 11.3777 19.402L11.7523 17.9901C11.7798 17.8946 11.8695 17.8349 11.9651 17.8599L12.7578 18.0748C12.8534 18.1023 12.9097 18.2042 12.8849 18.2991L12.506 19.713C12.4786 19.8086 12.5271 19.9052 12.6222 19.9319L12.9834 20.0318C13.0789 20.0593 13.1794 19.992 13.2068 19.8965L13.5796 18.5101C13.6063 18.4125 13.7182 18.3514 13.8138 18.3807C14.5001 18.5881 16.338 19.1011 17.1605 17.3982C17.8865 15.8964 16.7422 15.115 16.2534 14.8644L16.2523 14.8641ZM13.5554 11.5452C13.6146 11.4656 13.7034 11.4094 13.7944 11.4258C16.6048 11.9383 16.0253 13.3195 16.0253 13.3195C15.6319 14.7413 13.6748 14.0421 13.1256 13.8131C13.0437 13.7788 12.9988 13.6874 12.9896 13.592L13.556 11.5453L13.5554 11.5452ZM15.591 16.6263C15.191 18.0729 12.8286 17.2973 12.2045 17.0657C12.1182 17.0339 12.0881 16.9706 12.1137 16.882L12.7059 14.6415C12.731 14.5528 12.8198 14.4966 12.9103 14.5128C16.2414 15.106 15.5905 16.6261 15.5905 16.6261L15.591 16.6263Z" fill="white"/>
<path d="M10.4237 14.4489L10.4799 14.239C10.6665 13.5428 10.355 12.9957 9.6663 12.8112L7.57583 12.251C7.3798 12.1985 7.3176 12.0975 7.36687 11.9136L7.41863 11.7205C7.45721 11.5765 7.64419 11.494 7.76967 11.5276L10.9166 12.3708L11.1474 11.5098L8.00039 10.6666C7.33595 10.4885 6.76789 10.8228 6.58707 11.4977L6.53531 11.6908C6.34209 12.4119 6.6361 12.9339 7.34217 13.1231L9.43321 13.6834C9.63561 13.7376 9.69774 13.8342 9.64893 14.0163L9.59268 14.2263C9.5541 14.3703 9.36423 14.452 9.23643 14.4178L6.08483 13.5733L5.85256 14.4401L9.00416 15.2846C9.67149 15.4634 10.2423 15.128 10.4242 14.4491L10.4237 14.4489Z" fill="white"/>
</g>
<rect x="0.5" y="2.5" width="23" height="23" rx="11.5" stroke="#B1977B" stroke-opacity="0.1"/>
</g>
<rect x="17" y="1" width="26" height="26" rx="13" fill="#12100F"/>
<rect x="17" y="1" width="26" height="26" rx="13" stroke="white" stroke-width="2"/>
<path d="M25.5 15.5L28.6471 18L34.5 10" stroke="white" stroke-width="2" stroke-linecap="round" stroke-linejoin="round"/>
<defs>
<clipPath id="clip0_1075_198">
<rect y="2" width="24" height="24" rx="12" fill="white"/>
</clipPath>
<clipPath id="clip1_1075_198">
<rect y="2" width="24" height="24" rx="12" fill="white"/>
</clipPath>
</defs>
</svg>
