<svg width="69" height="24" viewBox="0 0 69 24" fill="none" xmlns="http://www.w3.org/2000/svg">
<g clip-path="url(#clip0_1075_197)">
<g clip-path="url(#clip1_1075_197)">
<rect x="0.5" width="24" height="24" rx="12" fill="#FC6432"/>
<path d="M24.5 11.8994C24.5 5.272 19.1274 -0.100586 12.5 -0.100586C5.87258 -0.100586 0.5 5.272 0.5 11.8994C0.5 18.5268 5.87258 23.8994 12.5 23.8994C19.1274 23.8994 24.5 18.5268 24.5 11.8994Z" fill="#FC6432"/>
<path fill-rule="evenodd" clip-rule="evenodd" d="M14.5419 9.9053C14.498 9.82996 14.5043 9.73572 14.5545 9.66038L16.6497 6.55152C16.7062 6.4636 16.7125 6.35683 16.6623 6.2689C16.6121 6.17469 16.518 6.12444 16.4176 6.12444H15.6021C15.5143 6.12444 15.4265 6.16841 15.37 6.25006L12.9234 9.89282C12.8607 9.98697 12.7603 10.0373 12.6474 10.0373H12.34C12.2271 10.0373 12.1267 9.98073 12.064 9.89282L9.63 6.24377C9.5798 6.16213 9.48565 6.11816 9.39782 6.11816H8.58232C8.48195 6.11816 8.38158 6.17469 8.33766 6.2689C8.28748 6.3631 8.30003 6.46987 8.35021 6.55152L10.4455 9.66671C10.4957 9.73572 10.5019 9.82996 10.458 9.9053C10.4141 9.98697 10.3388 10.0309 10.251 10.0309H7.04537C6.88854 10.0309 6.76935 10.1566 6.76935 10.3073V10.9856C6.76935 11.1426 6.89482 11.262 7.04537 11.262H17.9546C18.1114 11.262 18.2306 11.1363 18.2306 10.9856V10.3073C18.2306 10.1628 18.124 10.0498 17.986 10.0309C17.9734 10.0309 17.9608 10.0309 17.9483 10.0309H14.7489C14.6611 10.0309 14.5795 9.98697 14.5419 9.9053ZM12.0703 13.906L9.62367 17.5487C9.57347 17.6304 9.47941 17.6744 9.39158 17.6744H8.57605C8.47568 17.6744 8.38158 17.6178 8.3314 17.5299C8.28121 17.442 8.28748 17.329 8.34394 17.2473L10.4329 14.1384C10.4831 14.0631 10.4894 13.9751 10.4455 13.8935C10.4016 13.8181 10.3263 13.7679 10.2384 13.7679H7.04537C6.89482 13.7679 6.76935 13.6485 6.76935 13.4915V12.8133C6.76935 12.6625 6.88854 12.5369 7.04537 12.5369H17.9295C17.9295 12.5369 17.9483 12.5369 17.9546 12.5369C18.1052 12.5369 18.2306 12.6562 18.2306 12.8133V13.4915C18.2306 13.6423 18.1114 13.7679 17.9546 13.7679H14.7552C14.6611 13.7679 14.5859 13.8119 14.5482 13.8935C14.5043 13.9751 14.5105 14.0631 14.5607 14.1321L16.656 17.2473C16.7062 17.329 16.7187 17.4357 16.6686 17.5299C16.6184 17.6242 16.5242 17.6807 16.4239 17.6807H15.6084C15.5143 17.6807 15.4327 17.6367 15.3825 17.5613L12.9359 13.9186C12.8733 13.8244 12.7729 13.7741 12.66 13.7741H12.3525C12.2397 13.7741 12.1393 13.8307 12.0765 13.9186L12.0703 13.906Z" fill="white"/>
</g>
<rect x="1" y="0.5" width="23" height="23" rx="11.5" stroke="#B1977B" stroke-opacity="0.1"/>
</g>
<path d="M36.0547 7.77856L39.75 11.4738C40.0103 11.7342 40.0103 12.1563 39.75 12.4166L36.0547 16.1119M39.3881 11.9452L29.0547 11.9452" stroke="#D8CEC4" stroke-width="1.5" stroke-linecap="round" stroke-linejoin="round"/>
<g clip-path="url(#clip2_1075_197)">
<g clip-path="url(#clip3_1075_197)">
<rect x="44.5" width="24" height="24" rx="12" fill="#FC6432"/>
<path d="M60.7523 12.8641C60.7248 12.8487 60.7375 12.8106 60.7694 12.8117C61.6082 12.8895 62.0301 11.9973 62.1471 11.5768C62.5989 9.94386 60.9202 9.26722 60.379 9.0943C60.2883 9.06504 60.2414 8.96942 60.2663 8.87879L60.6229 7.56183C60.6504 7.4663 60.5963 7.37434 60.5007 7.34688L60.1395 7.24699C60.044 7.21953 59.9425 7.26982 59.9156 7.3655L59.563 8.68165C59.5367 8.77749 59.4334 8.82295 59.3378 8.79796L58.482 8.56864C58.3863 8.54176 58.3384 8.45455 58.3632 8.35956L58.7197 7.04071C58.7466 6.94503 58.6903 6.84751 58.5947 6.82005L58.2339 6.72089C58.1384 6.69344 58.0407 6.75032 58.0133 6.84585L57.6532 8.15258C57.6258 8.24811 57.523 8.31231 57.428 8.28748L57.001 8.16935L55.8017 7.84799C55.7062 7.82053 55.6055 7.85616 55.5786 7.95184L55.4684 8.38158C55.4416 8.47727 55.4993 8.56958 55.5948 8.59704L56.551 8.86131C56.6465 8.88876 56.7009 8.98639 56.6759 9.08196L55.2274 14.4579C55.1999 14.5534 55.0683 14.5981 54.9726 14.5737L54.1433 14.3447C54.0615 14.3215 53.9743 14.3602 53.9356 14.4378L53.7159 14.8828C53.6662 14.9829 53.735 15.1284 53.8418 15.1577L55.413 15.5811C55.5085 15.6086 55.5553 15.6955 55.5304 15.7905L55.1506 17.201C55.1232 17.2965 55.18 17.3942 55.2756 17.4216L55.6368 17.5215C55.7323 17.549 55.8508 17.4977 55.8777 17.402L56.2523 15.9901C56.2798 15.8946 56.3695 15.8349 56.4651 15.8599L57.2578 16.0748C57.3534 16.1023 57.4097 16.2042 57.3849 16.2991L57.006 17.713C56.9786 17.8086 57.0271 17.9052 57.1222 17.9319L57.4834 18.0318C57.5789 18.0593 57.6794 17.992 57.7068 17.8965L58.0796 16.5101C58.1063 16.4125 58.2182 16.3514 58.3138 16.3807C59.0001 16.5881 60.838 17.1011 61.6605 15.3982C62.3865 13.8964 61.2422 13.115 60.7534 12.8644L60.7523 12.8641ZM58.0554 9.54519C58.1146 9.46559 58.2034 9.40943 58.2944 9.42577C61.1048 9.93834 60.5253 11.3195 60.5253 11.3195C60.1319 12.7413 58.1748 12.0421 57.6256 11.8131C57.5437 11.7788 57.4988 11.6874 57.4896 11.592L58.056 9.54534L58.0554 9.54519ZM60.091 14.6263C59.691 16.0729 57.3286 15.2973 56.7045 15.0657C56.6182 15.0339 56.5881 14.9706 56.6137 14.882L57.2059 12.6415C57.231 12.5528 57.3198 12.4966 57.4103 12.5128C60.7414 13.106 60.0905 14.6261 60.0905 14.6261L60.091 14.6263Z" fill="white"/>
<path d="M54.9237 12.4489L54.9799 12.239C55.1665 11.5428 54.855 10.9957 54.1663 10.8112L52.0758 10.251C51.8798 10.1985 51.8176 10.0975 51.8669 9.91365L51.9186 9.7205C51.9572 9.57651 52.1442 9.49398 52.2697 9.5276L55.4166 10.3708L55.6474 9.50978L52.5004 8.66655C51.836 8.48852 51.2679 8.82284 51.0871 9.49769L51.0353 9.69083C50.8421 10.4119 51.1361 10.9339 51.8422 11.1231L53.9332 11.6834C54.1356 11.7376 54.1977 11.8342 54.1489 12.0163L54.0927 12.2263C54.0541 12.3703 53.8642 12.452 53.7364 12.4178L50.5848 11.5733L50.3526 12.4401L53.5042 13.2846C54.1715 13.4634 54.7423 13.128 54.9242 12.4491L54.9237 12.4489Z" fill="white"/>
</g>
<rect x="45" y="0.5" width="23" height="23" rx="11.5" stroke="#B1977B" stroke-opacity="0.1"/>
</g>
<defs>
<clipPath id="clip0_1075_197">
<rect x="0.5" width="24" height="24" rx="12" fill="white"/>
</clipPath>
<clipPath id="clip1_1075_197">
<rect x="0.5" width="24" height="24" rx="12" fill="white"/>
</clipPath>
<clipPath id="clip2_1075_197">
<rect x="44.5" width="24" height="24" rx="12" fill="white"/>
</clipPath>
<clipPath id="clip3_1075_197">
<rect x="44.5" width="24" height="24" rx="12" fill="white"/>
</clipPath>
</defs>
</svg>
