<svg width="16" height="16" viewBox="0 0 16 16" fill="none" xmlns="http://www.w3.org/2000/svg">
<g clip-path="url(#clip0_259_9627)">
<path d="M9.99965 1.8335C11.2883 1.8335 12.333 2.87817 12.333 4.16683C12.333 5.45549 11.2883 6.50016 9.99965 6.50016M13.833 13.5001H14.833C15.2012 13.5001 15.5047 13.1998 15.4471 12.8362C15.1777 11.1362 13.898 9.61936 12.1663 9.00602M6.16632 6.50016C4.87765 6.50016 3.83298 5.45549 3.83298 4.16683C3.83298 2.87817 4.87765 1.8335 6.16632 1.8335C7.45498 1.8335 8.49965 2.87817 8.49965 4.16683C8.49965 5.45549 7.45498 6.50016 6.16632 6.50016ZM0.717744 12.8151C1.08582 10.4464 3.38497 8.50016 6.16632 8.50016C8.94766 8.50016 11.2468 10.4464 11.6149 12.8151C11.6714 13.179 11.3678 13.4793 10.9996 13.4793H1.33298C0.964793 13.4793 0.661209 13.179 0.717744 12.8151Z" stroke="black" stroke-width="1.5" stroke-linecap="round" stroke-linejoin="round"/>
</g>
<defs>
<clipPath id="clip0_259_9627">
<rect width="16" height="16" fill="white"/>
</clipPath>
</defs>
</svg>
