<svg width="16" height="16" viewBox="0 0 16 16" fill="none" xmlns="http://www.w3.org/2000/svg">
<path d="M12.8327 3.54646C12.8327 4.4925 10.6687 5.25942 7.99935 5.25942C5.32997 5.25942 3.16602 4.4925 3.16602 3.54646M12.8327 3.54646C12.8327 2.60042 10.6687 1.8335 7.99935 1.8335C5.32997 1.8335 3.16602 2.60042 3.16602 3.54646M12.8327 3.54646V12.4539C12.8327 13.3999 10.6687 14.1668 7.99935 14.1668C5.32997 14.1668 3.16602 13.3999 3.16602 12.4539V3.54646M12.8327 6.45329C12.8327 7.39933 10.6687 8.16625 7.99935 8.16625C5.32997 8.16625 3.16602 7.39933 3.16602 6.45329M12.8327 9.28662C12.8327 10.2327 10.6687 10.9996 7.99935 10.9996C5.32997 10.9996 3.16602 10.2327 3.16602 9.28662" stroke="black" stroke-width="1.5" stroke-linecap="round" stroke-linejoin="round"/>
</svg>
