<svg width="112" height="18" viewBox="0 0 112 18" fill="none" xmlns="http://www.w3.org/2000/svg">
<g clip-path="url(#clip0_1_13)">
<path d="M38 9.49632C38.0975 12.1873 40.0475 14.0788 43.382 14.0788C46.2485 14.0788 48.2375 12.4213 48.2375 10.0618C48.2375 7.40982 45.956 6.66883 43.733 6.29833C41.6855 5.94732 40.028 5.61582 40.028 3.97782C40.028 2.51533 41.2175 1.73532 42.992 1.73532C44.8445 1.73532 46.112 2.76882 46.307 4.34832H48.062C47.906 1.89132 46.034 0.194824 42.992 0.194824C40.223 0.194824 38.3315 1.75482 38.3315 4.07532C38.3315 6.72732 40.5935 7.44882 42.797 7.81932C44.864 8.17032 46.541 8.52132 46.541 10.2178C46.541 11.6998 45.2345 12.5383 43.4015 12.5383C41.315 12.5383 39.8915 11.3293 39.755 9.49632H38Z" fill="#C8C8C8"/>
<path d="M50.8977 11.3683C50.8977 13.1233 51.5802 13.9618 53.4912 13.9618H55.2267V12.4993H53.6472C52.7892 12.4993 52.4967 12.1873 52.4967 11.3488V5.47932H55.0707V4.01682H52.4967V1.22832H50.8977V4.01682H49.1037V5.47932H50.8977V11.3683Z" fill="#C8C8C8"/>
<path d="M65.2544 12.4993C64.806 12.4993 64.6109 12.3628 64.6109 11.8363V7.48783C64.6109 5.16733 63.1484 3.89983 60.6134 3.89983C58.2149 3.89983 56.6354 5.05033 56.4014 7.00033H58.0004C58.1954 5.98634 59.1314 5.32333 60.5354 5.32333C62.0954 5.32333 63.0119 6.10333 63.0119 7.39034V8.07283H60.0869C57.4739 8.07283 56.0894 9.18433 56.0894 11.1733C56.0894 12.9868 57.5714 14.0788 59.7554 14.0788C61.4714 14.0788 62.4659 13.3183 63.0899 12.4213C63.1094 13.3963 63.5579 13.9618 64.8839 13.9618H65.7614V12.4993H65.2544ZM63.0119 9.90583C63.0119 11.5633 61.8614 12.7138 59.8724 12.7138C58.5464 12.7138 57.7079 12.0508 57.7079 11.0758C57.7079 9.94483 58.5074 9.41834 59.9309 9.41834H63.0119V9.90583Z" fill="#C8C8C8"/>
<path d="M71.342 14.0788C73.76 14.0788 75.3785 12.7138 75.7685 10.5688H74.072C73.76 11.8363 72.785 12.6553 71.3615 12.6553C69.4505 12.6553 68.1635 11.1733 68.1635 9.00884C68.1635 6.84434 69.4505 5.32333 71.3615 5.32333C72.824 5.32333 73.799 6.12283 74.0915 7.44883H75.7685C75.359 5.26483 73.8185 3.89983 71.381 3.89983C68.495 3.89983 66.5255 5.96684 66.5255 9.00884C66.5255 12.1093 68.4365 14.0788 71.342 14.0788Z" fill="#C8C8C8"/>
<path d="M77.5215 13.9618H79.1205V11.3488L81.129 9.28183L84.4245 13.9618H86.355L82.2015 8.13132L86.082 4.01682H84.1125L79.1205 9.30132V0.311829H77.5215V13.9618Z" fill="#C8C8C8"/>
<path d="M88.2999 2.33982C88.8849 2.33982 89.3334 1.91082 89.3334 1.30632C89.3334 0.701828 88.8849 0.272827 88.2999 0.272827C87.7149 0.272827 87.2664 0.701828 87.2664 1.30632C87.2664 1.91082 87.7149 2.33982 88.2999 2.33982ZM87.4809 13.9618H89.0799V4.01682H87.4809V13.9618Z" fill="#C8C8C8"/>
<path d="M96.1455 3.89983C94.4685 3.89983 93.4545 4.60183 92.8695 5.36233L92.655 4.01683H91.2705V13.9618H92.8695V8.98933C92.8695 6.74684 94.0005 5.36233 95.8725 5.36233C97.608 5.36233 98.5635 6.45433 98.5635 8.52133V13.9618H100.162V8.42383C100.162 5.12833 98.388 3.89983 96.1455 3.89983Z" fill="#C8C8C8"/>
<path d="M110.04 5.73283C109.416 4.62133 108.305 3.89983 106.628 3.89983C103.878 3.89983 101.85 5.94733 101.85 8.98933C101.85 12.2263 103.878 14.0788 106.628 14.0788C108.305 14.0788 109.377 13.3768 110.04 12.2458V13.4158C110.04 15.5803 108.909 16.5553 106.823 16.5553C105.165 16.5553 104.054 15.8533 103.781 14.6053H102.143C102.396 16.7893 104.171 17.9788 106.706 17.9788C110.118 17.9788 111.639 16.3408 111.639 13.4743V4.01683H110.255L110.04 5.73283ZM106.784 12.6553C104.814 12.6553 103.488 11.1538 103.488 8.98933C103.488 6.82483 104.814 5.32333 106.784 5.32333C108.734 5.32333 110.06 6.84433 110.06 9.02833C110.06 11.1538 108.734 12.6553 106.784 12.6553Z" fill="#C8C8C8"/>
<path d="M29.6813 0.0212402L21 14.2288H23.2264L31.8928 0.0212402H29.6813Z" fill="#C8C8C8"/>
<path d="M14 9.66052H9.73913L12.6739 14.2288H10.5L7.01087 8.86271L3.5 14.2288H1.32609L4.30435 9.67145H0V7.94469H14V9.66052ZM14 6.27257H0V4.53487H4.18478L1.25 0.0212402H3.42391L6.95652 5.48569L10.5 0.0212402H12.6739L9.72826 4.53487H14V6.27257Z" fill="#C8C8C8"/>
</g>
<defs>
<clipPath id="clip0_1_13">
<rect width="112" height="18" fill="white"/>
</clipPath>
</defs>
</svg>
