<svg width="125" height="28" viewBox="0 0 125 28" fill="none"
    xmlns="http://www.w3.org/2000/svg">
    <path d="M120.426 20.1418C119.27 22.323 117.574 23.6623 116.264 23.6623C115.262 23.6623 114.491 22.8204 114.491 20.8306C114.491 17.731 116.032 12.9095 116.765 10.3839H105.28L104.163 14.2488C102.467 20.1801 99.8079 23.6623 95.6072 23.6623C94.9906 23.6623 94.2584 23.5475 93.873 23.3179C97.0331 21.0602 100.232 17.4632 100.232 13.9044C100.232 10.9579 98.0737 9.80992 96.1082 9.80992C89.9421 9.80992 85.5488 17.8458 87.2059 22.897C86.2039 23.2414 85.279 23.6623 84.1614 23.6623C83.0438 23.6623 82.4272 22.897 82.6585 21.8638C82.9282 20.6393 84.4697 16.5448 84.4697 14.3253C84.4697 11.6084 82.3502 9.77166 79.1515 9.77166C78.4193 9.77166 77.61 9.96299 76.8007 10.2691L78.8432 3.11333H74.8352L70.0565 19.7974C69.3243 22.3995 67.1276 23.6623 65.3163 23.6623C63.0426 23.6623 62.1947 21.8638 62.7343 20.0653L64.43 14.2105H68.7848L69.9024 10.3839H65.509L67.5901 3.11333H63.5821L58.3795 21.2515C57.8785 22.9735 56.6838 23.6623 55.6433 23.6623C53.9861 23.6623 53.4852 22.323 53.832 21.0985L56.915 10.3839C55.836 10.0395 54.2944 9.77166 53.0998 9.77166C46.2015 9.77166 39.6885 15.856 39.6885 21.8638C39.6885 21.8691 39.6885 21.8749 39.6885 21.8802C37.8433 23.055 35.7025 23.6623 33.8307 23.6623C32.5205 23.6623 31.7882 23.5475 31.2102 23.2414C34.4474 21.1367 37.8002 17.6162 37.8002 13.9044C37.8002 10.9579 35.642 9.80992 33.6766 9.80992C27.5491 9.80992 23.2713 17.6545 24.6972 22.6674C23.3484 23.3562 22.1152 23.7006 20.7664 23.7006C18.6468 23.7006 16.6428 22.8204 15.1013 21.0602L17.0667 14.2105C21.8454 13.8279 28.1657 9.92472 28.1657 5.14144C28.1657 2.15668 26.1617 0.51123 23.6182 0.51123C19.1092 0.51123 15.7179 4.83531 14.1378 10.3839C11.2089 10.0395 9.62887 6.90169 11.9411 3.11333H7.77904C5.19699 8.815 7.81758 12.7947 13.0588 14.2105L11.787 18.6112C9.8601 17.4249 8.35711 16.9657 6.58436 16.9657C-1.93254 16.9657 -2.27939 27.4889 6.08337 27.4889C8.51126 27.4889 11.4402 26.2261 12.9817 24.5424C15.1783 26.4557 17.3365 27.4889 20.1112 27.4889C22.2308 27.4889 24.3889 26.8767 26.6241 25.5756C28.1271 26.8001 30.0926 27.4889 32.9058 27.4889C35.4043 27.4889 37.9031 26.9739 40.4763 25.1784C41.2385 26.5104 42.6294 27.4889 44.9682 27.4889C46.9337 27.4889 49.0918 26.6471 50.7104 24.8485C51.9051 26.5705 53.7164 27.4889 55.5662 27.4889C57.1077 27.4889 58.6878 26.8767 60.0366 25.6521C61.1157 26.8001 63.0811 27.4889 65.2393 27.4889C68.5921 27.4889 72.3303 25.7287 73.6405 21.175L75.1435 15.8942C75.606 14.3253 76.8392 13.5983 78.2651 13.5983C79.4983 13.5983 80.1535 14.2105 80.1535 15.282C80.1535 17.2718 78.3807 22.0168 78.3807 23.7006C78.3807 26.5323 80.3076 27.4889 82.8897 27.4889C84.5083 27.4889 85.78 27.4506 89.4026 25.8435C90.8671 26.9149 93.1408 27.4889 95.7228 27.4889C101.465 27.4889 105.473 23.5858 108.209 14.2105H111.678C111.022 16.3917 110.56 18.8025 110.56 20.9454C110.56 24.5424 111.87 27.4889 115.917 27.4889C119.077 27.4889 123.47 24.3128 124.588 20.1418H120.426ZM23.0401 4.33785C23.7723 4.33785 24.2733 4.75878 24.2733 5.37104C24.2733 7.39915 20.6507 10.0013 18.1458 10.3839C19.3019 6.40423 21.6527 4.33785 23.0401 4.33785ZM6.27606 23.6623C3.00032 23.6623 3.27009 20.4479 6.54582 20.4479C7.97173 20.4479 9.08933 20.9071 10.4382 22.0551C9.51325 23.0883 7.7405 23.6623 6.27606 23.6623ZM32.5205 13.5983C33.3298 13.5983 33.8307 14.0957 33.8307 14.8993C33.8307 17.0422 31.0175 19.6826 28.6281 21.0219C27.7803 18.5729 30.2082 13.5983 32.5205 13.5983ZM45.6619 23.6623C44.4672 23.6623 43.8892 22.8204 43.8892 21.5959C43.8892 18.6494 47.0878 13.6748 51.9822 13.5983C50.2094 19.7591 49.0147 23.6623 45.6619 23.6623ZM94.9521 13.5983C95.7614 13.5983 96.2624 14.0957 96.2624 14.8993C96.2624 17.0422 93.3335 19.7974 91.0983 21.175C90.1348 18.879 92.6013 13.5983 94.9521 13.5983Z" fill="#F5F1ED"/>
</svg>
