<svg width="20" height="24" viewBox="0 0 20 24" fill="none" xmlns="http://www.w3.org/2000/svg">
<g clip-path="url(#clip0_1071_409)">
<path d="M10.6658 12.0007L12.0471 13.4691L13.4133 12.0007L12.0471 10.5323L10.6658 12.0007Z" fill="#FC5101"/>
<path d="M11.3714 6.14018C12.3773 5.06185 12.6475 3.53996 12.077 2.17103C11.6942 1.26095 11.011 0.587956 10.1627 0.228516C9.31444 0.580309 8.63129 1.26095 8.24844 2.17103C7.6704 3.53996 7.94065 5.06185 8.95409 6.14018L10.1627 7.43265L11.3714 6.14018Z" fill="#FC5101"/>
<path d="M8.78186 14.012L10.1632 15.4805L11.5369 14.012L10.1632 12.5437L8.78186 14.012Z" fill="#FC5101"/>
<path d="M12.7523 1.88133C13.4429 3.52558 13.1202 5.36103 11.904 6.65349L10.6729 7.97654L12.0467 9.4449L15.1245 6.15639C16.138 5.07807 16.4083 3.54853 15.8301 2.17959C15.3271 0.986552 14.3137 0.191193 13.0901 0H11.2659C11.904 0.458862 12.422 1.10127 12.7523 1.88133Z" fill="#FC5101"/>
<path d="M16.4915 1.88898C17.1897 3.54088 16.8594 5.37632 15.6432 6.67643L12.5428 9.98788L13.9166 11.4563L18.601 6.45465C19.6595 5.32279 19.9447 3.72442 19.3367 2.28666C18.8112 1.04009 17.7377 0.19884 16.4615 0H14.9976C15.6432 0.458862 16.1612 1.10127 16.4915 1.88898Z" fill="#FC5101"/>
<path d="M4.50284 2.18862C3.92479 3.5652 4.19505 5.0871 5.20849 6.16542L8.28637 9.45393L9.66015 7.98558L8.429 6.66252C7.21286 5.36241 6.89007 3.53462 7.58071 1.89036C7.91102 1.1103 8.429 0.467894 9.0671 0.0090332H7.2429C6.02675 0.200225 5.0058 1.00323 4.50284 2.18862Z" fill="#FC5101"/>
<path d="M8.28608 10.5323L6.90479 12.0007L8.28608 13.4691L9.65235 12.0007L8.28608 10.5323Z" fill="#FC5101"/>
<path d="M11.5369 9.98728L10.1632 8.51892L8.78186 9.98728L10.1632 11.4556L11.5369 9.98728Z" fill="#FC5101"/>
<path d="M15.8155 21.8102C16.3936 20.4337 16.1233 18.9118 15.1099 17.8334L12.032 14.5449L10.6582 16.0133L11.8893 17.3363C13.1055 18.6364 13.4283 20.4642 12.7377 22.1085C12.4073 22.8885 11.8893 23.531 11.2513 23.9898H13.0755C14.2916 23.7987 15.3126 22.9957 15.8155 21.8102Z" fill="#FC5101"/>
<path d="M19.3436 21.7133C19.9517 20.2755 19.6664 18.6772 18.6079 17.5454L13.9236 12.5437L12.5497 14.012L15.6502 17.3236C16.8663 18.6237 17.1891 20.4591 16.4984 22.111C16.1681 22.8987 15.6502 23.5411 15.0046 24H16.4684C17.7446 23.8011 18.8181 22.9676 19.3436 21.7133Z" fill="#FC5101"/>
<path d="M8.95448 17.8572C7.94855 18.9356 7.67829 20.4575 8.24883 21.8264C8.63168 22.7365 9.31483 23.4094 10.1631 23.7689C11.0114 23.4171 11.6946 22.7365 12.0774 21.8264C12.6554 20.4575 12.3852 18.9356 11.3717 17.8572L10.1631 16.5648L8.95448 17.8572Z" fill="#FC5101"/>
<path d="M3.82601 22.111C3.12785 20.4591 3.45816 18.6237 4.6743 17.3236L7.7747 14.012L6.40091 12.5437L1.71654 17.5454C0.658052 18.6772 0.372786 20.2755 0.980854 21.7133C1.50634 22.9599 2.57985 23.8011 3.85604 24H5.31991C4.6743 23.5411 4.15632 22.8987 3.82601 22.111Z" fill="#FC5101"/>
<path d="M0.974263 2.28666C0.366194 3.72442 0.65146 5.32279 1.70995 6.45465L6.39432 11.4563L7.76811 9.98788L4.66771 6.67643C3.45157 5.37632 3.12877 3.54088 3.81941 1.88898C4.14972 1.10127 4.66771 0.458862 5.31332 0H3.84945C2.57326 0.19884 1.49975 1.03244 0.974263 2.28666Z" fill="#FC5101"/>
<path d="M7.58071 22.1176C6.89007 20.4733 7.21286 18.6378 8.429 17.3453L9.66015 16.0223L8.28637 14.554L5.20849 17.8425C4.19505 18.9208 3.92479 20.4504 4.50284 21.8192C5.0058 23.0123 6.01925 23.8077 7.2429 23.9988H9.0671C8.429 23.54 7.91102 22.8976 7.58071 22.1176Z" fill="#FC5101"/>
</g>
<defs>
<clipPath id="clip0_1071_409">
<rect width="19" height="24" fill="white" transform="translate(0.658936)"/>
</clipPath>
</defs>
</svg>
