<svg width="620" height="342" viewBox="0 0 620 342" fill="none"
    xmlns="http://www.w3.org/2000/svg">
    <rect width="620" height="342" fill="black"/>
    <g clip-path="url(#clip0_135_15897)">
        <path d="M196.581 251.587C196.448 243.403 196.315 235.149 196.182 226.897C196.11 226.867 196.035 226.836 195.963 226.805C195.725 227.229 195.445 227.636 195.257 228.079C194.446 229.994 193.169 231.594 191.765 233.066C189.895 235.026 187.558 236.219 184.899 236.693C181.629 237.276 178.358 237.917 175.062 238.301C172.312 238.622 169.676 238.039 167.28 236.484C163.627 234.109 161.215 230.725 159.298 226.897C157.218 222.744 156.03 218.314 155.418 213.74C154.817 209.257 154.853 204.764 155.615 200.281C156.022 197.889 156.72 195.592 157.49 193.306C157.675 192.752 157.731 192.133 157.736 191.542C157.761 189.267 157.609 186.984 157.767 184.723C158.033 180.91 158.833 177.199 160.345 173.662C161.45 171.075 162.943 168.759 164.965 166.643C164.965 165.77 164.931 164.842 164.97 163.916C165.183 158.701 166.264 153.68 168.745 149.07C170.728 145.384 173.464 142.438 177.635 141.172C178.012 137.847 178.53 134.596 179.629 131.474C181.039 127.471 183.071 123.855 186.431 121.177C187.721 120.148 189.17 119.287 190.987 118.958C191.034 118.512 191.117 118.068 191.128 117.622C191.239 113.123 192.136 108.76 193.662 104.557C195.332 99.9655 197.766 95.8063 201.58 92.6619C203.097 91.4102 204.817 90.4206 206.764 89.8269C209.182 89.0909 211.578 89.2275 214.012 89.5007C214.51 89.5565 215.017 89.5676 215.535 89.5983C217.069 87.6804 218.485 85.7235 220.099 83.9506C222.246 81.5922 224.486 79.3092 226.799 77.1153C229.252 74.7876 231.969 72.7777 234.824 70.9602C240.327 67.4617 246.207 64.9501 252.602 63.5786C257.246 62.5806 261.913 62.3437 266.612 62.5862C268.487 62.6838 270.34 63.1855 272.204 63.4922C278.804 64.5821 284.799 67.2081 290.518 70.6145C296.534 74.1994 301.751 78.7572 306.457 83.8948C309.359 87.0643 312.095 90.4123 314.394 94.0808C314.71 94.5854 315.07 95.062 315.457 95.6196C319.235 94.5603 322.907 95.6251 326.737 95.9039C327.061 95.6502 327.477 95.3631 327.851 95.0286C330.479 92.6758 333.282 90.5489 336.281 88.7146C338.444 87.3933 340.704 86.2113 342.991 85.1158C346.29 83.5324 349.766 82.3783 353.333 81.6257C356.21 81.0208 359.157 80.6639 362.09 80.4158C365.122 80.1622 368.171 80.1956 371.209 80.5803C377.444 81.3692 383.406 83.1087 389.042 85.8796C391.479 87.0783 393.808 88.525 396.107 89.9858C399.475 92.1239 402.518 94.6996 405.382 97.4705C407.24 99.2714 409.038 101.161 410.674 103.166C416.136 109.845 420.473 117.201 423.707 125.235C426.289 131.641 428.011 138.27 429.282 145.039C429.385 145.585 429.418 146.145 429.493 146.697C429.565 147.232 429.645 147.765 429.706 148.169C430.279 145.777 430.847 143.294 431.476 140.826C431.861 139.313 432.392 139.02 434.007 139.249C434.542 139.622 434.589 140.169 434.464 140.74C433.791 143.865 434.389 146.934 434.819 150.015C435.771 156.85 437.851 163.412 439.577 170.06C439.607 170.183 439.701 170.289 439.903 170.649C440.02 168.413 440.13 166.434 440.222 164.454C440.485 158.888 440.604 153.307 441.044 147.754C441.327 144.2 442.099 140.687 442.62 137.15C443.019 134.429 443.625 131.753 444.647 129.208C445.406 127.32 446.364 125.511 447.298 123.699C447.758 122.804 447.935 122.782 448.926 122.894C449.408 123.303 449.289 123.819 449.12 124.301C448.86 125.046 448.588 125.79 448.253 126.501C446.763 129.654 446.104 133.018 445.772 136.453C445.448 139.781 445.146 143.115 444.991 146.455C444.883 148.721 445.016 151.004 445.085 153.276C445.315 161.076 445.564 168.878 445.811 176.678C445.824 177.119 445.885 177.559 446.146 178.016C446.259 177.693 446.387 177.375 446.484 177.046C448.372 170.732 450.184 164.396 452.166 158.113C453.618 153.51 455.285 148.972 457.639 144.74C458.495 143.204 459.517 141.763 460.467 140.28C460.541 140.163 460.624 140.052 460.719 139.948C461.272 139.341 462.056 139.204 462.721 139.592C463.327 139.946 463.513 140.581 463.064 141.412C462.001 143.386 461.123 145.432 460.674 147.628C460.107 150.402 459.528 153.181 459.17 155.986C458.697 159.715 458.392 163.468 458.082 167.214C457.545 173.695 457.085 180.182 456.537 186.661C456.199 190.675 455.019 194.491 453.637 198.246C453.349 199.029 453.028 199.799 452.659 200.738C453.089 200.855 453.457 200.989 453.839 201.059C455.794 201.418 457.697 201.912 459.528 202.748C464.626 205.073 467.736 213.33 461.668 218.392C461.248 218.743 460.846 219.123 460.381 219.538C463.194 221.592 464.637 224.355 464.781 227.742C464.931 231.224 462.995 233.671 460.367 235.879C463.136 237.925 464.396 240.732 464.571 244.024C464.754 247.45 462.846 249.881 460.453 252.139C460.674 252.373 460.871 252.602 461.09 252.805C463.66 255.197 464.621 258.247 464.277 261.637C463.97 264.661 462.27 266.989 459.824 268.717C457.794 270.156 455.482 270.953 453.075 271.491C449.682 272.252 446.24 272.603 442.775 272.704C435.971 272.901 429.208 272.514 422.539 271.048C419.141 270.301 415.795 269.353 412.965 267.209C408.39 263.744 407.152 259.158 409.262 254.191C409.699 253.16 410.572 252.306 411.278 251.401C411.527 251.08 411.879 250.84 412.134 250.612C411.015 249.12 409.938 247.685 408.708 246.043C384.5 242.773 360.06 239.472 335.478 236.152V278.775C334.863 279.533 334.234 279.561 333.5 279.411C323.145 277.309 312.785 275.215 302.427 273.133C283.772 269.383 265.114 265.645 246.462 261.893C230.557 258.693 214.657 255.479 198.755 252.267C198.049 252.125 197.259 252.237 196.589 251.571L196.581 251.587ZM369.534 101.231L369.595 101.287L369.509 101.239L369.484 101.181L369.531 101.231H369.534ZM357.077 108.496C357.008 108.379 356.938 108.264 356.866 108.147C356.772 107.941 356.717 107.698 356.576 107.537C354.449 105.109 351.926 103.333 348.688 102.745C346.603 102.366 344.578 102.58 342.257 103.372C343.052 103.548 343.526 103.687 344.011 103.751C344.924 103.871 345.841 103.98 346.761 104.038C349.533 104.217 352.095 105.022 354.402 106.597C355.196 107.138 355.975 107.704 356.761 108.256C356.875 108.326 356.991 108.395 357.105 108.465C357.207 108.551 357.31 108.641 357.412 108.727L357.426 108.802L357.376 108.766C357.276 108.677 357.177 108.585 357.077 108.496ZM331.337 206.601C331.952 206.481 332.567 206.361 333.21 206.235V204.66C332.459 205.466 331.914 206.049 331.368 206.634C331.268 206.656 331.169 206.676 331.26 206.656C331.185 206.712 331.26 206.656 331.337 206.598V206.601ZM419.376 125.818L419.351 125.704L419.409 125.782C420.874 127.259 422.337 128.739 423.965 130.381C423.511 129.255 423.123 128.299 422.76 127.404C421.957 126.922 421.265 126.465 420.534 126.091C420.19 125.915 419.764 125.904 419.376 125.818ZM419.395 160.607C419.653 160.56 419.935 160.566 420.163 160.457C423.145 158.988 425.438 156.744 427.183 153.939C427.709 153.095 428.28 152.08 428.274 151.146C428.263 149.106 427.898 147.068 427.679 145.03C427.313 145.85 427.255 146.678 427.081 147.481C426.039 152.278 423.921 156.465 420.149 159.699C419.855 159.95 419.653 160.312 419.409 160.621C419.282 160.644 419.154 160.666 419.027 160.688C419.055 160.744 419.085 160.8 419.113 160.853C419.207 160.772 419.304 160.688 419.398 160.607H419.395ZM381.42 123.599C381.404 123.471 381.39 123.34 381.404 123.462C381.346 123.343 381.398 123.454 381.454 123.566C381.711 124.288 381.648 124.993 381.473 125.737C381.049 127.543 380.509 129.3 379.69 130.967C379.507 131.335 379.379 131.73 379.222 132.121C379.548 133.085 379.864 134.025 380.21 135.051C380.454 134.861 380.634 134.777 380.725 134.635C381.504 133.439 382.262 132.229 383.038 131.034C383.229 130.741 383.467 130.479 383.686 130.206C383.711 130.328 383.736 130.448 383.708 130.314C383.788 130.412 383.719 130.326 383.647 130.239C383.739 129.835 383.786 129.417 383.927 129.032C385.6 124.483 385.954 119.877 384.819 115.122C383.847 111.057 381.913 107.626 378.712 104.98C377.499 103.977 376.145 103.107 374.505 102.851C375.015 103.472 375.596 103.994 376.136 104.554C376.646 105.084 377.139 105.636 377.59 106.218C379.767 109.017 381.033 112.234 381.673 115.693C382.121 118.116 382.215 120.574 381.883 123.03C381.855 123.237 381.576 123.409 381.415 123.599H381.42ZM241.316 233.365C241.347 233.384 241.377 233.401 241.407 233.42C241.366 233.415 241.324 233.406 241.283 233.401C241.133 233.075 241.011 232.729 240.826 232.425C239.031 229.479 237.646 226.337 236.782 223.006C235.766 219.086 235.326 215.092 235.533 211.013C235.755 206.642 236.713 202.489 238.591 198.544C238.727 198.26 238.887 197.914 238.837 197.63C238.605 196.289 238.306 194.962 237.968 193.334C237.262 194.26 236.71 194.887 236.267 195.578C234.102 198.962 232.922 202.723 232.504 206.679C231.703 214.216 232.969 221.397 236.794 227.996C237.973 230.028 239.336 231.979 241.319 233.362L241.316 233.365ZM302.28 224.968L302.247 224.999C301.898 224.517 301.577 224.012 301.195 223.558C298.857 220.781 297.323 217.559 296.329 214.113C294.711 208.521 294.57 202.848 296.229 197.231C296.761 195.428 297.556 193.663 298.494 192.032C299.453 190.365 300.729 188.885 302.014 187.123C301.989 186.438 302.039 185.481 301.735 184.492C298.433 185.222 296.074 187.16 294.196 189.699C292.003 192.665 290.817 196.091 290.369 199.729C289.549 206.397 290.82 212.661 294.407 218.37C295.722 220.463 297.42 222.253 299.461 223.644C300.308 224.221 301.336 224.531 302.283 224.96L302.28 224.968ZM459.292 145.301C459.038 145.677 458.744 146.031 458.539 146.435C456.639 150.165 455.116 154.065 453.872 158.051C451.355 166.119 448.993 174.233 446.6 182.337C446.315 183.304 446.162 184.33 446.088 185.337C445.883 188.074 445.6 190.789 445.005 193.476C444.725 194.736 444.645 196.047 444.514 197.337C444.321 199.275 444.165 201.215 443.994 203.138C443.739 203.267 443.578 203.345 443.421 203.425C443.274 203.501 443.127 203.579 442.983 203.657C443 203.746 443.013 203.835 443.03 203.922C445.126 203.83 447.226 203.74 449.278 203.651C449.488 203.28 449.641 203.052 449.76 202.807C453.022 196.097 454.925 189.047 455.174 181.551C455.271 178.68 455.57 175.811 455.803 172.946C456.127 168.968 456.526 164.998 456.797 161.017C457.088 156.749 457.833 152.56 458.677 148.381C458.888 147.347 459.065 146.307 459.259 145.27C459.337 145.192 459.414 145.111 459.312 145.214C459.342 145.061 459.317 145.181 459.295 145.303L459.292 145.301ZM355.13 103.785C355.13 103.785 355.152 103.762 355.163 103.751C355.573 104.189 355.961 104.646 356.393 105.058C359.187 107.723 360.89 111.004 361.857 114.718C362.275 116.326 362.754 117.915 363.214 119.551C370.229 120.081 374.81 124.126 378.238 129.991C378.421 129.682 378.554 129.5 378.643 129.302C379.559 127.254 380.03 125.088 380.304 122.869C380.36 122.431 380.518 122.007 380.628 121.578C380.667 121.628 380.706 121.678 380.706 121.678C380.703 121.678 380.648 121.645 380.592 121.614C380.534 120.878 380.435 120.142 380.426 119.406C380.401 117.299 380.03 115.244 379.399 113.249C378.463 110.296 377.086 107.562 374.746 105.479C373.345 104.233 371.766 103.188 370.797 102.452C367.883 101.716 365.623 101.195 363.228 101.666C360.877 102.131 358.86 103.241 356.9 104.295C356.31 104.125 355.72 103.955 355.127 103.785H355.13ZM443.54 142.831C443.443 143.029 443.285 143.221 443.26 143.43C442.98 145.872 442.684 148.311 442.465 150.762C442.327 152.334 442.288 153.914 442.243 155.492C442.022 163.286 441.263 171.058 441.418 178.869C441.449 180.419 441.116 181.975 440.97 183.53C440.911 184.138 440.909 184.751 440.881 185.359C440.402 184.141 440.579 182.881 440.485 181.646C440.402 180.586 440.413 179.496 440.15 178.482C438.942 173.81 437.696 169.149 436.389 164.507C434.6 158.154 433.201 151.729 432.584 145.145C432.55 144.799 432.44 144.459 432.298 143.806C432.124 144.573 431.996 145.016 431.922 145.471C431.119 150.199 430.756 154.976 430.792 159.754C430.861 168.483 431.102 177.211 431.34 185.939C431.476 190.909 430.819 195.751 429.44 200.51C429.161 201.48 428.872 202.447 428.56 203.515C432.453 203.869 436.253 203.958 440.141 203.866C440.695 202.271 441.216 200.788 441.723 199.3C442.645 196.593 443.443 193.858 443.681 190.987C443.725 190.435 443.642 189.827 443.85 189.348C444.503 187.84 444.44 186.259 444.398 184.704C444.165 176.118 443.872 167.532 443.603 158.946C443.492 155.464 443.346 151.985 443.299 148.504C443.274 146.605 443.429 144.704 443.504 142.803C443.567 142.46 443.631 142.114 443.695 141.771C443.642 141.766 443.589 141.76 443.537 141.758C443.537 142.117 443.537 142.477 443.537 142.836L443.54 142.831ZM384.22 131.641C384.193 131.519 384.165 131.393 384.198 131.538C384.107 131.435 384.184 131.521 384.259 131.608C384.021 132.199 383.852 132.829 383.528 133.37C382.938 134.359 382.26 135.296 381.639 136.219C381.709 136.525 381.733 136.762 381.817 136.974C382.841 139.636 384.121 142.145 386.262 144.099C387.065 144.832 387.602 145.632 387.214 146.781C387.012 146.809 386.813 146.839 386.658 146.859C387.051 147.718 387.427 148.545 387.823 149.412C387.823 149.412 387.951 149.401 388.114 149.385C389.283 151.595 390.142 153.928 390.648 156.398C391.399 160.039 391.415 163.685 390.659 167.315C390.449 168.321 390.441 169.21 390.931 170.13C391.989 172.123 392.507 174.311 392.839 176.505C393.393 180.16 393.324 183.82 392.244 187.402C391.972 188.305 391.9 189.195 392.028 190.142C392.748 195.492 392.003 200.599 389.413 205.377C389.261 205.656 389.05 205.901 388.868 206.163C388.632 204.903 388.46 203.743 388.937 202.637C390.117 199.913 390.59 197.047 390.679 194.104C390.695 193.524 390.629 192.941 390.593 192.163C389.945 193.067 389.43 193.786 388.765 194.714C388.488 193.323 388.602 192.294 389.039 191.296C389.374 190.533 389.757 189.788 390.047 189.008C392.069 183.575 391.942 178.105 390.255 172.625C390.122 172.193 389.884 171.794 389.673 171.337C389.3 171.847 388.893 172.246 388.676 172.734C388.231 173.737 387.884 174.788 387.397 176.09C388.053 180.096 388.045 184.372 386.774 188.598C385.641 192.361 383.819 195.681 380.911 198.355C380.592 198.647 380.36 199.032 380.088 199.372C380.036 199.403 379.983 199.431 380.008 199.417C379.991 199.436 380.03 199.392 380.069 199.347C380.498 199.238 380.961 199.199 381.351 199.01C383.888 197.775 385.973 195.994 387.588 193.66C387.785 193.373 388.037 193.125 388.303 192.819C388.884 194.6 388.214 195.899 387.087 196.927C386.406 202.703 384.345 207.671 380.027 211.549C383.761 210.28 386.237 207.562 388.272 204.245C388.881 206.378 388.001 207.83 386.674 209.121C385.242 210.514 383.763 211.891 381.875 212.594C380.061 213.271 378.665 214.353 377.372 215.805C375.358 218.069 372.738 219.438 369.75 220.045C367.761 220.449 365.792 221.068 363.785 221.255C360.813 221.534 357.88 221.138 355.219 219.605C353.911 218.849 352.574 218.323 351.023 218.562C350.76 218.604 350.475 218.518 350.203 218.47C347.467 217.996 344.991 216.945 342.858 215.122C342.374 214.71 341.856 214.339 341.219 213.846C339.671 216.499 337.716 218.696 335.481 220.441V234.349C337.347 234.825 407.033 244.342 408.362 244.125C408.24 240.306 409.14 236.88 412.624 234.499C410.079 232.297 408.284 229.785 408.473 226.401C408.655 223.098 409.946 220.302 412.931 218.428C412.375 217.927 411.926 217.536 411.491 217.129C409.611 215.359 408.536 213.193 408.597 210.584C408.708 205.895 411.27 202.369 416.391 201.07C419.262 200.342 422.201 200.058 425.156 199.933C426.02 199.896 426.878 199.81 427.787 199.743C428.033 198.815 428.305 198.026 428.44 197.215C428.593 196.303 428.687 195.372 428.698 194.446C428.762 189.942 428.792 185.434 428.828 180.929C428.828 180.62 428.781 180.31 428.742 179.878C427.701 179.993 426.751 180.126 425.798 180.199C423.824 180.349 421.866 180.542 419.872 180.193C415.51 179.427 412.098 177.138 409.4 173.715C407.484 171.281 406.196 168.519 405.584 165.455C405.432 164.689 405.254 163.925 405.074 163.086C398.547 160.872 394.822 156.011 392.795 149.655C391.022 148.858 389.075 148.573 387.643 147.171C387.519 146.611 387.353 146.048 387.638 145.393C388.172 145.73 388.638 146.025 389.106 146.315C391.202 147.62 393.526 148.261 395.949 148.225C400.513 148.152 404.252 146.117 407.113 142.641C411.237 137.629 412.555 131.756 411.583 125.4C411.065 122.007 409.727 118.882 407.492 116.234C405.639 114.04 403.404 112.384 400.61 111.537C397.118 110.48 393.756 110.801 390.532 112.426C389.064 113.165 387.638 114.032 386.666 115.27C386.666 115.54 386.652 115.635 386.666 115.724C387.463 120.059 387.2 124.335 385.829 128.511C385.467 129.612 385.223 130.844 384.215 131.638L384.22 131.641ZM198.724 250.419C243.565 259.446 288.369 268.464 333.174 277.484C333.476 275.893 333.387 236.896 333.093 235.848C327.95 235.151 322.78 234.468 317.615 233.752C312.419 233.03 307.207 232.422 301.887 231.569V226.864C301.231 226.507 300.713 226.209 300.181 225.938C298.004 224.832 296.237 223.243 294.656 221.386C292.269 218.579 290.798 215.304 289.638 211.85C289.463 211.334 289.186 210.843 288.898 210.381C288.336 209.477 287.727 208.605 287.148 207.716C286.879 207.3 286.63 206.871 286.37 206.444C286.256 206.536 286.206 206.556 286.201 206.584C286.173 206.718 286.14 206.854 286.143 206.988C286.276 212.109 285.578 217.079 283.514 221.81C282.432 224.294 281.069 226.588 279.161 228.531C278.676 229.024 278.205 229.546 277.823 230.117C277.233 231.001 276.69 231.923 276.186 232.863C275.267 234.574 273.913 235.938 272.467 237.136C271.096 238.274 269.573 239.297 267.759 239.692C264.829 240.331 261.893 240.947 258.969 241.619C257.792 241.889 256.623 241.962 255.415 241.964C251.868 241.967 248.907 240.498 246.138 238.466C245.731 238.168 245.337 237.814 244.883 237.618C240.621 235.795 237.616 232.59 235.312 228.681C233.321 225.303 232.008 221.643 231.316 217.759C231.13 216.72 230.787 215.699 230.435 214.701C229.803 212.909 228.945 211.183 228.474 209.355C227.081 203.938 226.727 198.455 227.97 192.944C228.283 191.559 228.216 190.234 227.948 188.832C227.275 185.298 227.269 181.729 227.768 178.158C228.097 175.803 228.729 173.528 229.551 171.304C229.723 170.841 229.817 170.35 229.978 169.748C223.957 167.524 220.191 163.049 217.388 157.377C216.25 160.259 215.023 162.779 213.259 165.031C211.442 167.351 209.129 168.943 206.617 169.966C206.313 172.065 206.1 173.955 205.756 175.822C204.945 180.269 203.383 184.403 200.466 187.918C199.954 188.537 199.799 189.178 199.829 189.967C200.001 194.357 199.616 198.684 198.303 202.901C198.157 203.378 198.021 203.919 198.099 204.393C198.727 208.217 198.835 212.059 198.567 215.92C198.445 217.679 198.176 219.438 198.198 221.191C198.306 230.482 198.484 239.771 198.641 249.062C198.65 249.471 198.688 249.881 198.722 250.419H198.724ZM313.391 96.23C310.83 91.9399 307.772 88.21 304.532 84.653C301.729 81.5755 298.666 78.7544 295.373 76.187C292.59 74.0182 289.646 72.1115 286.566 70.4445C282.988 68.5071 279.202 67.038 275.281 65.9118C272.916 65.2344 270.52 64.78 268.091 64.5264C262.727 63.9633 257.42 64.3731 252.147 65.555C249.154 66.2268 246.265 67.2081 243.493 68.443C238.583 70.6313 234.071 73.5081 229.931 76.9871C225.549 80.6723 221.744 84.8816 218.282 89.4282C218.213 89.5202 218.205 89.6596 218.122 89.9217C219.789 90.0973 221.406 90.1474 222.968 90.4652C224.58 90.7914 226.139 91.3768 227.818 91.8758C228.327 91.597 228.892 91.2904 229.454 90.9782C231.31 89.9467 233.287 89.3697 235.412 89.537C238.259 89.7628 241.094 90.1251 243.944 90.3175C245.725 90.4374 247.387 90.9196 249.023 91.5636C249.53 91.7643 250.023 92.0068 250.314 92.1378C251.884 91.19 253.252 90.2394 254.726 89.5063C256.512 88.617 258.437 88.0874 260.464 88.263C263.311 88.5111 266.15 88.8289 268.991 89.1132C271.896 89.4032 274.566 90.3119 276.89 92.1322C277.505 92.6145 278.144 93.0856 278.673 93.6543C279.77 94.8335 280.8 96.0767 281.786 97.2113C284.104 97.3674 286.389 97.5486 288.679 97.6545C289.303 97.6824 290.009 97.635 290.552 97.3646C292.759 96.2635 295.058 95.7785 297.508 95.9959C298.561 96.0907 299.616 96.1743 300.666 96.2747C303.828 96.5729 307.008 96.7904 309.741 98.3626C311.015 97.6183 312.159 96.9493 313.386 96.23H313.391ZM192.665 118.793C192.601 125.946 193.726 132.829 197.182 139.207C198.755 142.109 200.782 144.609 203.452 146.513C204.526 147.28 205.77 147.935 207.036 148.286C210.545 149.259 213.929 148.715 216.964 146.694C219.615 144.93 221.65 142.513 223.243 139.753C224.586 137.42 225.616 134.947 226.411 132.36C227.776 127.923 228.3 123.365 228.239 118.762C228.197 115.615 227.809 112.479 227.059 109.39C225.826 104.309 223.882 99.6142 220.332 95.7032C218.662 93.8606 216.732 92.4249 214.361 91.5831C209.902 89.9969 205.964 91.1482 202.496 94.0278C198.652 97.2197 196.376 101.51 194.822 106.213C193.474 110.296 192.765 114.489 192.668 118.799L192.665 118.793ZM386.165 113.299C386.408 113.148 386.594 113.031 386.782 112.92C388.045 112.159 389.264 111.311 390.576 110.656C392.856 109.521 395.298 109.123 397.838 109.368C399.763 109.555 401.707 109.627 403.609 109.942C406.335 110.394 408.794 111.531 410.929 113.335C413.236 115.281 414.978 117.639 416.136 120.435C416.507 121.33 416.853 122.236 417.227 123.175C418.656 123.655 420.104 124.143 421.716 124.683C421.398 123.889 421.187 123.278 420.913 122.696C417.216 114.79 412.646 107.473 406.645 101.1C400.533 94.6104 393.518 89.4617 385.292 85.9939C380.523 83.9812 375.574 82.6989 370.462 82.1609C362.929 81.3664 355.52 82.2362 348.356 84.7088C341.429 87.0978 335.201 90.7691 329.67 95.6168C329.438 95.8203 329.249 96.0767 328.964 96.3917C333.049 97.5821 335.99 100.149 338.369 103.534C338.738 103.333 339.056 103.163 339.372 102.99C341.543 101.8 343.825 100.866 346.329 100.947C349.826 101.061 353.333 101.245 356.697 102.38C356.822 102.421 356.972 102.385 357.202 102.385C360.19 100.503 363.494 99.525 367.125 99.9153C369.071 100.124 371.038 100.236 372.954 100.609C375.901 101.184 378.521 102.474 380.723 104.607C382.545 106.371 383.999 108.367 385.007 110.698C385.373 111.54 385.749 112.376 386.162 113.301L386.165 113.299ZM156.587 208.29C156.673 209.402 156.742 210.514 156.842 211.624C157.446 218.3 159.251 224.567 163.068 230.148C164.58 232.358 166.446 234.223 168.789 235.505C169.822 236.071 171.016 236.484 172.179 236.634C175.27 237.036 177.893 235.851 180.064 233.71C181.933 231.87 183.246 229.598 184.207 227.176C186.082 222.454 186.758 217.486 186.641 212.438C186.53 207.635 185.738 202.929 184.071 198.394C182.551 194.254 180.521 190.446 177.222 187.43C175.442 185.799 173.445 184.654 171.016 184.327C168.593 184.004 166.463 184.668 164.533 186.109C161.475 188.395 159.813 191.645 158.573 195.127C157.061 199.372 156.593 203.799 156.579 208.287L156.587 208.29ZM216.565 150.533C217.092 152.052 217.493 153.382 218.008 154.667C219.617 158.676 221.772 162.302 225.14 165.11C227.984 167.479 231.127 168.75 234.91 168.508C236.976 168.374 238.821 167.722 240.524 166.737C243.077 165.26 245.105 163.111 246.694 160.638C248.913 157.184 250.389 153.396 251.275 149.359C251.959 146.251 252.269 143.11 252.247 139.957C252.225 136.759 251.859 133.579 251.12 130.437C249.81 124.859 247.506 119.836 243.543 115.654C242.723 114.79 240.848 113.46 239.989 113.193C240.241 116.493 240.557 119.76 240.319 123.072C239.893 128.99 238.538 134.613 235.655 139.829C234.182 142.491 232.346 144.821 230.014 146.795C227.203 149.173 223.976 150.279 220.365 150.408C219.628 150.433 218.889 150.41 218.149 150.43C217.698 150.441 217.249 150.491 216.565 150.539V150.533ZM263.688 146.968C263.599 146.973 263.513 146.976 263.425 146.982C263.303 147.55 263.142 148.116 263.062 148.693C262.677 151.433 261.733 154.018 260.65 156.518C259.844 158.377 258.789 160.156 257.634 161.823C256.124 163.997 254.269 165.887 252.009 167.312C250.242 168.427 248.37 169.341 246.265 169.547C243.881 169.782 241.485 169.971 239.089 170.044C236.672 170.119 234.262 170.632 231.695 170.077C231.77 170.704 231.8 171.203 231.889 171.691C232.279 173.84 232.844 175.937 233.606 177.991C235.364 182.733 237.926 186.898 241.906 190.078C244.16 191.879 246.741 193.039 249.597 193.251C253.679 193.554 257.221 192.024 260.165 189.259C263.804 185.838 265.959 181.47 267.255 176.709C268.559 171.928 268.889 167.036 268.412 162.082C267.994 157.745 266.856 153.608 265.156 149.621C264.76 148.696 264.181 147.849 263.685 146.968H263.688ZM271.212 140.91C271.235 141.055 271.218 141.167 271.265 141.233C272.852 143.486 274.677 145.518 277.067 146.912C278.133 147.534 279.321 148.044 280.518 148.32C285.478 149.454 289.748 147.89 293.352 144.495C296.697 141.342 298.771 137.334 300.009 132.943C301.084 129.135 301.516 125.227 301.239 121.235C300.868 115.944 299.538 111.002 296.603 106.55C294.196 102.904 291.081 100.222 286.735 99.2267C285.486 98.9396 284.221 98.9173 282.841 98.9591C282.972 99.316 283.032 99.4888 283.096 99.656C283.739 101.298 284.525 102.898 284.999 104.587C286.162 108.724 286.647 112.945 286.309 117.265C286.145 119.365 285.791 121.411 285.331 123.446C284.522 127.017 283.038 130.317 280.997 133.328C280.094 134.657 278.981 135.876 277.812 136.982C276.228 138.482 274.4 139.667 272.32 140.406C271.935 140.542 271.572 140.746 271.215 140.91H271.212ZM416.548 202.706C414.211 203.437 412.239 204.515 411.129 206.785C409.146 210.841 410.323 215.167 414.842 217.567C416.834 218.624 418.988 219.089 421.171 219.477C425.175 220.182 429.216 220.491 433.27 220.689C439.961 221.013 446.639 220.962 453.285 220.04C455.116 219.786 456.933 219.393 458.589 218.546C460.896 217.366 462.61 215.646 463.23 212.993C463.987 209.77 462.034 204.652 456.797 203.52C455.889 204.317 454.734 204.669 453.532 204.772C450.272 205.056 447.013 205.396 443.745 205.491C436.641 205.695 429.54 205.502 422.481 204.588C420.39 204.317 418.246 204.153 416.548 202.709V202.706ZM310.838 118.718C310.722 118.785 310.608 118.849 310.492 118.916C310.536 119.602 310.561 120.29 310.63 120.973C310.987 124.566 310.672 128.104 309.877 131.619C308.739 136.656 306.628 141.183 303.031 144.919C300.331 147.723 297.162 149.713 293.205 150.095C291.51 150.26 289.801 150.274 288.098 150.363C287.713 150.382 287.328 150.433 286.791 150.483C287.189 151.514 287.513 152.376 287.851 153.231C289.544 157.513 292.061 161.179 295.955 163.707C297.179 164.502 298.547 165.213 299.946 165.561C304.911 166.796 309.389 165.586 313.209 162.224C316.706 159.147 318.88 155.158 320.19 150.728C321.437 146.508 321.877 142.159 321.29 137.777C320.996 135.577 320.614 133.356 319.938 131.251C318.678 127.323 316.717 123.752 313.635 120.926C312.763 120.126 311.777 119.445 310.843 118.712L310.838 118.718ZM458.414 220.438C454.731 221.732 450.92 222.055 447.096 222.287C441.379 222.632 435.663 222.532 429.955 222.136C425.859 221.852 421.774 221.442 417.781 220.41C416.715 220.134 415.673 219.755 414.643 219.429C412.962 220.157 411.716 221.272 410.976 222.911C409.265 226.705 409.816 230.569 414.175 233.523C416.083 234.817 418.271 235.419 420.481 235.899C424.317 236.732 428.208 237.15 432.127 237.401C437.89 237.769 443.648 237.802 449.394 237.209C451.449 236.997 453.507 236.634 455.512 236.13C457.57 235.611 459.489 234.747 460.987 233.089C464.682 228.994 463.516 222.889 458.414 220.441V220.438ZM458.852 236.927C456.611 237.468 454.62 238.062 452.585 238.419C448.253 239.174 443.869 239.299 439.482 239.291C433.891 239.28 428.324 238.912 422.802 238.014C419.839 237.532 416.931 236.83 414.255 235.503C411.32 236.949 410.181 239.433 410.004 242.43C409.824 245.502 411.411 247.763 413.715 249.51C415.729 251.038 418.105 251.816 420.545 252.418C424.411 253.369 428.338 253.865 432.301 254.132C438.344 254.539 444.382 254.598 450.394 253.762C453.321 253.355 456.207 252.764 458.794 251.166C460.694 249.996 461.943 248.345 462.668 246.271C463.615 243.567 462.253 238.499 458.849 236.927H458.852ZM458.835 253.123C457.86 253.497 456.983 253.954 456.052 254.166C453.717 254.698 451.377 255.289 449.004 255.557C441.216 256.435 433.431 256.167 425.679 255.077C421.605 254.506 417.59 253.65 413.909 251.66C413.84 251.621 413.729 251.654 413.654 251.654C412.056 252.694 411.173 253.631 410.638 255.01C409.035 259.161 409.91 262.88 413.912 265.918C416.474 267.861 419.509 268.714 422.58 269.409C427.823 270.593 433.143 271.076 438.507 271.12C443.221 271.159 447.915 270.975 452.543 269.955C454.814 269.453 457.019 268.751 458.921 267.385C461.203 265.746 462.751 263.541 462.726 260.63C462.699 257.564 461.61 254.913 458.835 253.126V253.123ZM298.411 166.955C299.057 169.411 299.453 171.66 300.295 173.852C301.189 176.179 302.358 178.298 303.787 180.299C305.285 182.401 307.143 184.155 309.348 185.451C312.159 187.101 315.233 187.951 318.498 187.385C320.11 187.107 321.75 186.622 323.204 185.886C326.142 184.4 328.382 182.089 330.141 179.271C331.033 177.843 331.678 176.319 332.37 174.802C333.005 173.417 333.293 171.987 333.246 170.481C333.093 165.517 332.955 160.549 332.753 155.587C332.653 153.176 331.822 150.968 330.573 148.919C330.424 148.674 330.221 148.462 329.933 148.097C329.604 149.424 329.41 150.575 329.031 151.656C327.599 155.724 325.632 159.476 322.45 162.472C320.822 164.006 319.022 165.26 316.95 166.127C315.266 166.832 313.533 167.253 311.719 167.303C307.911 167.412 304.105 168.254 300.295 167.315C299.766 167.184 299.22 167.108 298.414 166.955H298.411ZM239.411 190.176C239.502 191.391 239.497 192.37 239.66 193.32C240.721 199.431 242.612 205.201 246.65 210.054C249.159 213.071 252.134 215.354 256.022 216.341C258.996 217.096 261.818 216.617 264.499 215.396C266.972 214.269 268.964 212.396 270.548 210.205C273.686 205.862 275.261 200.891 275.871 195.603C276.256 192.269 276.109 188.933 275.727 185.604C275.666 185.086 275.511 184.578 275.344 183.828C274.633 184.921 274.145 185.822 273.517 186.605C271.858 188.671 269.999 190.533 267.695 191.887C266.086 192.832 264.361 193.568 262.536 193.786C258.553 194.257 254.551 194.561 250.552 194.887C248.627 195.043 246.772 194.519 245.044 193.78C243.23 193.003 241.446 192.083 240.039 190.608C239.917 190.482 239.746 190.407 239.408 190.181L239.411 190.176ZM266.274 137.428C267.302 136.561 268.293 135.862 269.119 135.006C272.209 131.797 274.12 127.892 275.3 123.646C276.643 118.807 276.94 113.842 276.203 108.878C275.53 104.336 274.062 100.038 271.365 96.2691C269.839 94.1365 267.964 92.2939 265.604 91.1621C261.073 88.985 256.739 89.6178 252.696 92.5281C252.419 92.726 252.219 93.0326 251.962 93.3114C254.673 95.5805 256.637 98.3124 258.055 101.423C260.046 105.789 260.96 110.427 261.007 115.208C261.029 117.424 260.741 119.649 260.495 121.859C260.403 122.676 260.414 123.418 260.744 124.162C261.987 126.978 262.754 129.938 263.308 132.96C263.508 134.05 263.624 135.154 263.796 136.372C264.563 136.698 265.355 137.038 266.277 137.431L266.274 137.428ZM363.879 122.905C363.909 123.46 363.915 123.777 363.945 124.095C364.275 127.504 363.984 130.858 363.084 134.164C361.968 138.265 360.093 141.919 357.091 144.969C354.199 147.91 350.823 149.817 346.675 150.14C345.113 150.263 343.545 150.265 341.981 150.335C341.59 150.352 341.202 150.41 340.64 150.466C341.078 151.523 341.424 152.423 341.817 153.301C343.343 156.713 345.55 159.548 348.658 161.667C351.89 163.869 355.465 164.566 359.212 163.869C363.225 163.125 366.382 160.808 368.85 157.575C370.927 154.851 372.276 151.782 373.068 148.434C373.904 144.896 373.984 141.337 373.392 137.794C372.741 133.902 371.309 130.281 368.828 127.175C367.507 125.522 366.055 123.967 363.881 122.908L363.879 122.905ZM394.728 149.883C394.744 150.165 394.722 150.313 394.767 150.433C396.251 154.341 398.464 157.661 402.089 159.922C405.548 162.077 409.248 162.567 413.12 161.611C417.584 160.507 420.766 157.602 423.051 153.716C424.865 150.633 425.793 147.227 425.843 143.631C425.929 137.205 423.854 131.683 418.83 127.524C417.268 126.23 415.488 125.23 413.239 124.881C413.311 125.868 413.35 126.78 413.447 127.688C413.66 129.698 413.447 131.689 413.07 133.643C412.383 137.205 410.96 140.464 408.675 143.296C406.697 145.749 404.299 147.645 401.336 148.805C399.239 149.624 397.071 149.878 394.731 149.889L394.728 149.883ZM339.458 105.045C339.654 105.58 339.771 105.92 339.903 106.254C340.38 107.461 340.964 108.635 341.327 109.875C342.393 113.513 342.767 117.221 342.438 121.023C342.119 124.686 341.136 128.148 339.51 131.402C338.668 133.088 337.691 134.744 336.309 136.085C335.123 137.233 333.93 138.379 332.639 139.622C332.725 139.99 332.839 140.472 332.933 140.877C335.763 143.009 337.785 145.691 339.433 148.565C341.651 148.607 344.06 148.016 345.805 147.018C349.234 145.053 351.79 142.22 353.549 138.716C355.775 134.284 356.689 129.559 356.351 124.569C356.038 119.922 354.734 115.651 352.045 111.838C349.627 108.409 346.467 106.082 342.31 105.287C341.427 105.117 340.507 105.128 339.46 105.045H339.458ZM350.023 164.427C350.087 165.015 350.106 165.511 350.2 165.99C350.835 169.252 351.92 172.335 353.77 175.117C356.587 179.354 360.278 182.248 365.43 183.02C368.177 183.433 370.808 182.967 373.24 181.807C378.147 179.463 381.099 175.326 382.822 170.275C384.035 166.721 384.337 163.03 383.941 159.283C383.589 155.961 382.55 152.861 381.038 149.906C380.903 149.638 380.675 149.418 380.393 149.047C380.224 149.532 380.094 149.867 379.994 150.21C378.828 154.151 376.92 157.639 373.948 160.51C370.985 163.373 367.545 165.151 363.394 165.411C361.137 165.553 358.885 165.72 356.628 165.871C356.401 165.884 356.16 165.901 355.941 165.851C354.194 165.455 352.352 165.458 350.724 164.569C350.574 164.488 350.378 164.493 350.029 164.421L350.023 164.427ZM303.402 182.705C303.452 184.91 303.623 186.976 304.02 189.03C305.269 195.495 308.068 201.028 313.422 205.039C315.657 206.715 318.194 207.771 320.941 207.922C325.965 208.198 330.061 206.177 333.226 202.327V185.442C332.753 185.704 332.407 185.919 332.041 186.095C331.008 186.594 329.98 187.104 328.928 187.558C327.557 188.152 326.103 188.364 324.622 188.487C323.06 188.615 321.509 188.866 319.944 188.974C318.387 189.083 316.809 189.228 315.264 189.086C313.292 188.905 311.353 188.422 309.611 187.383C308.783 186.886 307.911 186.449 307.149 185.863C305.917 184.913 304.762 183.865 303.399 182.708L303.402 182.705ZM216.743 148.791C218.13 148.791 219.282 148.824 220.432 148.785C223.015 148.693 225.461 148.033 227.624 146.602C230.047 145 231.975 142.848 233.503 140.397C236.4 135.756 237.946 130.593 238.538 125.196C239.051 120.53 238.898 115.866 237.868 111.216C237.023 107.411 235.799 103.818 233.791 100.492C231.496 96.6928 228.524 93.7017 224.168 92.3859C222.312 91.8256 220.387 91.8702 218.457 91.728C218.803 92.1601 219.196 92.4612 219.581 92.7678C219.977 93.0856 220.404 93.3727 220.756 93.7351C224.508 97.5737 226.837 102.246 228.233 107.364C229.56 112.223 230.061 117.199 229.748 122.261C229.374 128.318 228.045 134.083 225.206 139.48C223.223 143.252 220.523 146.329 216.737 148.794L216.743 148.791ZM166.682 165.213C167.081 165.045 167.479 164.942 167.809 164.725C169.304 163.744 171.027 163.565 172.711 163.462C175.929 163.27 179.161 163.158 182.385 163.208C183.78 163.231 185.234 163.554 186.542 164.059C188.167 164.683 189.696 165.597 190.892 166.944C191.687 167.839 192.515 168.708 193.28 169.628C193.859 170.325 194.363 171.086 194.9 171.819C195.121 169.893 195.199 168.042 195.108 166.199C194.822 160.513 193.468 155.099 190.596 150.159C188.873 147.199 186.68 144.637 183.412 143.288C181.141 142.351 178.837 142.329 176.574 143.338C173.508 144.704 171.57 147.219 170.041 150.079C168.066 153.769 167.164 157.795 166.701 161.923C166.585 162.969 166.685 164.039 166.685 165.207L166.682 165.213ZM385.985 177.829C384.616 179.053 383.561 180.179 382.332 181.06C379.692 182.95 376.737 184.068 373.467 184.269C372.456 184.33 371.453 184.531 370.442 184.606C369.066 184.707 367.667 184.904 366.305 184.785C361.912 184.397 358.16 182.571 355.105 179.349C354.424 178.63 353.751 177.896 352.909 176.993C352.837 178.234 352.701 179.201 352.743 180.163C352.884 183.43 353.482 186.605 354.811 189.618C356.889 194.329 360.004 198.017 364.829 200.055C368.426 201.577 372.054 201.471 375.585 199.991C378.975 198.569 381.476 196.01 383.276 192.835C385.353 189.172 386.253 185.164 386.223 180.952C386.217 179.99 386.081 179.031 385.985 177.829ZM241.549 168.106C241.579 168.187 241.61 168.268 241.637 168.349C243.055 168.215 244.473 168.062 245.891 167.956C247.741 167.816 249.381 167.047 250.896 166.099C254.795 163.666 257.346 160.028 259.165 155.896C260.855 152.061 261.807 148.007 262.126 143.798C262.45 139.508 262.214 135.276 261.259 131.078C260.002 125.553 257.764 120.533 253.776 116.44C252.388 115.016 250.768 113.884 248.949 113.017C246.838 112.011 244.601 111.874 242.346 111.726C242.067 111.707 241.787 111.726 241.504 111.726C241.474 111.818 241.443 111.913 241.413 112.005C243.57 113.198 245.171 114.977 246.694 116.842C248.256 118.76 249.439 120.917 250.43 123.161C251.671 125.966 252.546 128.898 253.1 131.928C253.654 134.956 253.887 137.997 253.845 141.069C253.801 144.239 253.477 147.383 252.657 150.441C252.048 152.721 251.347 154.996 250.425 157.162C249.669 158.94 248.639 160.63 247.531 162.216C246.044 164.348 244.26 166.236 242.055 167.666C241.87 167.786 241.718 167.958 241.551 168.106H241.549ZM180.654 235.745C182.149 235.494 183.656 235.299 185.135 234.976C187.303 234.502 189.178 233.44 190.721 231.826C193.629 228.784 195.182 225.018 196.118 221.001C197.138 216.633 197.401 212.184 196.847 207.713C196.664 206.247 196.415 204.786 196.19 203.325C195.778 200.643 194.939 198.079 193.856 195.62C192.393 192.297 190.566 189.225 187.782 186.764C185.342 184.606 182.684 183.327 179.394 183.575C178.336 183.656 177.275 183.714 176.217 183.792C175.937 183.812 175.66 183.87 175.201 183.94C176.128 184.559 176.907 184.98 177.571 185.537C181.172 188.565 183.542 192.476 185.223 196.802C186.929 201.195 187.893 205.775 188.153 210.503C188.447 215.842 187.965 221.066 186.267 226.164C185.074 229.749 183.218 232.888 180.651 235.742L180.654 235.745ZM240.743 203.498C240.626 203.501 240.51 203.503 240.391 203.506C240.471 205.168 240.491 206.832 240.64 208.488C241.252 215.245 243.327 221.459 247.608 226.794C249.937 229.696 252.748 231.929 256.418 232.958C260.752 234.173 264.56 233.041 267.884 230.276C271.334 227.405 273.223 223.468 274.511 219.237C274.91 217.927 275.081 216.55 275.392 215.047C274.724 215.359 274.251 215.638 273.741 215.811C271.905 216.427 270.058 216.987 268.116 217.224C265.967 217.486 263.84 217.949 261.685 218.178C260.182 218.336 258.622 218.451 257.141 218.233C252.56 217.561 248.902 215.128 245.897 211.691C244.221 209.773 242.784 207.665 241.704 205.332C241.413 204.708 241.064 204.108 240.743 203.498ZM333.268 207.994C332.974 208.028 332.794 208.033 332.623 208.072C329.385 208.803 326.12 209.327 322.799 209.547C319.285 209.781 316.097 208.764 313.233 206.896C309.226 204.281 306.415 200.571 304.512 196.172C303.959 194.893 303.488 193.577 302.887 192.038C302.754 192.526 302.682 192.74 302.638 192.963C302.109 195.62 302.009 198.296 302.258 200.995C302.801 206.879 304.709 212.204 308.595 216.717C311.01 219.524 313.906 221.528 317.57 222.356C320.29 222.972 322.924 222.643 325.414 221.601C328.817 220.176 331.166 217.506 333.019 214.367C333.135 214.172 333.251 213.938 333.251 213.72C333.271 211.827 333.262 209.937 333.262 207.994H333.268ZM263.81 138.22C263.81 139.815 263.862 141.197 263.79 142.577C263.746 143.455 263.92 144.208 264.375 144.952C265.732 147.168 266.887 149.474 267.795 151.93C269.476 156.476 270.226 161.193 270.246 165.988C270.268 171.022 269.504 175.97 267.59 180.695C265.726 185.3 263.167 189.342 258.999 192.186C258.955 192.216 258.969 192.336 258.933 192.545C260.287 192.395 261.641 192.395 262.918 192.077C267.1 191.043 270.235 188.445 272.683 184.991C274.461 182.482 275.735 179.678 276.593 176.728C277.175 174.732 277.679 172.672 277.862 170.61C278.108 167.805 278.441 164.976 277.959 162.146C277.704 160.644 277.546 159.124 277.308 157.622C276.843 154.709 275.846 151.949 274.594 149.315C273.278 146.549 271.611 143.957 269.368 141.847C267.831 140.403 266.208 139.006 263.804 138.22H263.81ZM159.381 189.504C159.996 188.654 160.398 187.901 160.979 187.335C162.162 186.181 163.356 185.005 164.704 184.065C166.538 182.789 168.742 182.588 170.908 182.44C173.531 182.259 176.164 182.237 178.779 181.977C181.451 181.715 183.905 182.184 186.19 183.589C186.489 183.773 186.824 183.89 187.253 184.093C187.234 183.781 187.248 183.603 187.212 183.435C186.248 178.945 184.656 174.732 181.914 171.003C180.349 168.876 178.51 167.08 176.092 166.004C173.81 164.99 171.467 164.85 169.127 165.893C166.156 167.22 164.239 169.609 162.741 172.388C160.75 176.079 159.83 180.101 159.412 184.238C159.246 185.883 159.384 187.558 159.384 189.507L159.381 189.504ZM428.872 177.208C428.817 169.729 429.138 162.375 428.717 154.787C428.341 155.23 428.078 155.475 427.889 155.768C426.901 157.304 425.688 158.665 424.228 159.713C422.78 160.752 421.243 161.778 419.592 162.397C415.781 163.824 411.774 163.947 407.75 163.601C407.489 163.579 407.226 163.599 406.866 163.599C407.204 165.675 407.725 167.571 408.617 169.369C411.223 174.607 415.202 178.005 421.11 178.727C423.774 179.053 426.308 178.44 428.87 177.211L428.872 177.208ZM199.6 186.36C200.073 185.78 200.419 185.468 200.627 185.077C201.306 183.812 202.037 182.56 202.56 181.23C204.299 176.818 204.995 172.19 204.895 167.468C204.795 162.852 204.022 158.324 202.261 154.034C200.896 150.709 199.065 147.695 196.301 145.287C193.573 142.909 189.898 142.181 186.09 142.714C186.954 143.475 187.785 144.197 188.608 144.935C188.915 145.211 189.214 145.504 189.483 145.819C192.449 149.315 194.304 153.396 195.451 157.786C196.836 163.088 197.154 168.491 196.517 173.946C196.465 174.39 196.487 174.894 196.65 175.298C198.054 178.752 198.988 182.331 199.597 186.357L199.6 186.36ZM269.058 139.369C271.091 139.408 272.755 138.63 274.256 137.685C277.926 135.374 280.393 131.976 282.094 128.029C283.606 124.516 284.473 120.834 284.694 116.99C285.065 110.545 284.018 104.454 280.692 98.8253C279.072 96.0823 276.99 93.8466 274.237 92.3162C272.439 91.3155 270.465 90.7384 268.127 90.7524C268.509 91.0674 268.731 91.2179 268.914 91.4102C270.243 92.8124 271.697 94.1226 272.852 95.6614C274.27 97.5458 275.272 99.6923 276.095 101.934C277.552 105.906 278.189 110.018 278.178 114.213C278.167 118.793 277.402 123.262 275.666 127.532C274.051 131.496 271.877 135.051 268.462 137.724C268.224 137.911 268.039 138.17 267.756 138.477C268.288 138.842 268.734 139.151 269.058 139.374V139.369ZM371.642 215.011C371.032 215.011 370.714 215 370.392 215.011C367.379 215.136 364.635 214.177 362.12 212.652C358.716 210.587 356.216 207.599 354.454 204.05C351.992 199.091 351.244 193.811 352.05 188.33C352.247 186.984 351.904 185.794 351.405 184.375C350.713 185.141 350.081 185.746 349.555 186.435C347.126 189.627 345.902 193.278 345.631 197.265C345.163 204.147 347.074 210.233 351.898 215.214C353.809 217.188 356.135 218.559 358.855 219.287C361.483 219.99 364.009 219.669 366.454 218.802C368.404 218.111 370.099 216.884 371.639 215.005L371.642 215.011ZM353.582 191.032C353.139 192.155 353.388 193.122 353.452 194.076C353.831 199.746 355.847 204.713 359.844 208.78C361.851 210.827 364.239 212.276 367.039 212.979C369.323 213.553 371.564 213.472 373.849 212.859C375.768 212.343 377.408 211.418 378.931 210.183C381.409 208.17 382.966 205.522 384.159 202.62C384.688 201.338 384.996 199.74 384.916 198.873C384.015 199.381 383.14 199.896 382.246 200.367C381.758 200.624 381.252 200.864 380.728 201.023C377.452 202.026 374.104 202.598 370.681 202.717C365.665 202.893 361.577 200.855 358.074 197.396C356.246 195.592 354.903 193.44 353.579 191.029L353.582 191.032ZM292.69 99.7759C292.659 99.8679 292.631 99.9627 292.601 100.057C292.739 100.163 292.872 100.278 293.014 100.378C296.057 102.566 298.17 105.527 299.785 108.85C300.962 111.272 301.749 113.842 302.28 116.499C303.086 120.549 303.164 124.628 302.571 128.684C301.915 133.172 300.519 137.431 298.021 141.273C296.622 143.422 295.021 145.376 292.944 146.898C292.233 147.419 291.526 147.949 290.571 148.66C293.568 148.704 296.052 148.066 298.295 146.708C301.926 144.515 304.449 141.267 306.213 137.462C307.839 133.955 308.766 130.245 309.041 126.345C309.403 121.207 308.714 116.281 306.761 111.523C305.025 107.289 302.427 103.771 298.422 101.468C296.658 100.453 294.756 99.7843 292.692 99.7787L292.69 99.7759ZM267.681 215.446C267.897 215.499 268.025 215.566 268.147 215.554C273.021 215.072 276.862 212.708 279.762 208.836C281.601 206.383 282.877 203.593 283.744 200.629C285.01 196.311 285.42 191.915 285.107 187.424C284.794 182.928 283.667 178.649 281.855 174.551C281.282 173.252 280.474 172.062 279.742 170.766C279.609 170.961 279.529 171.028 279.515 171.106C278.898 174.392 278.197 177.651 276.882 180.751C276.665 181.261 276.657 181.955 276.796 182.504C277.35 184.726 277.499 186.992 277.654 189.262C277.956 193.616 277.391 197.886 276.247 202.065C275.749 203.888 275.012 205.672 274.165 207.364C272.893 209.898 271.259 212.209 269.157 214.144C268.692 214.573 268.21 214.983 267.681 215.448V215.446ZM330.95 131.485C332.168 129.866 332.855 128.042 333.39 126.194C334.389 122.749 334.799 119.231 334.484 115.612C334.101 111.225 332.902 107.166 330.421 103.511C328.175 100.205 325.25 97.872 321.284 97.058C319.758 96.7458 318.207 96.5729 316.485 97.1416C323.032 107.924 327.798 119.331 330.95 131.482V131.485ZM311.372 165.592C313.837 165.742 315.864 164.992 317.753 163.964C321.403 161.976 323.99 158.879 325.815 155.208C328.164 150.48 329.105 145.421 328.895 140.113C328.74 136.16 327.909 132.394 326.325 128.792C324.525 124.703 321.902 121.291 317.991 119.044C316.103 117.96 314.084 117.168 311.577 117.238C312.068 117.614 312.378 117.859 312.693 118.096C313.247 118.512 313.862 118.863 314.347 119.348C315.953 120.948 317.46 122.621 318.656 124.589C319.678 126.27 320.531 128.023 321.124 129.866C321.819 132.02 322.406 134.234 322.777 136.467C323.298 139.592 323.24 142.761 322.846 145.908C322.387 149.58 321.367 153.112 319.659 156.376C317.836 159.858 315.477 162.941 312.062 165.051C311.876 165.165 311.716 165.316 311.372 165.586V165.592ZM190.915 120.56C190.272 120.848 189.851 121.023 189.444 121.221C186.398 122.699 184.409 125.224 182.847 128.118C180.836 131.842 179.9 135.904 179.394 140.077C179.369 140.291 179.416 140.511 179.43 140.787C179.964 140.813 180.416 140.849 180.87 140.852C183.545 140.874 186.218 140.877 188.893 140.907C191.535 140.938 194.03 141.588 196.185 143.135C198.691 144.935 200.63 147.277 202.12 150.006C203.618 152.752 204.704 155.646 205.427 158.684C205.46 158.818 205.598 158.927 205.753 159.136C206.828 156.172 207.686 153.307 207.933 150.285C207.767 150.196 207.653 150.09 207.526 150.073C205.737 149.831 204.178 148.941 202.737 147.993C200.123 146.274 198.051 143.924 196.462 141.231C193.296 135.876 191.632 130.03 191.225 123.816C191.158 122.807 191.036 121.801 190.917 120.56H190.915ZM323.694 224.263C322.428 224.263 321.201 224.257 319.974 224.263C316.665 224.277 313.74 223.078 311.101 221.202C308.279 219.195 306.005 216.636 304.429 213.519C303.554 211.788 302.696 210.029 302.07 208.198C300.879 204.708 300.386 201.084 300.536 197.382C300.619 195.339 300.776 193.306 301.339 191.327C301.386 191.163 301.344 190.973 301.344 190.641C301.109 190.915 300.948 191.071 300.824 191.252C297.78 195.645 296.608 200.602 296.705 205.867C296.799 211.066 298.098 215.967 300.904 220.385C303.466 224.422 306.806 227.452 311.586 228.606C314.17 229.228 316.645 228.771 319.011 227.814C320.852 227.073 322.431 225.832 323.694 224.257V224.263ZM197.149 200.211C197.354 199.843 197.45 199.737 197.478 199.615C198.132 196.794 198.345 193.911 198.276 191.04C198.171 186.569 197.475 182.178 195.911 177.955C194.759 174.844 193.244 171.936 191.097 169.414C190.264 168.435 189.278 167.554 188.242 166.793C185.168 164.538 181.667 164.605 177.989 164.992C178.175 165.199 178.244 165.319 178.349 165.383C180.108 166.45 181.54 167.878 182.8 169.494C185.052 172.377 186.669 175.591 187.694 179.101C188.239 180.966 188.682 182.864 189.106 184.765C189.283 185.565 189.654 186.176 190.161 186.817C191.449 188.445 192.72 190.103 193.795 191.876C195.31 194.38 196.29 197.145 197.151 200.214L197.149 200.211ZM229.23 93.0354C232.033 95.1038 234.063 97.6768 235.738 100.595C237.411 103.509 238.361 106.686 239.38 109.862C240.95 109.981 242.463 110.118 243.975 110.21C245.731 110.316 247.453 110.547 249.062 111.333C249.486 111.54 249.957 111.651 250.544 111.855C250.494 111.066 250.511 110.461 250.408 109.878C249.669 105.697 248.511 101.666 246.146 98.0782C244.052 94.9004 241.441 92.358 237.638 91.4298C234.683 90.7078 231.903 91.2067 229.23 93.0354ZM265.754 234.577C265.709 234.485 265.662 234.393 265.618 234.301C265.003 234.41 264.383 234.485 263.779 234.636C262.383 234.984 260.979 235.051 259.542 235.054C255.953 235.059 252.87 233.668 250.12 231.555C246.332 228.645 243.734 224.748 241.9 220.377C239.69 215.097 238.649 209.564 238.868 203.813C238.879 203.515 238.821 203.214 238.796 202.913C238.475 203.308 238.286 203.724 238.178 204.159C237.406 207.281 236.987 210.456 237.084 213.673C237.262 219.46 238.544 224.971 241.358 230.075C243.437 233.847 246.163 236.997 250.009 238.987C252.347 240.197 254.85 240.66 257.509 240.116C259.406 239.729 261.109 238.954 262.622 237.805C263.815 236.896 264.832 235.765 265.754 234.577ZM298.799 175.042C296.528 174.997 294.523 175.669 292.667 176.921C290.665 178.27 289.208 180.082 287.995 182.147C287.001 183.837 286.469 185.56 286.694 187.569C287.065 190.909 286.877 194.257 286.118 197.53C285.755 199.102 285.888 200.565 286.397 202.034C286.746 203.044 287.123 204.044 287.538 205.026C287.785 205.608 288.137 206.146 288.441 206.704C288.638 206.205 288.618 205.767 288.594 205.329C288.555 204.588 288.458 203.846 288.486 203.108C288.624 199.562 289.153 196.094 290.613 192.819C292.656 188.227 295.664 184.654 300.61 183.087C300.995 182.964 301.361 182.78 301.701 182.641C301.887 181.727 302.067 180.899 301.632 180.11C300.718 178.451 299.785 176.806 298.799 175.047V175.042ZM347.038 148.15C347.071 148.244 347.101 148.339 347.135 148.434C347.627 148.375 348.137 148.375 348.611 148.244C352.308 147.232 355.255 145.066 357.55 142.042C359.614 139.321 361.012 136.255 361.732 132.887C363.308 125.52 362.408 118.606 358.077 112.306C356.468 109.965 354.346 108.203 351.832 106.951C350.865 106.472 349.777 106.246 348.741 105.906C348.816 106.252 348.985 106.38 349.137 106.525C350.308 107.634 351.632 108.621 352.624 109.878C356.473 114.762 358.088 120.463 358.066 126.612C358.052 130.582 357.268 134.437 355.606 138.092C353.842 141.975 351.405 145.262 347.813 147.612C347.55 147.784 347.298 147.968 347.04 148.147L347.038 148.15ZM327.275 97.8413C327.408 97.9612 327.535 98.0866 327.676 98.1981C330.041 100.052 331.9 102.357 333.24 105.025C334.918 108.365 335.877 111.924 336.112 115.69C336.508 121.982 335.301 127.858 331.933 133.23C331.789 133.462 331.692 133.724 331.54 134.041C331.767 135.151 332.002 136.294 332.257 137.534C332.598 137.342 332.761 137.264 332.911 137.164C333.102 137.035 333.301 136.91 333.467 136.754C335.406 134.933 337.04 132.851 338.184 130.457C340.294 126.033 341.208 121.363 340.853 116.424C340.532 111.93 339.294 107.79 336.73 104.077C334.431 100.746 331.398 98.5103 327.272 97.8413H327.275ZM335.478 180.899C336.702 179.65 337.668 178.245 338.411 176.734C340.707 172.067 341.651 167.117 341.391 161.901C341.1 156.133 339.363 150.893 336.001 146.221C335.323 145.278 334.448 144.481 333.661 143.617C333.595 144.807 333.716 145.858 333.858 146.906C334.312 150.263 334.63 153.647 335.267 156.97C336.04 160.989 336.14 164.998 335.597 169.018C335.065 172.954 335.458 176.887 335.478 180.899ZM259.024 120.678C259.115 120.103 259.165 119.883 259.187 119.657C259.722 114.076 259.201 108.632 257.099 103.397C255.587 99.6337 253.504 96.336 250.034 94.0306C248.447 92.9741 246.764 92.3608 244.927 92.0793C244.252 91.9761 243.559 91.8535 242.72 91.9315C249.428 97.5179 251.649 104.961 252.361 113.117C255.058 115.066 257.152 117.558 259.024 120.675V120.678ZM364.765 163.487C368.861 162.838 372.043 160.666 374.544 157.485C376.718 154.72 378.117 151.559 378.87 148.097C379.598 144.743 379.734 141.367 379.155 138.008C378.518 134.315 377.18 130.875 374.907 127.839C373.209 125.57 371.107 123.789 368.592 122.548C367.504 122.01 366.288 121.728 364.892 121.252C366.332 122.52 367.587 123.526 368.731 124.65C371.362 127.242 372.996 130.454 374.12 133.93C374.937 136.458 375.322 139.081 375.383 141.738C375.461 145.206 374.951 148.601 373.768 151.854C372.42 155.565 370.401 158.871 367.39 161.477C366.56 162.196 365.643 162.818 364.768 163.484L364.765 163.487ZM291.202 162.127C290.92 162.322 290.563 162.539 290.241 162.799C289.956 163.03 289.699 163.3 289.441 163.562C286.372 166.707 284.899 170.604 284.21 174.863C284.146 175.262 284.171 175.708 284.284 176.096C284.858 178.047 285.472 179.984 286.123 182.095C287.486 179.809 288.929 177.684 291.028 176.096C293.169 174.473 295.55 173.539 298.19 173.355C297.647 170.821 297.137 168.427 296.675 166.266C294.803 164.85 293.08 163.546 291.202 162.127ZM335.483 205.151C336.325 204.632 337.115 204.259 337.768 203.718C339.967 201.898 341.643 199.651 342.93 197.092C344.913 193.153 345.7 188.938 345.705 184.581C345.711 181.604 345.237 178.655 344.34 175.814C343.828 174.197 343.091 172.65 342.402 170.944C341.421 173.564 340.521 175.97 339.649 178.298C339.831 179.212 340.047 180.023 340.147 180.851C340.684 185.317 340.546 189.741 339.283 194.09C338.593 196.459 337.771 198.795 336.303 200.783C335.32 202.118 335.273 203.476 335.483 205.154V205.151ZM284.279 204.549C282.498 208.189 280.149 211.289 277.23 213.823C276.701 217.311 275.954 220.597 274.575 223.719C273.201 226.83 271.176 229.465 268.803 231.907C270.559 231.728 272.226 231.377 273.746 230.616C277.308 228.829 279.776 225.902 281.504 222.39C283.794 217.734 284.622 212.722 284.556 207.557C284.542 206.553 284.376 205.552 284.279 204.552V204.549ZM381.188 143.622C380.786 145.426 380.85 146.817 381.833 148.292C382.899 149.889 383.758 151.698 384.342 153.533C386.007 158.77 386.212 164.084 384.738 169.436C383.39 174.334 380.842 178.409 376.865 181.559C376.715 181.676 376.571 181.799 376.424 181.919C377.252 181.832 378.022 181.66 378.72 181.331C382.174 179.7 384.766 177.082 386.594 173.782C387.746 171.702 388.732 169.522 389.111 167.08C389.668 163.509 389.784 159.986 389.001 156.443C388.571 154.508 388.22 152.554 387.879 150.856V152.058C386.248 148.813 384.173 145.995 381.188 143.617V143.622ZM333.257 222.125C333.149 222.041 333.043 221.958 332.935 221.874C332.877 222.058 332.852 222.261 332.761 222.429C331.958 223.878 330.734 224.963 329.493 225.991C328.103 227.145 326.568 228.118 324.788 228.553C322.592 229.091 320.365 229.504 318.171 230.053C315.272 230.778 312.405 230.702 309.594 229.73C308.428 229.325 307.337 228.692 306.224 228.135C305.399 227.722 304.568 227.36 303.568 227.374V230.217C313.508 231.558 323.35 232.888 333.254 234.226V222.128L333.257 222.125ZM282.769 172.703C282.88 172.583 283.021 172.5 283.046 172.391C283.611 169.879 284.6 167.554 285.927 165.352C286.209 164.881 286.281 164.201 286.245 163.626C286.065 160.744 286.112 157.881 286.81 155.018C286.312 153.744 285.807 152.459 285.267 151.085C284.057 151.238 282.938 151.378 282.088 151.484C281.144 153.828 280.291 155.921 279.46 158.026C279.346 158.316 279.263 158.659 279.296 158.963C279.629 161.912 279.914 164.864 279.773 167.841C279.77 167.928 279.825 168.017 279.853 168.106C279.878 168.089 279.906 168.076 279.931 168.059C280.87 169.595 281.808 171.128 282.767 172.7L282.769 172.703ZM209.633 150.553C209.517 151.146 209.392 151.679 209.307 152.22C208.811 155.35 207.938 158.361 206.512 161.198C206.368 161.483 206.202 161.809 206.216 162.11C206.307 164.075 206.443 166.035 206.581 168.248C212.364 165.419 214.757 160.465 216.377 154.96C215.851 153.438 215.358 152.005 214.857 150.553H209.636H209.633ZM234.091 183.368C230.859 187.121 229.612 191.664 229.02 196.448C228.416 201.312 229.463 208.769 230.662 209.865C230.795 206.403 231.307 203.085 232.426 199.854C233.57 196.548 235.373 193.688 237.749 191.204C237.738 189.984 237.948 188.785 237.245 187.762C236.256 186.318 235.204 184.916 234.088 183.368H234.091ZM319.839 118.238C322.904 120.293 325.12 123.133 327.095 126.225C324.137 116.114 320.024 106.569 314.438 97.7047C312.926 98.3347 311.942 98.9248 311.486 99.4748C317.235 104.359 319.49 110.846 319.839 118.241V118.238ZM318.061 117.065C318.061 116.641 318.099 116.362 318.055 116.1C317.792 114.595 317.62 113.062 317.213 111.595C315.845 106.664 313.414 102.452 308.861 99.7899C307.545 99.0205 306.119 98.5717 304.548 98.4629C309.902 102.923 312.225 108.872 313.059 115.459C314.735 115.997 316.305 116.502 318.058 117.068L318.061 117.065ZM345.764 174.863C347.168 173.528 348.494 172.265 349.713 171.108C349.165 168.505 348.624 165.935 348.054 163.22C347.655 162.935 347.129 162.562 346.608 162.183C346.102 161.812 345.597 161.435 345.113 161.076C343.819 162.23 343.114 163.626 343 165.266C342.942 166.099 342.811 166.93 342.831 167.761C342.845 168.287 343.002 168.842 343.218 169.33C343.745 170.509 344.36 171.649 344.908 172.82C345.221 173.484 345.476 174.175 345.761 174.866L345.764 174.863ZM342.57 200.861C341.2 202.913 339.446 204.462 337.547 205.965C337.436 206.403 337.308 206.893 337.187 207.387C336.882 208.602 336.746 209.896 336.234 211.013C335.489 212.641 335.298 214.292 335.386 216.026C335.42 216.686 335.428 217.347 335.453 218.108C340.15 215.016 343.263 205.937 342.57 200.858V200.861ZM293.667 98.1284C293.892 98.1674 294.113 98.2009 294.337 98.2455C297.245 98.8337 299.876 100.077 302.084 102.034C304.778 104.423 306.844 107.319 308.168 110.712C308.755 112.217 309.304 113.736 309.918 115.387C310.301 115.406 310.774 115.431 311.383 115.465C311.295 114.757 311.27 114.207 311.156 113.675C310.705 111.59 310.206 109.527 309.326 107.562C307.814 104.186 305.761 101.29 302.566 99.341C299.802 97.6545 296.852 97.1277 293.667 98.1312V98.1284ZM338.397 180.168C337.295 181.437 336.334 182.541 335.409 183.605C335.148 186.482 335.314 197.967 335.638 198.865C338.69 192.994 339.391 186.808 338.4 180.168H338.397ZM342.219 212.237C343.709 214.47 348.483 217.063 351.017 216.734C350.2 215.791 349.356 214.936 348.652 213.977C347.943 213.012 347.312 211.978 346.761 210.916C346.21 209.854 345.75 208.736 345.343 207.607C344.958 206.542 344.692 205.435 344.382 204.368C343.662 206.985 342.966 209.519 342.221 212.237H342.219ZM230.438 173.673C229.022 178.34 228.74 182.842 229.382 187.555C230.717 185.468 231.966 183.513 233.188 181.604C232.31 179.07 231.424 176.516 230.435 173.67L230.438 173.673ZM268.313 233.891C266.851 235.648 265.552 237.209 264.192 238.842C268.703 238.282 272.068 236.122 274.658 232.241C272.326 232.849 270.249 233.39 268.313 233.891ZM415.416 123.71C414.712 119.047 410.168 113.524 406.13 112.574C409.467 115.289 411.483 118.854 412.729 122.908C413.632 123.178 414.491 123.434 415.416 123.71ZM325.353 186.677C328.355 186.401 330.919 185.183 333.271 183.285C333.271 182.301 333.279 181.331 333.271 180.358C333.262 179.43 333.307 178.498 333.14 177.562C331.108 181.127 328.762 184.344 325.355 186.677H325.353ZM347.37 186.482C348.613 185.108 349.898 183.689 351.283 182.161C351.195 181.37 351.095 180.48 350.99 179.535C349.591 179.65 348.309 179.538 347.065 180.079C347.171 182.27 347.27 184.378 347.37 186.479V186.482ZM350.558 172.728C348.821 173.843 347.536 175.259 346.608 176.988C346.428 177.322 346.583 177.838 346.583 178.301C348.206 178.122 349.649 177.963 351.167 177.796C351.28 176.7 351.386 175.7 351.491 174.679C351.197 174.063 350.904 173.447 350.56 172.728H350.558ZM276.065 148.297C276.992 150.89 277.834 153.24 278.723 155.726C279.51 153.82 280.28 152.03 280.313 150.104C278.912 149.507 277.604 148.95 276.067 148.295L276.065 148.297ZM323.126 227.282C326.239 226.674 328.474 225.035 330.587 222.652C328.978 222.995 327.646 223.279 326.544 223.516C325.344 224.837 324.306 225.983 323.126 227.282ZM427.208 201.678C424.638 201.658 422.32 201.912 420.007 202.369C422.145 202.977 424.306 203.286 426.571 203.325C426.773 202.801 426.951 202.341 427.208 201.678ZM290.194 160.739C289.505 159.707 288.829 158.701 287.976 157.427C287.862 159.367 287.574 160.97 287.89 162.704C288.727 161.99 289.452 161.371 290.192 160.739H290.194ZM376.438 214.152C375.577 214.414 374.558 214.47 373.893 214.986C372.921 215.744 372.201 216.834 371.196 217.985C373.403 217.096 375.114 215.967 376.438 214.152ZM333.265 217.241C331.999 218.571 330.883 219.744 329.626 221.068C331.077 220.879 332.193 220.422 333.265 219.7V217.241ZM330.598 141.866C330.534 142.769 330.49 143.673 330.404 144.573C330.288 145.78 330.917 146.6 331.808 147.517C331.648 145.462 331.346 143.639 330.598 141.866ZM382.567 142.638C382.631 142.591 382.697 142.544 382.761 142.496C382.204 141.562 381.65 140.626 381.094 139.692C381.044 139.714 380.994 139.734 380.944 139.756C381.019 140.392 381.094 141.027 381.171 141.691C381.664 142.025 382.116 142.332 382.567 142.641V142.638ZM342.964 158.575C342.892 158.612 342.82 158.648 342.748 158.684C342.811 159.3 342.878 159.919 342.969 160.797C343.468 160.404 343.764 160.17 344.121 159.886C343.598 159.292 343.279 158.932 342.964 158.573V158.575ZM451.687 202.991C451.712 203.108 451.737 203.225 451.759 203.342C452.335 203.286 452.911 203.23 453.488 203.175C452.864 202.787 452.247 202.269 451.687 202.991ZM388.768 171.41C388.768 171.41 388.787 171.41 388.798 171.41V170.98C388.798 170.98 388.779 170.98 388.768 170.98V171.41ZM441.997 203.612L441.947 203.69L442.027 203.701L441.997 203.615V203.612Z" fill="white"/>
    </g>
    <defs>
        <clipPath id="clip0_135_15897">
            <rect width="310" height="217" fill="white" transform="translate(155 62.5)"/>
        </clipPath>
    </defs>
</svg>
