<svg width="64" height="64" viewBox="0 0 64 64" fill="none"
  xmlns="http://www.w3.org/2000/svg">
  <rect width="64" height="64" rx="4" fill="#12100F"/>
  <path d="M17 48L16.0044 47.9064L15.9016 49H17V48ZM47 48V49H48.0984L47.9956 47.9064L47 48ZM38 21C38 24.3137 35.3137 27 32 27V29C36.4183 29 40 25.4183 40 21H38ZM32 27C28.6863 27 26 24.3137 26 21H24C24 25.4183 27.5817 29 32 29V27ZM26 21C26 17.6863 28.6863 15 32 15V13C27.5817 13 24 16.5817 24 21H26ZM32 15C35.3137 15 38 17.6863 38 21H40C40 16.5817 36.4183 13 32 13V15ZM17.9956 48.0936C18.6902 40.7053 24.1872 35 32 35V33C23.052 33 16.7856 39.5965 16.0044 47.9064L17.9956 48.0936ZM32 35C39.8128 35 45.3098 40.7053 46.0044 48.0936L47.9956 47.9064C47.2144 39.5965 40.948 33 32 33V35ZM17 49H47V47H17V49Z" fill="white"/>
</svg>
